TiroBangla-Italic.ufo
<glyph name="dAnudatta" format="2">
  <unicode hex="0952"/>
  <outline>
    <contour>
      <point x="-140" y="-136" type="line"/>
      <point x="-131" y="-89" type="line"/>
      <point x="-460" y="-89" type="line"/>
      <point x="-469" y="-136" type="line"/>
    </contour>
  </outline>
</glyph>
<glyph name="DoubleDanda" format="2">
  <advance width="432"/>
  <unicode hex="0965"/>
  <outline>
    <contour>
      <point x="295" y="-43" type="line"/>
      <point x="414" y="567" type="line"/>
      <point x="356" y="620" type="line"/>
      <point x="348" y="620" type="line"/>
      <point x="229" y="10" type="line"/>
      <point x="287" y="-43" type="line"/>
    </contour>
    <contour>
      <point x="99" y="-43" type="line"/>
      <point x="218" y="567" type="line"/>
      <point x="160" y="620" type="line"/>
      <point x="152" y="620" type="line"/>
      <point x="33" y="10" type="line"/>
      <point x="91" y="-43" type="line"/>
    </contour>
  </outline>
</glyph>
<glyph name="bAnji" format="2">
  <advance width="519"/>
  <unicode hex="0980"/>
  <outline>
    <contour>
      <point x="388" y="-10" type="curve" smooth="yes"/>
      <point x="424" y="-10"/>
      <point x="455" y="14"/>
      <point x="455" y="50" type="curve" smooth="yes"/>
      <point x="455" y="79"/>
      <point x="434" y="99"/>
      <point x="408" y="99" type="curve" smooth="yes"/>
      <point x="392" y="99"/>
      <point x="382" y="92"/>
      <point x="377" y="87" type="curve"/>
      <point x="421" y="77" type="line"/>
      <point x="390" y="98" type="line"/>
      <point x="402" y="142"/>
      <point x="415" y="199"/>
      <point x="441" y="337" type="curve" smooth="yes"/>
      <point x="460" y="438" type="line" smooth="yes"/>
      <point x="461" y="444"/>
      <point x="462" y="452"/>
      <point x="462" y="460" type="curve" smooth="yes"/>
      <point x="462" y="531"/>
      <point x="385" y="620"/>
      <point x="309" y="620" type="curve" smooth="yes"/>
      <point x="220" y="620"/>
      <point x="73" y="505"/>
      <point x="73" y="417" type="curve" smooth="yes"/>
      <point x="73" y="349"/>
      <point x="165" y="258"/>
      <point x="267" y="258" type="curve" smooth="yes"/>
      <point x="283" y="258"/>
      <point x="301" y="260"/>
      <point x="316" y="265" type="curve"/>
      <point x="320" y="271" type="line"/>
      <point x="308" y="344" type="line"/>
      <point x="286" y="339"/>
      <point x="259" y="335"/>
      <point x="228" y="335" type="curve" smooth="yes"/>
      <point x="182" y="335"/>
      <point x="145" y="344"/>
      <point x="145" y="384" type="curve" smooth="yes"/>
      <point x="145" y="461"/>
      <point x="280" y="547"/>
      <point x="340" y="547" type="curve" smooth="yes"/>
      <point x="368" y="547"/>
      <point x="392" y="529"/>
      <point x="392" y="493" type="curve" smooth="yes"/>
      <point x="392" y="482"/>
      <point x="390" y="473"/>
      <point x="388" y="462" type="curve" smooth="yes"/>
      <point x="319" y="110" type="line" smooth="yes"/>
      <point x="316" y="96"/>
      <point x="315" y="83"/>
      <point x="315" y="73" type="curve" smooth="yes"/>
      <point x="315" y="11"/>
      <point x="353" y="-10"/>
    </contour>
  </outline>
</glyph>
<glyph name="bAnusvara" format="2">
  <unicode hex="0982"/>
  <outline>
    <contour>
      <point x="325" y="-53" type="line"/>
      <point x="323" y="2" type="line"/>
      <point x="243" y="144"/>
      <point x="188" y="232"/>
      <point x="123" y="328" type="curve"/>
      <point x="117" y="326" type="line"/>
      <point x="111" y="202" type="line"/>
      <point x="186" y="121"/>
      <point x="255" y="42"/>
      <point x="318" y="-55" type="curve"/>
    </contour>
    <contour>
      <point x="226" y="354" type="curve" smooth="yes"/>
      <point x="297" y="354"/>
      <point x="367" y="407"/>
      <point x="367" y="486" type="curve" smooth="yes"/>
      <point x="367" y="548"/>
      <point x="323" y="600"/>
      <point x="250" y="600" type="curve" smooth="yes"/>
      <point x="169" y="600"/>
      <point x="104" y="536"/>
      <point x="104" y="467" type="curve" smooth="yes"/>
      <point x="104" y="406"/>
      <point x="156" y="354"/>
    </contour>
    <contour>
      <point x="192" y="405" type="curve" smooth="yes"/>
      <point x="167" y="405"/>
      <point x="153" y="417"/>
      <point x="153" y="440" type="curve" smooth="yes"/>
      <point x="153" y="494"/>
      <point x="231" y="545"/>
      <point x="284" y="545" type="curve" smooth="yes"/>
      <point x="309" y="545"/>
      <point x="323" y="533"/>
      <point x="323" y="511" type="curve" smooth="yes"/>
      <point x="323" y="460"/>
      <point x="246" y="405"/>
    </contour>
  </outline>
</glyph>
<glyph name="bVisarga" format="2">
  <unicode hex="0983"/>
  <outline>
    <contour>
      <point x="226" y="354" type="curve" smooth="yes"/>
      <point x="297" y="354"/>
      <point x="367" y="407"/>
      <point x="367" y="486" type="curve" smooth="yes"/>
      <point x="367" y="550"/>
      <point x="322" y="600"/>
      <point x="250" y="600" type="curve" smooth="yes"/>
      <point x="169" y="600"/>
      <point x="104" y="536"/>
      <point x="104" y="467" type="curve" smooth="yes"/>
      <point x="104" y="406"/>
      <point x="156" y="354"/>
    </contour>
    <contour>
      <point x="162" y="24" type="curve" smooth="yes"/>
      <point x="233" y="24"/>
      <point x="303" y="77"/>
      <point x="303" y="156" type="curve" smooth="yes"/>
      <point x="303" y="218"/>
      <point x="259" y="270"/>
      <point x="186" y="270" type="curve" smooth="yes"/>
      <point x="105" y="270"/>
      <point x="40" y="206"/>
      <point x="40" y="137" type="curve" smooth="yes"/>
      <point x="40" y="76"/>
      <point x="92" y="24"/>
    </contour>
    <contour>
      <point x="128" y="75" type="curve" smooth="yes"/>
      <point x="103" y="75"/>
      <point x="89" y="87"/>
      <point x="89" y="110" type="curve" smooth="yes"/>
      <point x="89" y="164"/>
      <point x="167" y="215"/>
      <point x="220" y="215" type="curve" smooth="yes"/>
      <point x="245" y="215"/>
      <point x="259" y="203"/>
      <point x="259" y="181" type="curve" smooth="yes"/>
      <point x="259" y="130"/>
      <point x="182" y="75"/>
    </contour>
    <contour>
      <point x="192" y="405" type="curve" smooth="yes"/>
      <point x="167" y="405"/>
      <point x="153" y="417"/>
      <point x="153" y="440" type="curve" smooth="yes"/>
      <point x="153" y="494"/>
      <point x="231" y="545"/>
      <point x="284" y="545" type="curve" smooth="yes"/>
      <point x="309" y="545"/>
      <point x="323" y="533"/>
      <point x="323" y="511" type="curve" smooth="yes"/>
      <point x="323" y="460"/>
      <point x="246" y="405"/>
    </contour>
  </outline>
</glyph>
<glyph name="bA" format="2">
  <advance width="773"/>
  <unicode hex="0985"/>
  <outline>
    <contour>
      <point x="338" y="95" type="curve" smooth="yes"/>
      <point x="451" y="95"/>
      <point x="553" y="181"/>
      <point x="553" y="308" type="curve" smooth="yes"/>
      <point x="553" y="408"/>
      <point x="490" y="506"/>
      <point x="366" y="506" type="curve" smooth="yes"/>
      <point x="284" y="506"/>
      <point x="230" y="463"/>
      <point x="230" y="402" type="curve" smooth="yes"/>
      <point x="230" y="354"/>
      <point x="264" y="319"/>
      <point x="315" y="319" type="curve" smooth="yes"/>
      <point x="365" y="319"/>
      <point x="409" y="354"/>
      <point x="409" y="414" type="curve" smooth="yes"/>
      <point x="409" y="432"/>
      <point x="405" y="449"/>
      <point x="396" y="467" type="curve"/>
      <point x="370" y="436" type="line"/>
      <point x="382" y="438"/>
      <point x="394" y="439"/>
      <point x="404" y="439" type="curve" smooth="yes"/>
      <point x="474" y="439"/>
      <point x="498" y="388"/>
      <point x="498" y="344" type="curve" smooth="yes"/>
      <point x="498" y="276"/>
      <point x="438" y="190"/>
      <point x="327" y="190" type="curve" smooth="yes"/>
      <point x="231" y="190"/>
      <point x="132" y="254"/>
      <point x="87" y="500" type="curve"/>
      <point x="59" y="509" type="line"/>
      <point x="49" y="509" type="line"/>
      <point x="81" y="209"/>
      <point x="208" y="95"/>
    </contour>
    <contour>
      <point x="625" y="161" type="line"/>
      <point x="607" y="150" type="line"/>
      <point x="588" y="193"/>
      <point x="564" y="225"/>
      <point x="528" y="263" type="curve"/>
      <point x="497" y="205" type="line"/>
      <point x="575" y="151"/>
      <point x="608" y="66"/>
      <point x="614" y="-16" type="curve"/>
    </contour>
    <contour>
      <point x="395" y="486" type="line"/>
      <point x="381" y="528"/>
      <point x="375" y="544"/>
      <point x="348" y="572" type="curve"/>
      <point x="262" y="572" type="line"/>
      <point x="259" y="554" type="line"/>
      <point x="306" y="543"/>
      <point x="334" y="515"/>
      <point x="345" y="492" type="curve"/>
    </contour>
    <contour>
      <point x="649" y="-33" type="line"/>
      <point x="663" y="68"/>
      <point x="674" y="132"/>
      <point x="689" y="208" type="curve" smooth="yes"/>
      <point x="759" y="568" type="line"/>
      <point x="681" y="568" type="line"/>
      <point x="652" y="419" type="line" smooth="yes"/>
      <point x="622" y="264"/>
      <point x="610" y="193"/>
      <point x="611" y="143" type="curve"/>
      <point x="614" y="-16" type="line"/>
      <point x="638" y="-33" type="line"/>
    </contour>
    <contour>
      <point x="841" y="552" type="line"/>
      <point x="843" y="560" type="line"/>
      <point x="795" y="620" type="line"/>
      <point x="22" y="620" type="line"/>
      <point x="20" y="612" type="line"/>
      <point x="68" y="552" type="line"/>
    </contour>
  </outline>
  <guideline angle="134.997" x="1344" y="0"/>
</glyph>
<glyph name="bAa" format="2">
  <advance width="1018"/>
  <unicode hex="0986"/>
  <outline>
    <contour>
      <point x="946" y="510" type="line"/>
      <point x="927" y="504" type="line"/>
      <point x="910" y="604"/>
      <point x="871" y="620"/>
      <point x="795" y="620" type="curve" smooth="yes"/>
      <point x="22" y="620" type="line"/>
      <point x="20" y="612" type="line"/>
      <point x="68" y="552" type="line"/>
      <point x="818" y="552" type="line" smooth="yes"/>
      <point x="880" y="552"/>
      <point x="900" y="520"/>
      <point x="900" y="450" type="curve" smooth="yes"/>
      <point x="900" y="421"/>
      <point x="895" y="389"/>
      <point x="889" y="355" type="curve"/>
    </contour>
    <contour>
      <point x="338" y="95" type="curve" smooth="yes"/>
      <point x="451" y="95"/>
      <point x="553" y="181"/>
      <point x="553" y="308" type="curve" smooth="yes"/>
      <point x="553" y="408"/>
      <point x="490" y="506"/>
      <point x="366" y="506" type="curve" smooth="yes"/>
      <point x="284" y="506"/>
      <point x="230" y="463"/>
      <point x="230" y="402" type="curve" smooth="yes"/>
      <point x="230" y="354"/>
      <point x="264" y="319"/>
      <point x="315" y="319" type="curve" smooth="yes"/>
      <point x="365" y="319"/>
      <point x="409" y="354"/>
      <point x="409" y="414" type="curve" smooth="yes"/>
      <point x="409" y="432"/>
      <point x="405" y="449"/>
      <point x="396" y="467" type="curve"/>
      <point x="372" y="435" type="line"/>
      <point x="384" y="438"/>
      <point x="396" y="439"/>
      <point x="405" y="439" type="curve" smooth="yes"/>
      <point x="473" y="439"/>
      <point x="498" y="388"/>
      <point x="498" y="344" type="curve" smooth="yes"/>
      <point x="498" y="276"/>
      <point x="438" y="190"/>
      <point x="327" y="190" type="curve" smooth="yes"/>
      <point x="231" y="190"/>
      <point x="132" y="254"/>
      <point x="87" y="500" type="curve"/>
      <point x="59" y="509" type="line"/>
      <point x="49" y="509" type="line"/>
      <point x="81" y="209"/>
      <point x="208" y="95"/>
    </contour>
    <contour>
      <point x="625" y="161" type="line"/>
      <point x="607" y="150" type="line"/>
      <point x="588" y="193"/>
      <point x="564" y="225"/>
      <point x="528" y="263" type="curve"/>
      <point x="497" y="205" type="line"/>
      <point x="575" y="151"/>
      <point x="608" y="66"/>
      <point x="614" y="-16" type="curve"/>
    </contour>
    <contour>
      <point x="395" y="486" type="line"/>
      <point x="381" y="528"/>
      <point x="375" y="544"/>
      <point x="348" y="572" type="curve"/>
      <point x="262" y="572" type="line"/>
      <point x="259" y="554" type="line"/>
      <point x="306" y="543"/>
      <point x="334" y="515"/>
      <point x="345" y="492" type="curve"/>
    </contour>
    <contour>
      <point x="649" y="-33" type="line"/>
      <point x="663" y="68"/>
      <point x="674" y="132"/>
      <point x="689" y="208" type="curve" smooth="yes"/>
      <point x="759" y="568" type="line"/>
      <point x="681" y="568" type="line"/>
      <point x="652" y="419" type="line" smooth="yes"/>
      <point x="622" y="264"/>
      <point x="610" y="193"/>
      <point x="611" y="143" type="curve" smooth="yes"/>
      <point x="614" y="-16" type="line"/>
      <point x="638" y="-33" type="line"/>
    </contour>
    <contour>
      <point x="892" y="-43" type="line"/>
      <point x="997" y="592" type="line"/>
      <point x="1013" y="704" type="line"/>
      <point x="976" y="735" type="line"/>
      <point x="969" y="735" type="line"/>
      <point x="943" y="602" type="line" smooth="yes"/>
      <point x="935" y="561"/>
      <point x="930" y="533"/>
      <point x="930" y="486" type="curve"/>
      <point x="889" y="355" type="line"/>
      <point x="822" y="10" type="line"/>
      <point x="881" y="-43" type="line"/>
    </contour>
    <contour>
      <point x="1086" y="552" type="line"/>
      <point x="1088" y="560" type="line"/>
      <point x="1040" y="620" type="line"/>
      <point x="1016" y="620"/>
      <point x="1007" y="628"/>
      <point x="1007" y="652" type="curve" smooth="yes"/>
      <point x="1007" y="665"/>
      <point x="1010" y="682"/>
      <point x="1013" y="704" type="curve"/>
      <point x="979" y="569" type="line"/>
      <point x="998" y="578" type="line"/>
      <point x="1006" y="564"/>
      <point x="1017" y="552"/>
      <point x="1044" y="552" type="curve" smooth="yes"/>
    </contour>
  </outline>
</glyph>
<glyph name="bI" format="2">
  <advance width="529"/>
  <unicode hex="0987"/>
  <outline>
    <contour>
      <point x="260" y="120" type="line"/>
      <point x="265" y="138" type="line"/>
      <point x="394" y="169"/>
      <point x="492" y="241"/>
      <point x="492" y="347" type="curve" smooth="yes"/>
      <point x="492" y="452"/>
      <point x="396" y="501"/>
      <point x="296" y="501" type="curve" smooth="yes"/>
      <point x="203" y="501"/>
      <point x="94" y="458"/>
      <point x="94" y="383" type="curve" smooth="yes"/>
      <point x="94" y="343"/>
      <point x="125" y="318"/>
      <point x="172" y="318" type="curve" smooth="yes"/>
      <point x="249" y="318"/>
      <point x="327" y="384"/>
      <point x="327" y="502" type="curve" smooth="yes"/>
      <point x="327" y="532"/>
      <point x="322" y="554"/>
      <point x="312" y="565" type="curve"/>
      <point x="243" y="565" type="line"/>
      <point x="268" y="549"/>
      <point x="279" y="525"/>
      <point x="279" y="504" type="curve" smooth="yes"/>
      <point x="279" y="498"/>
      <point x="278" y="493"/>
      <point x="277" y="488" type="curve"/>
      <point x="299" y="418" type="line"/>
      <point x="318" y="428"/>
      <point x="339" y="436"/>
      <point x="365" y="436" type="curve" smooth="yes"/>
      <point x="404" y="436"/>
      <point x="437" y="419"/>
      <point x="437" y="377" type="curve" smooth="yes"/>
      <point x="437" y="286"/>
      <point x="278" y="215"/>
      <point x="178" y="215" type="curve" smooth="yes"/>
      <point x="144" y="215"/>
      <point x="110" y="223"/>
      <point x="38" y="257" type="curve"/>
      <point x="32" y="252" type="line"/>
      <point x="77" y="124" type="line"/>
    </contour>
    <contour>
      <point x="516" y="-123" type="line"/>
      <point x="511" y="-77" type="line"/>
      <point x="476" y="-29"/>
      <point x="417" y="48"/>
      <point x="243" y="148" type="curve"/>
      <point x="77" y="124" type="line"/>
      <point x="241" y="84"/>
      <point x="374" y="16"/>
      <point x="509" y="-123" type="curve"/>
    </contour>
    <contour>
      <point x="597" y="552" type="line"/>
      <point x="599" y="560" type="line"/>
      <point x="551" y="620" type="line"/>
      <point x="22" y="620" type="line"/>
      <point x="20" y="612" type="line"/>
      <point x="68" y="552" type="line"/>
    </contour>
    <contour>
      <point x="513" y="605" type="line"/>
      <point x="516" y="620"/>
      <point x="517" y="635"/>
      <point x="517" y="646" type="curve" smooth="yes"/>
      <point x="517" y="720"/>
      <point x="475" y="785"/>
      <point x="351" y="785" type="curve" smooth="yes"/>
      <point x="305" y="785"/>
      <point x="255" y="776"/>
      <point x="197" y="776" type="curve" smooth="yes"/>
      <point x="125" y="776"/>
      <point x="105" y="790"/>
      <point x="105" y="820" type="curve" smooth="yes"/>
      <point x="105" y="835"/>
      <point x="110" y="852"/>
      <point x="133" y="876" type="curve"/>
      <point x="113" y="896" type="line"/>
      <point x="105" y="896" type="line"/>
      <point x="74" y="867"/>
      <point x="61" y="833"/>
      <point x="61" y="804" type="curve" smooth="yes"/>
      <point x="61" y="745"/>
      <point x="116" y="694"/>
      <point x="232" y="694" type="curve" smooth="yes"/>
      <point x="283" y="694"/>
      <point x="341" y="704"/>
      <point x="392" y="704" type="curve" smooth="yes"/>
      <point x="443" y="704"/>
      <point x="474" y="694"/>
      <point x="474" y="663" type="curve" smooth="yes"/>
      <point x="474" y="644"/>
      <point x="463" y="624"/>
      <point x="435" y="605" type="curve"/>
    </contour>
  </outline>
</glyph>
<glyph name="bIi" format="2">
  <advance width="638"/>
  <unicode hex="0988"/>
  <outline>
    <contour>
      <point x="466" y="-33" type="line"/>
      <point x="461" y="6"/>
      <point x="458" y="62"/>
      <point x="458" y="96" type="curve" smooth="yes"/>
      <point x="458" y="205"/>
      <point x="489" y="306"/>
      <point x="653" y="419" type="curve"/>
      <point x="655" y="427" type="line"/>
      <point x="627" y="450"/>
      <point x="594" y="474"/>
      <point x="559" y="491" type="curve"/>
      <point x="460" y="444"/>
      <point x="418" y="415"/>
      <point x="348" y="352" type="curve"/>
      <point x="360" y="338" type="line"/>
      <point x="359" y="339"/>
      <point x="364" y="345"/>
      <point x="364" y="365" type="curve" smooth="yes"/>
      <point x="364" y="425"/>
      <point x="319" y="502"/>
      <point x="221" y="502" type="curve" smooth="yes"/>
      <point x="150" y="502"/>
      <point x="70" y="461"/>
      <point x="70" y="394" type="curve" smooth="yes"/>
      <point x="70" y="353"/>
      <point x="100" y="329"/>
      <point x="138" y="329" type="curve" smooth="yes"/>
      <point x="185" y="329"/>
      <point x="237" y="366"/>
      <point x="238" y="449" type="curve"/>
      <point x="203" y="398" type="line"/>
      <point x="231" y="419"/>
      <point x="249" y="427"/>
      <point x="269" y="427" type="curve" smooth="yes"/>
      <point x="303" y="427"/>
      <point x="322" y="405"/>
      <point x="322" y="379" type="curve" smooth="yes"/>
      <point x="322" y="314"/>
      <point x="205" y="206"/>
      <point x="144" y="206" type="curve" smooth="yes"/>
      <point x="119" y="206"/>
      <point x="101" y="225"/>
      <point x="99" y="264" type="curve"/>
      <point x="93" y="265" type="line"/>
      <point x="63" y="245" type="line"/>
      <point x="70" y="154"/>
      <point x="120" y="124"/>
      <point x="170" y="124" type="curve" smooth="yes"/>
      <point x="224" y="124"/>
      <point x="269" y="159"/>
      <point x="321" y="211" type="curve" smooth="yes"/>
      <point x="377" y="267"/>
      <point x="425" y="327"/>
      <point x="493" y="375" type="curve"/>
      <point x="497" y="373" type="line"/>
      <point x="423" y="291"/>
      <point x="403" y="211"/>
      <point x="403" y="133" type="curve" smooth="yes"/>
      <point x="403" y="87"/>
      <point x="410" y="31"/>
      <point x="423" y="-11" type="curve"/>
      <point x="455" y="-33" type="line"/>
    </contour>
    <contour>
      <point x="226" y="484" type="line"/>
      <point x="227" y="490"/>
      <point x="227" y="495"/>
      <point x="227" y="501" type="curve" smooth="yes"/>
      <point x="227" y="524"/>
      <point x="219" y="548"/>
      <point x="202" y="567" type="curve"/>
      <point x="72" y="552" type="line"/>
      <point x="149" y="552"/>
      <point x="178" y="526"/>
      <point x="185" y="484" type="curve"/>
    </contour>
    <contour>
      <point x="706" y="552" type="line"/>
      <point x="708" y="560" type="line"/>
      <point x="660" y="620" type="line"/>
      <point x="12" y="620" type="line"/>
      <point x="10" y="612" type="line"/>
      <point x="58" y="552" type="line"/>
    </contour>
    <contour>
      <point x="611" y="600" type="line"/>
      <point x="614" y="618"/>
      <point x="616" y="634"/>
      <point x="616" y="649" type="curve" smooth="yes"/>
      <point x="616" y="742"/>
      <point x="545" y="786"/>
      <point x="435" y="786" type="curve" smooth="yes"/>
      <point x="375" y="786"/>
      <point x="275" y="773"/>
      <point x="223" y="773" type="curve" smooth="yes"/>
      <point x="145" y="773"/>
      <point x="127" y="802"/>
      <point x="127" y="828" type="curve" smooth="yes"/>
      <point x="127" y="850"/>
      <point x="140" y="867"/>
      <point x="167" y="885" type="curve"/>
      <point x="137" y="902" type="line"/>
      <point x="105" y="873"/>
      <point x="90" y="845"/>
      <point x="90" y="809" type="curve" smooth="yes"/>
      <point x="90" y="743"/>
      <point x="143" y="691"/>
      <point x="284" y="691" type="curve" smooth="yes"/>
      <point x="355" y="691"/>
      <point x="436" y="704"/>
      <point x="494" y="704" type="curve" smooth="yes"/>
      <point x="549" y="704"/>
      <point x="573" y="692"/>
      <point x="573" y="663" type="curve" smooth="yes"/>
      <point x="573" y="641"/>
      <point x="560" y="626"/>
      <point x="537" y="605" type="curve"/>
    </contour>
  </outline>
</glyph>
<glyph name="bU" format="2">
  <advance width="662"/>
  <unicode hex="0989"/>
  <outline>
    <contour>
      <point x="365" y="27" type="curve" smooth="yes"/>
      <point x="514" y="27"/>
      <point x="616" y="140"/>
      <point x="616" y="284" type="curve" smooth="yes"/>
      <point x="616" y="357"/>
      <point x="590" y="418"/>
      <point x="542" y="453" type="curve"/>
      <point x="537" y="452" type="line"/>
      <point x="475" y="380"/>
      <point x="393" y="318"/>
      <point x="360" y="318" type="curve" smooth="yes"/>
      <point x="347" y="318"/>
      <point x="344" y="327"/>
      <point x="348" y="345" type="curve"/>
      <point x="391" y="568" type="line"/>
      <point x="312" y="568" type="line"/>
      <point x="274" y="371" type="line" smooth="yes"/>
      <point x="262" y="308"/>
      <point x="329" y="242"/>
      <point x="382" y="242" type="curve" smooth="yes"/>
      <point x="427" y="242"/>
      <point x="503" y="291"/>
      <point x="571" y="370" type="curve"/>
      <point x="533" y="374" type="line"/>
      <point x="556" y="356"/>
      <point x="569" y="334"/>
      <point x="569" y="301" type="curve" smooth="yes"/>
      <point x="569" y="217"/>
      <point x="484" y="121"/>
      <point x="355" y="121" type="curve" smooth="yes"/>
      <point x="219" y="121"/>
      <point x="129" y="227"/>
      <point x="124" y="500" type="curve"/>
      <point x="96" y="509" type="line"/>
      <point x="86" y="509" type="line"/>
      <point x="69" y="146"/>
      <point x="213" y="27"/>
    </contour>
    <contour>
      <point x="730" y="552" type="line"/>
      <point x="732" y="560" type="line"/>
      <point x="684" y="620" type="line"/>
      <point x="22" y="620" type="line"/>
      <point x="20" y="612" type="line"/>
      <point x="68" y="552" type="line"/>
    </contour>
    <contour>
      <point x="635" y="604" type="line"/>
      <point x="638" y="619"/>
      <point x="639" y="633"/>
      <point x="639" y="645" type="curve" smooth="yes"/>
      <point x="639" y="731"/>
      <point x="584" y="786"/>
      <point x="460" y="786" type="curve" smooth="yes"/>
      <point x="407" y="786"/>
      <point x="346" y="776"/>
      <point x="275" y="776" type="curve" smooth="yes"/>
      <point x="191" y="776"/>
      <point x="164" y="790"/>
      <point x="164" y="822" type="curve" smooth="yes"/>
      <point x="164" y="835"/>
      <point x="169" y="852"/>
      <point x="192" y="876" type="curve"/>
      <point x="172" y="896" type="line"/>
      <point x="164" y="896" type="line"/>
      <point x="134" y="868"/>
      <point x="120" y="834"/>
      <point x="120" y="806" type="curve" smooth="yes"/>
      <point x="120" y="765"/>
      <point x="152" y="694"/>
      <point x="316" y="694" type="curve" smooth="yes"/>
      <point x="377" y="694"/>
      <point x="452" y="704"/>
      <point x="509" y="704" type="curve" smooth="yes"/>
      <point x="570" y="704"/>
      <point x="596" y="693"/>
      <point x="596" y="663" type="curve" smooth="yes"/>
      <point x="596" y="644"/>
      <point x="585" y="624"/>
      <point x="556" y="604" type="curve"/>
    </contour>
  </outline>
</glyph>
<glyph name="bUu" format="2">
  <advance width="735"/>
  <unicode hex="098A"/>
  <outline>
    <contour>
      <point x="409" y="28" type="curve" smooth="yes"/>
      <point x="592" y="28"/>
      <point x="691" y="153"/>
      <point x="691" y="287" type="curve" smooth="yes"/>
      <point x="691" y="352"/>
      <point x="668" y="417"/>
      <point x="621" y="453" type="curve"/>
      <point x="616" y="452" type="line"/>
      <point x="554" y="380"/>
      <point x="472" y="318"/>
      <point x="439" y="318" type="curve" smooth="yes"/>
      <point x="430" y="318"/>
      <point x="425" y="322"/>
      <point x="425" y="332" type="curve" smooth="yes"/>
      <point x="425" y="336"/>
      <point x="426" y="340"/>
      <point x="427" y="345" type="curve"/>
      <point x="470" y="568" type="line"/>
      <point x="391" y="568" type="line"/>
      <point x="353" y="371" type="line" smooth="yes"/>
      <point x="352" y="366"/>
      <point x="352" y="362"/>
      <point x="352" y="357" type="curve" smooth="yes"/>
      <point x="352" y="298"/>
      <point x="420" y="242"/>
      <point x="464" y="242" type="curve" smooth="yes"/>
      <point x="506" y="242"/>
      <point x="586" y="295"/>
      <point x="650" y="370" type="curve"/>
      <point x="612" y="374" type="line"/>
      <point x="632" y="356"/>
      <point x="644" y="333"/>
      <point x="644" y="302" type="curve" smooth="yes"/>
      <point x="644" y="217"/>
      <point x="557" y="120"/>
      <point x="430" y="120" type="curve" smooth="yes"/>
      <point x="295" y="120"/>
      <point x="222" y="228"/>
      <point x="228" y="496" type="curve"/>
      <point x="201" y="505" type="line"/>
      <point x="191" y="505" type="line"/>
      <point x="188" y="466"/>
      <point x="186" y="430"/>
      <point x="186" y="397" type="curve" smooth="yes"/>
      <point x="186" y="276"/>
      <point x="209" y="192"/>
      <point x="262" y="132" type="curve"/>
      <point x="257" y="128" type="line"/>
      <point x="179" y="168"/>
      <point x="122" y="296"/>
      <point x="124" y="500" type="curve"/>
      <point x="96" y="509" type="line"/>
      <point x="86" y="509" type="line"/>
      <point x="84" y="484"/>
      <point x="83" y="460"/>
      <point x="83" y="438" type="curve" smooth="yes"/>
      <point x="83" y="109"/>
      <point x="261" y="28"/>
    </contour>
    <contour>
      <point x="803" y="552" type="line"/>
      <point x="805" y="560" type="line"/>
      <point x="757" y="620" type="line"/>
      <point x="22" y="620" type="line"/>
      <point x="20" y="612" type="line"/>
      <point x="68" y="552" type="line"/>
    </contour>
    <contour>
      <point x="704" y="606" type="line"/>
      <point x="706" y="618"/>
      <point x="708" y="633"/>
      <point x="708" y="648" type="curve" smooth="yes"/>
      <point x="708" y="716"/>
      <point x="670" y="786"/>
      <point x="526" y="786" type="curve" smooth="yes"/>
      <point x="472" y="786"/>
      <point x="388" y="776"/>
      <point x="309" y="776" type="curve" smooth="yes"/>
      <point x="215" y="776"/>
      <point x="185" y="790"/>
      <point x="185" y="822" type="curve" smooth="yes"/>
      <point x="185" y="835"/>
      <point x="190" y="852"/>
      <point x="213" y="876" type="curve"/>
      <point x="193" y="896" type="line"/>
      <point x="185" y="896" type="line"/>
      <point x="154" y="867"/>
      <point x="141" y="833"/>
      <point x="141" y="805" type="curve" smooth="yes"/>
      <point x="141" y="755"/>
      <point x="186" y="694"/>
      <point x="348" y="694" type="curve" smooth="yes"/>
      <point x="414" y="694"/>
      <point x="510" y="704"/>
      <point x="574" y="704" type="curve" smooth="yes"/>
      <point x="635" y="704"/>
      <point x="665" y="695"/>
      <point x="665" y="663" type="curve" smooth="yes"/>
      <point x="665" y="644"/>
      <point x="654" y="622"/>
      <point x="625" y="606" type="curve"/>
    </contour>
  </outline>
</glyph>
<glyph name="bVocalicR" format="2">
  <advance width="741"/>
  <unicode hex="098B"/>
  <outline>
    <contour>
      <point x="416" y="132" type="line"/>
      <point x="398" y="121" type="line"/>
      <point x="351" y="213"/>
      <point x="292" y="261"/>
      <point x="233" y="293" type="curve"/>
      <point x="233" y="296" type="line"/>
      <point x="301" y="333"/>
      <point x="373" y="367"/>
      <point x="459" y="400" type="curve"/>
      <point x="478" y="494" type="line"/>
      <point x="350" y="447"/>
      <point x="258" y="404"/>
      <point x="95" y="317" type="curve"/>
      <point x="145" y="235" type="line"/>
      <point x="307" y="213"/>
      <point x="397" y="94"/>
      <point x="408" y="-16" type="curve"/>
    </contour>
    <contour>
      <point x="594" y="169" type="line"/>
      <point x="575" y="158" type="line"/>
      <point x="553" y="205"/>
      <point x="525" y="246"/>
      <point x="480" y="268" type="curve"/>
      <point x="466" y="200" type="line"/>
      <point x="557" y="172"/>
      <point x="578" y="84"/>
      <point x="586" y="12" type="curve"/>
    </contour>
    <contour>
      <point x="172" y="443" type="curve" smooth="yes"/>
      <point x="237" y="443"/>
      <point x="297" y="477"/>
      <point x="341" y="502" type="curve" smooth="yes"/>
      <point x="367" y="517"/>
      <point x="372" y="518"/>
      <point x="376" y="518" type="curve" smooth="yes"/>
      <point x="393" y="518"/>
      <point x="405" y="504"/>
      <point x="424" y="459" type="curve"/>
      <point x="459" y="475" type="line"/>
      <point x="436" y="525"/>
      <point x="409" y="568"/>
      <point x="372" y="614" type="curve"/>
      <point x="367" y="614" type="line"/>
      <point x="296" y="556"/>
      <point x="218" y="524"/>
      <point x="189" y="523" type="curve"/>
      <point x="198" y="508" type="line"/>
      <point x="203" y="515"/>
      <point x="206" y="524"/>
      <point x="206" y="534" type="curve" smooth="yes"/>
      <point x="206" y="559"/>
      <point x="187" y="591"/>
      <point x="146" y="591" type="curve" smooth="yes"/>
      <point x="107" y="591"/>
      <point x="72" y="563"/>
      <point x="72" y="521" type="curve" smooth="yes"/>
      <point x="72" y="484"/>
      <point x="100" y="443"/>
    </contour>
    <contour>
      <point x="443" y="-33" type="line"/>
      <point x="459" y="69"/>
      <point x="471" y="127"/>
      <point x="486" y="206" type="curve" smooth="yes"/>
      <point x="558" y="579" type="line"/>
      <point x="500" y="633" type="line"/>
      <point x="490" y="633" type="line"/>
      <point x="449" y="420" type="line" smooth="yes"/>
      <point x="417" y="252"/>
      <point x="398" y="156"/>
      <point x="402" y="117" type="curve"/>
      <point x="408" y="-16" type="line"/>
      <point x="432" y="-33" type="line"/>
    </contour>
    <contour>
      <point x="621" y="-4" type="line"/>
      <point x="636" y="92"/>
      <point x="646" y="153"/>
      <point x="660" y="225" type="curve" smooth="yes"/>
      <point x="724" y="552" type="line"/>
      <point x="809" y="552" type="line"/>
      <point x="811" y="560" type="line"/>
      <point x="762" y="620" type="line"/>
      <point x="661" y="620" type="line"/>
      <point x="620" y="411" type="line" smooth="yes"/>
      <point x="591" y="264"/>
      <point x="578" y="199"/>
      <point x="579" y="151" type="curve"/>
      <point x="586" y="12" type="line"/>
      <point x="610" y="-4" type="line"/>
    </contour>
  </outline>
</glyph>
<glyph name="bVocalicL" format="2">
  <advance width="582"/>
  <unicode hex="098C"/>
  <outline>
    <contour>
      <point x="291" y="-9" type="line"/>
      <point x="442" y="80"/>
      <point x="538" y="169"/>
      <point x="538" y="309" type="curve" smooth="yes"/>
      <point x="538" y="454"/>
      <point x="435" y="500"/>
      <point x="315" y="553" type="curve" smooth="yes"/>
      <point x="254" y="580"/>
      <point x="200" y="607"/>
      <point x="200" y="657" type="curve" smooth="yes"/>
      <point x="200" y="683"/>
      <point x="215" y="701"/>
      <point x="243" y="720" type="curve"/>
      <point x="228" y="746" type="line"/>
      <point x="220" y="746" type="line"/>
      <point x="176" y="718"/>
      <point x="150" y="682"/>
      <point x="150" y="630" type="curve" smooth="yes"/>
      <point x="150" y="534"/>
      <point x="235" y="497"/>
      <point x="334" y="452" type="curve" smooth="yes"/>
      <point x="420" y="413"/>
      <point x="494" y="372"/>
      <point x="494" y="296" type="curve" smooth="yes"/>
      <point x="494" y="218"/>
      <point x="418" y="154"/>
      <point x="338" y="114" type="curve"/>
    </contour>
    <contour>
      <point x="363" y="118" type="line"/>
      <point x="352" y="124" type="line"/>
      <point x="363" y="148"/>
      <point x="372" y="183"/>
      <point x="372" y="216" type="curve" smooth="yes"/>
      <point x="372" y="299"/>
      <point x="314" y="363"/>
      <point x="224" y="363" type="curve" smooth="yes"/>
      <point x="108" y="363"/>
      <point x="40" y="257"/>
      <point x="40" y="163" type="curve" smooth="yes"/>
      <point x="40" y="86"/>
      <point x="86" y="34"/>
      <point x="148" y="34" type="curve" smooth="yes"/>
      <point x="198" y="34"/>
      <point x="234" y="69"/>
      <point x="234" y="112" type="curve" smooth="yes"/>
      <point x="234" y="151"/>
      <point x="205" y="176"/>
      <point x="172" y="176" type="curve" smooth="yes"/>
      <point x="139" y="176"/>
      <point x="105" y="150"/>
      <point x="105" y="107" type="curve" smooth="yes"/>
      <point x="105" y="97"/>
      <point x="107" y="87"/>
      <point x="114" y="77" type="curve"/>
      <point x="130" y="118" type="line"/>
      <point x="103" y="91" type="line"/>
      <point x="86" y="99"/>
      <point x="79" y="118"/>
      <point x="79" y="142" type="curve" smooth="yes"/>
      <point x="79" y="220"/>
      <point x="149" y="281"/>
      <point x="229" y="281" type="curve" smooth="yes"/>
      <point x="289" y="281"/>
      <point x="330" y="247"/>
      <point x="330" y="182" type="curve" smooth="yes"/>
      <point x="330" y="132"/>
      <point x="306" y="66"/>
      <point x="270" y="8" type="curve"/>
      <point x="291" y="-9" type="line"/>
    </contour>
  </outline>
</glyph>
<glyph name="bE" format="2">
  <advance width="675"/>
  <unicode hex="098F"/>
  <outline>
    <contour>
      <point x="548" y="-36" type="line"/>
      <point x="564" y="65"/>
      <point x="576" y="129"/>
      <point x="591" y="205" type="curve" smooth="yes"/>
      <point x="642" y="465"/>
      <point x="651" y="488"/>
      <point x="651" y="509" type="curve" smooth="yes"/>
      <point x="651" y="566"/>
      <point x="582" y="620"/>
      <point x="529" y="620" type="curve" smooth="yes"/>
      <point x="450" y="620"/>
      <point x="240" y="495"/>
      <point x="240" y="357" type="curve" smooth="yes"/>
      <point x="240" y="295"/>
      <point x="283" y="257"/>
      <point x="341" y="257" type="curve" smooth="yes"/>
      <point x="406" y="257"/>
      <point x="447" y="304"/>
      <point x="447" y="349" type="curve" smooth="yes"/>
      <point x="447" y="387"/>
      <point x="419" y="414"/>
      <point x="382" y="414" type="curve" smooth="yes"/>
      <point x="368" y="414"/>
      <point x="350" y="410"/>
      <point x="338" y="393" type="curve"/>
      <point x="390" y="396" type="line"/>
      <point x="358" y="412" type="line"/>
      <point x="399" y="481"/>
      <point x="526" y="554"/>
      <point x="562" y="554" type="curve" smooth="yes"/>
      <point x="571" y="554"/>
      <point x="576" y="549"/>
      <point x="576" y="532" type="curve" smooth="yes"/>
      <point x="576" y="495"/>
      <point x="552" y="418"/>
      <point x="538" y="344" type="curve" smooth="yes"/>
      <point x="500" y="149"/>
      <point x="504" y="110"/>
      <point x="501" y="77" type="curve"/>
      <point x="513" y="-19" type="line"/>
      <point x="537" y="-36" type="line"/>
    </contour>
    <contour>
      <point x="518" y="106" type="line"/>
      <point x="500" y="98" type="line"/>
      <point x="455" y="157"/>
      <point x="402" y="168"/>
      <point x="343" y="168" type="curve" smooth="yes"/>
      <point x="299" y="168"/>
      <point x="251" y="162"/>
      <point x="212" y="162" type="curve" smooth="yes"/>
      <point x="113" y="162"/>
      <point x="81" y="201"/>
      <point x="81" y="263" type="curve" smooth="yes"/>
      <point x="81" y="306"/>
      <point x="96" y="355"/>
      <point x="133" y="407" type="curve"/>
      <point x="113" y="422" type="line"/>
      <point x="104" y="422" type="line"/>
      <point x="61" y="368"/>
      <point x="30" y="302"/>
      <point x="30" y="238" type="curve" smooth="yes"/>
      <point x="30" y="138"/>
      <point x="106" y="75"/>
      <point x="222" y="75" type="curve" smooth="yes"/>
      <point x="272" y="75"/>
      <point x="336" y="87"/>
      <point x="403" y="87" type="curve" smooth="yes"/>
      <point x="482" y="87"/>
      <point x="502" y="70"/>
      <point x="513" y="-19" type="curve"/>
    </contour>
  </outline>
</glyph>
<glyph name="bO" format="2">
  <advance width="703"/>
  <unicode hex="0993"/>
  <outline>
    <contour>
      <point x="422" y="42" type="curve" smooth="yes"/>
      <point x="549" y="42"/>
      <point x="626" y="126"/>
      <point x="626" y="223" type="curve" smooth="yes"/>
      <point x="626" y="268"/>
      <point x="609" y="311"/>
      <point x="574" y="344" type="curve"/>
      <point x="540" y="309" type="line"/>
      <point x="564" y="296"/>
      <point x="577" y="279"/>
      <point x="577" y="252" type="curve" smooth="yes"/>
      <point x="577" y="190"/>
      <point x="510" y="139"/>
      <point x="415" y="139" type="curve" smooth="yes"/>
      <point x="286" y="139"/>
      <point x="146" y="233"/>
      <point x="111" y="515" type="curve"/>
      <point x="83" y="524" type="line"/>
      <point x="73" y="524" type="line"/>
      <point x="94" y="172"/>
      <point x="265" y="42"/>
    </contour>
    <contour>
      <point x="485" y="277" type="curve" smooth="yes"/>
      <point x="513" y="277"/>
      <point x="543" y="290"/>
      <point x="563" y="309" type="curve"/>
      <point x="606" y="338"/>
      <point x="657" y="405"/>
      <point x="657" y="476" type="curve" smooth="yes"/>
      <point x="657" y="555"/>
      <point x="594" y="608"/>
      <point x="488" y="608" type="curve" smooth="yes"/>
      <point x="346" y="608"/>
      <point x="210" y="512"/>
      <point x="210" y="414" type="curve" smooth="yes"/>
      <point x="210" y="365"/>
      <point x="244" y="335"/>
      <point x="288" y="335" type="curve" smooth="yes"/>
      <point x="337" y="335"/>
      <point x="376" y="373"/>
      <point x="376" y="415" type="curve" smooth="yes"/>
      <point x="376" y="442"/>
      <point x="361" y="473"/>
      <point x="324" y="475" type="curve"/>
      <point x="334" y="448" type="line"/>
      <point x="397" y="524"/>
      <point x="483" y="554"/>
      <point x="536" y="554" type="curve" smooth="yes"/>
      <point x="580" y="554"/>
      <point x="601" y="534"/>
      <point x="601" y="504" type="curve" smooth="yes"/>
      <point x="601" y="468"/>
      <point x="570" y="423"/>
      <point x="530" y="401" type="curve"/>
      <point x="559" y="397" type="line"/>
      <point x="542" y="413"/>
      <point x="524" y="422"/>
      <point x="499" y="422" type="curve" smooth="yes"/>
      <point x="451" y="422"/>
      <point x="413" y="388"/>
      <point x="413" y="343" type="curve" smooth="yes"/>
      <point x="413" y="300"/>
      <point x="448" y="277"/>
    </contour>
  </outline>
</glyph>
<glyph name="bAu" format="2">
  <advance width="737"/>
  <unicode hex="0994"/>
  <outline>
    <contour>
      <point x="588" y="332" type="line"/>
      <point x="648" y="381"/>
      <point x="742" y="479"/>
      <point x="742" y="593" type="curve" smooth="yes"/>
      <point x="742" y="739"/>
      <point x="591" y="762"/>
      <point x="475" y="783" type="curve" smooth="yes"/>
      <point x="394" y="798"/>
      <point x="349" y="812"/>
      <point x="349" y="852" type="curve" smooth="yes"/>
      <point x="349" y="873"/>
      <point x="362" y="895"/>
      <point x="392" y="914" type="curve"/>
      <point x="377" y="940" type="line"/>
      <point x="369" y="940" type="line"/>
      <point x="322" y="910"/>
      <point x="301" y="872"/>
      <point x="301" y="832" type="curve" smooth="yes"/>
      <point x="301" y="728"/>
      <point x="443" y="706"/>
      <point x="496" y="697" type="curve" smooth="yes"/>
      <point x="614" y="677"/>
      <point x="696" y="651"/>
      <point x="696" y="577" type="curve" smooth="yes"/>
      <point x="696" y="542"/>
      <point x="677" y="492"/>
      <point x="628" y="444" type="curve"/>
      <point x="611" y="452" type="line"/>
    </contour>
    <contour>
      <point x="422" y="42" type="curve" smooth="yes"/>
      <point x="549" y="42"/>
      <point x="626" y="126"/>
      <point x="626" y="223" type="curve" smooth="yes"/>
      <point x="626" y="268"/>
      <point x="609" y="311"/>
      <point x="574" y="344" type="curve"/>
      <point x="540" y="309" type="line"/>
      <point x="564" y="296"/>
      <point x="577" y="279"/>
      <point x="577" y="252" type="curve" smooth="yes"/>
      <point x="577" y="190"/>
      <point x="510" y="139"/>
      <point x="415" y="139" type="curve" smooth="yes"/>
      <point x="286" y="139"/>
      <point x="146" y="233"/>
      <point x="111" y="515" type="curve"/>
      <point x="83" y="524" type="line"/>
      <point x="73" y="524" type="line"/>
      <point x="94" y="172"/>
      <point x="265" y="42"/>
    </contour>
    <contour>
      <point x="485" y="277" type="curve" smooth="yes"/>
      <point x="513" y="277"/>
      <point x="543" y="290"/>
      <point x="563" y="309" type="curve"/>
      <point x="588" y="332" type="line"/>
      <point x="622" y="438" type="line"/>
      <point x="636" y="460"/>
      <point x="643" y="476"/>
      <point x="643" y="498" type="curve" smooth="yes"/>
      <point x="643" y="558"/>
      <point x="594" y="608"/>
      <point x="490" y="608" type="curve" smooth="yes"/>
      <point x="345" y="608"/>
      <point x="210" y="512"/>
      <point x="210" y="414" type="curve" smooth="yes"/>
      <point x="210" y="365"/>
      <point x="244" y="335"/>
      <point x="288" y="335" type="curve" smooth="yes"/>
      <point x="337" y="335"/>
      <point x="376" y="371"/>
      <point x="376" y="415" type="curve" smooth="yes"/>
      <point x="376" y="442"/>
      <point x="361" y="473"/>
      <point x="324" y="475" type="curve"/>
      <point x="334" y="448" type="line"/>
      <point x="397" y="524"/>
      <point x="483" y="554"/>
      <point x="536" y="554" type="curve" smooth="yes"/>
      <point x="580" y="554"/>
      <point x="601" y="534"/>
      <point x="601" y="504" type="curve" smooth="yes"/>
      <point x="601" y="468"/>
      <point x="570" y="423"/>
      <point x="530" y="401" type="curve"/>
      <point x="559" y="397" type="line"/>
      <point x="542" y="413"/>
      <point x="524" y="422"/>
      <point x="499" y="422" type="curve" smooth="yes"/>
      <point x="451" y="422"/>
      <point x="413" y="387"/>
      <point x="413" y="342" type="curve" smooth="yes"/>
      <point x="413" y="300"/>
      <point x="448" y="277"/>
    </contour>
  </outline>
</glyph>
<glyph name="bKa" format="2">
  <advance width="725"/>
  <unicode hex="0995"/>
  <outline>
    <contour>
      <point x="366" y="121" type="line"/>
      <point x="347" y="121" type="line"/>
      <point x="289" y="225"/>
      <point x="218" y="274"/>
      <point x="148" y="305" type="curve"/>
      <point x="148" y="308" type="line"/>
      <point x="229" y="354"/>
      <point x="335" y="401"/>
      <point x="413" y="421" type="curve"/>
      <point x="456" y="426" type="line"/>
      <point x="579" y="426"/>
      <point x="643" y="356"/>
      <point x="643" y="298" type="curve" smooth="yes"/>
      <point x="643" y="275"/>
      <point x="633" y="252"/>
      <point x="617" y="238" type="curve"/>
      <point x="630" y="221" type="line"/>
      <point x="627" y="259"/>
      <point x="603" y="286"/>
      <point x="564" y="286" type="curve" smooth="yes"/>
      <point x="522" y="286"/>
      <point x="483" y="255"/>
      <point x="483" y="211" type="curve" smooth="yes"/>
      <point x="483" y="172"/>
      <point x="514" y="149"/>
      <point x="553" y="149" type="curve" smooth="yes"/>
      <point x="610" y="149"/>
      <point x="681" y="200"/>
      <point x="681" y="302" type="curve" smooth="yes"/>
      <point x="681" y="422"/>
      <point x="583" y="506"/>
      <point x="469" y="506" type="curve"/>
      <point x="429" y="507" type="line"/>
      <point x="311" y="484"/>
      <point x="229" y="447"/>
      <point x="22" y="336" type="curve"/>
      <point x="81" y="239" type="line"/>
      <point x="250" y="212"/>
      <point x="344" y="98"/>
      <point x="357" y="-16" type="curve"/>
    </contour>
    <contour>
      <point x="393" y="-33" type="line"/>
      <point x="409" y="73"/>
      <point x="416" y="111"/>
      <point x="435" y="208" type="curve" smooth="yes"/>
      <point x="505" y="568" type="line"/>
      <point x="427" y="568" type="line"/>
      <point x="402" y="441" type="line" smooth="yes"/>
      <point x="367" y="262"/>
      <point x="348" y="157"/>
      <point x="350" y="115" type="curve"/>
      <point x="357" y="-16" type="line"/>
      <point x="382" y="-33" type="line"/>
    </contour>
    <contour>
      <point x="793" y="552" type="line"/>
      <point x="795" y="560" type="line"/>
      <point x="747" y="620" type="line"/>
      <point x="22" y="620" type="line"/>
      <point x="20" y="612" type="line"/>
      <point x="68" y="552" type="line"/>
    </contour>
  </outline>
</glyph>
<glyph name="bGa" format="2">
  <advance width="585"/>
  <unicode hex="0997"/>
  <outline>
    <contour>
      <point x="194" y="113" type="line"/>
      <point x="311" y="197"/>
      <point x="355" y="279"/>
      <point x="355" y="340" type="curve" smooth="yes"/>
      <point x="355" y="400"/>
      <point x="313" y="449"/>
      <point x="243" y="449" type="curve" smooth="yes"/>
      <point x="215" y="449"/>
      <point x="175" y="441"/>
      <point x="140" y="427" type="curve"/>
      <point x="161" y="419" type="line"/>
      <point x="164" y="470"/>
      <point x="231" y="544"/>
      <point x="321" y="544" type="curve" smooth="yes"/>
      <point x="459" y="544"/>
      <point x="454" y="367"/>
      <point x="444" y="305" type="curve"/>
      <point x="505" y="456" type="line"/>
      <point x="475" y="452" type="line"/>
      <point x="455" y="526"/>
      <point x="402" y="620"/>
      <point x="285" y="620" type="curve" smooth="yes"/>
      <point x="161" y="620"/>
      <point x="49" y="516"/>
      <point x="49" y="409" type="curve" smooth="yes"/>
      <point x="49" y="359"/>
      <point x="74" y="336"/>
      <point x="100" y="336" type="curve" smooth="yes"/>
      <point x="109" y="336"/>
      <point x="120" y="339"/>
      <point x="132" y="346" type="curve" smooth="yes"/>
      <point x="193" y="380"/>
      <point x="230" y="400"/>
      <point x="264" y="400" type="curve" smooth="yes"/>
      <point x="288" y="400"/>
      <point x="295" y="389"/>
      <point x="295" y="375" type="curve" smooth="yes"/>
      <point x="295" y="343"/>
      <point x="257" y="287"/>
      <point x="132" y="207" type="curve"/>
    </contour>
    <contour>
      <point x="454" y="-43" type="line"/>
      <point x="562" y="552" type="line"/>
      <point x="653" y="552" type="line"/>
      <point x="654" y="560" type="line"/>
      <point x="606" y="620" type="line"/>
      <point x="506" y="620" type="line"/>
      <point x="504" y="608" type="line" smooth="yes"/>
      <point x="493" y="544"/>
      <point x="482" y="495"/>
      <point x="478" y="437" type="curve"/>
      <point x="444" y="305" type="line"/>
      <point x="437" y="272"/>
      <point x="401" y="88"/>
      <point x="385" y="10" type="curve"/>
      <point x="443" y="-43" type="line"/>
    </contour>
  </outline>
</glyph>
<glyph name="bNga" format="2">
  <advance width="640"/>
  <unicode hex="0999"/>
  <outline>
    <contour>
      <point x="349" y="-10" type="curve" smooth="yes"/>
      <point x="486" y="-10"/>
      <point x="583" y="95"/>
      <point x="583" y="226" type="curve" smooth="yes"/>
      <point x="583" y="290"/>
      <point x="560" y="354"/>
      <point x="504" y="391" type="curve"/>
      <point x="499" y="390" type="line"/>
      <point x="437" y="320"/>
      <point x="353" y="259"/>
      <point x="321" y="259" type="curve" smooth="yes"/>
      <point x="308" y="259"/>
      <point x="303" y="269"/>
      <point x="308" y="294" type="curve" smooth="yes"/>
      <point x="331" y="411" type="line" smooth="yes"/>
      <point x="333" y="421"/>
      <point x="335" y="431"/>
      <point x="340" y="448" type="curve" smooth="yes"/>
      <point x="346" y="469"/>
      <point x="375" y="559"/>
      <point x="460" y="559" type="curve" smooth="yes"/>
      <point x="494" y="559"/>
      <point x="508" y="544"/>
      <point x="508" y="526" type="curve" smooth="yes"/>
      <point x="508" y="500"/>
      <point x="476" y="469"/>
      <point x="407" y="469" type="curve" smooth="yes"/>
      <point x="352" y="469"/>
      <point x="262" y="489"/>
      <point x="133" y="615" type="curve"/>
      <point x="121" y="615" type="line"/>
      <point x="123" y="560" type="line"/>
      <point x="261" y="428"/>
      <point x="368" y="412"/>
      <point x="418" y="412" type="curve" smooth="yes"/>
      <point x="513" y="412"/>
      <point x="556" y="469"/>
      <point x="556" y="519" type="curve" smooth="yes"/>
      <point x="556" y="567"/>
      <point x="516" y="620"/>
      <point x="440" y="620" type="curve" smooth="yes"/>
      <point x="355" y="620"/>
      <point x="281" y="554"/>
      <point x="258" y="434" type="curve" smooth="yes"/>
      <point x="236" y="320" type="line" smooth="yes"/>
      <point x="224" y="257"/>
      <point x="296" y="183"/>
      <point x="345" y="183" type="curve" smooth="yes"/>
      <point x="385" y="183"/>
      <point x="465" y="233"/>
      <point x="533" y="308" type="curve"/>
      <point x="493" y="312" type="line"/>
      <point x="522" y="296"/>
      <point x="536" y="274"/>
      <point x="536" y="242" type="curve" smooth="yes"/>
      <point x="536" y="166"/>
      <point x="457" y="85"/>
      <point x="343" y="85" type="curve" smooth="yes"/>
      <point x="211" y="85"/>
      <point x="124" y="195"/>
      <point x="120" y="459" type="curve"/>
      <point x="92" y="468" type="line"/>
      <point x="82" y="468" type="line"/>
      <point x="81" y="448"/>
      <point x="81" y="429"/>
      <point x="81" y="411" type="curve" smooth="yes"/>
      <point x="81" y="85"/>
      <point x="219" y="-10"/>
    </contour>
  </outline>
  <guideline angle="90" x="40" y="0"/>
</glyph>
<glyph name="bCa" format="2">
  <advance width="512"/>
  <unicode hex="099A"/>
  <outline>
    <contour>
      <point x="183" y="0" type="curve" smooth="yes"/>
      <point x="256" y="0"/>
      <point x="480" y="155"/>
      <point x="480" y="312" type="curve" smooth="yes"/>
      <point x="480" y="365"/>
      <point x="417" y="399"/>
      <point x="410" y="401" type="curve" smooth="yes"/>
      <point x="326" y="425"/>
      <point x="222" y="418"/>
      <point x="222" y="574" type="curve"/>
      <point x="189" y="464" type="line"/>
      <point x="208" y="470" type="line"/>
      <point x="230" y="357"/>
      <point x="298" y="336"/>
      <point x="382" y="317" type="curve"/>
      <point x="384" y="313"/>
      <point x="385" y="307"/>
      <point x="385" y="301" type="curve" smooth="yes"/>
      <point x="385" y="214"/>
      <point x="221" y="84"/>
      <point x="161" y="84" type="curve" smooth="yes"/>
      <point x="144" y="84"/>
      <point x="138" y="94"/>
      <point x="138" y="112" type="curve" smooth="yes"/>
      <point x="138" y="120"/>
      <point x="139" y="129"/>
      <point x="141" y="139" type="curve" smooth="yes"/>
      <point x="226" y="574" type="line"/>
      <point x="146" y="568" type="line"/>
      <point x="68" y="165" type="line" smooth="yes"/>
      <point x="67" y="159"/>
      <point x="66" y="153"/>
      <point x="66" y="146" type="curve" smooth="yes"/>
      <point x="66" y="80"/>
      <point x="130" y="0"/>
    </contour>
    <contour>
      <point x="580" y="552" type="line"/>
      <point x="582" y="560" type="line"/>
      <point x="534" y="620" type="line"/>
      <point x="22" y="620" type="line"/>
      <point x="20" y="612" type="line"/>
      <point x="68" y="552" type="line"/>
    </contour>
  </outline>
</glyph>
<glyph name="bCha" format="2">
  <advance width="593"/>
  <unicode hex="099B"/>
  <outline>
    <contour>
      <point x="307" y="103" type="line"/>
      <point x="419" y="121"/>
      <point x="551" y="200"/>
      <point x="551" y="319" type="curve" smooth="yes"/>
      <point x="551" y="429"/>
      <point x="440" y="474"/>
      <point x="392" y="474" type="curve" smooth="yes"/>
      <point x="374" y="474"/>
      <point x="346" y="469"/>
      <point x="322" y="469" type="curve" smooth="yes"/>
      <point x="280" y="469"/>
      <point x="204" y="477"/>
      <point x="200" y="562" type="curve"/>
      <point x="166" y="480" type="line"/>
      <point x="192" y="488" type="line"/>
      <point x="209" y="423"/>
      <point x="265" y="402"/>
      <point x="312" y="400" type="curve"/>
      <point x="372" y="391" type="line"/>
      <point x="388" y="402"/>
      <point x="415" y="407"/>
      <point x="434" y="407" type="curve" smooth="yes"/>
      <point x="469" y="407"/>
      <point x="495" y="385"/>
      <point x="495" y="350" type="curve" smooth="yes"/>
      <point x="495" y="262"/>
      <point x="337" y="163"/>
      <point x="173" y="163" type="curve" smooth="yes"/>
      <point x="141" y="163"/>
      <point x="114" y="167"/>
      <point x="84" y="174" type="curve"/>
      <point x="78" y="169" type="line"/>
      <point x="113" y="70" type="line"/>
    </contour>
    <contour>
      <point x="574" y="-130" type="line"/>
      <point x="569" y="-84" type="line"/>
      <point x="527" y="-29"/>
      <point x="423" y="61"/>
      <point x="314" y="101" type="curve"/>
      <point x="316" y="122" type="line"/>
      <point x="113" y="70" type="line"/>
      <point x="293" y="60"/>
      <point x="428" y="-3"/>
      <point x="567" y="-130" type="curve"/>
    </contour>
    <contour>
      <point x="195" y="219" type="curve" smooth="yes"/>
      <point x="272" y="219"/>
      <point x="384" y="310"/>
      <point x="389" y="406" type="curve"/>
      <point x="292" y="412" type="line"/>
      <point x="299" y="409"/>
      <point x="303" y="401"/>
      <point x="303" y="394" type="curve" smooth="yes"/>
      <point x="303" y="338"/>
      <point x="199" y="277"/>
      <point x="166" y="277" type="curve" smooth="yes"/>
      <point x="153" y="277"/>
      <point x="150" y="286"/>
      <point x="154" y="306" type="curve" smooth="yes"/>
      <point x="205" y="569" type="line"/>
      <point x="126" y="569" type="line"/>
      <point x="79" y="325" type="line" smooth="yes"/>
      <point x="70" y="277"/>
      <point x="131" y="219"/>
    </contour>
    <contour>
      <point x="661" y="552" type="line"/>
      <point x="663" y="560" type="line"/>
      <point x="615" y="620" type="line"/>
      <point x="22" y="620" type="line"/>
      <point x="20" y="612" type="line"/>
      <point x="68" y="552" type="line"/>
    </contour>
  </outline>
  <guideline angle="0" x="0" y="219"/>
</glyph>
<glyph name="bJha" format="2">
  <advance width="679"/>
  <unicode hex="099D"/>
  <outline>
    <contour>
      <point x="382" y="-33" type="line"/>
      <point x="398" y="73"/>
      <point x="410" y="135"/>
      <point x="426" y="216" type="curve" smooth="yes"/>
      <point x="505" y="620" type="line"/>
      <point x="22" y="620" type="line"/>
      <point x="20" y="612" type="line"/>
      <point x="68" y="552" type="line"/>
      <point x="413" y="552" type="line"/>
      <point x="393" y="447" type="line" smooth="yes"/>
      <point x="358" y="263"/>
      <point x="337" y="161"/>
      <point x="341" y="117" type="curve"/>
      <point x="346" y="-16" type="line"/>
      <point x="371" y="-33" type="line"/>
    </contour>
    <contour>
      <point x="355" y="133" type="line"/>
      <point x="337" y="122" type="line"/>
      <point x="282" y="226"/>
      <point x="215" y="274"/>
      <point x="148" y="305" type="curve"/>
      <point x="148" y="308" type="line"/>
      <point x="237" y="357"/>
      <point x="309" y="389"/>
      <point x="403" y="426" type="curve"/>
      <point x="422" y="522" type="line"/>
      <point x="287" y="472"/>
      <point x="207" y="435"/>
      <point x="22" y="336" type="curve"/>
      <point x="81" y="237" type="line"/>
      <point x="245" y="211"/>
      <point x="335" y="98"/>
      <point x="346" y="-16" type="curve"/>
    </contour>
    <contour>
      <point x="534" y="180" type="line"/>
      <point x="516" y="169" type="line"/>
      <point x="493" y="218"/>
      <point x="466" y="258"/>
      <point x="421" y="284" type="curve"/>
      <point x="406" y="211" type="line"/>
      <point x="498" y="182"/>
      <point x="517" y="89"/>
      <point x="525" y="14" type="curve"/>
    </contour>
    <contour>
      <point x="559" y="-3" type="line"/>
      <point x="575" y="98"/>
      <point x="586" y="162"/>
      <point x="601" y="238" type="curve" smooth="yes"/>
      <point x="662" y="552" type="line"/>
      <point x="747" y="552" type="line"/>
      <point x="749" y="560" type="line"/>
      <point x="701" y="620" type="line"/>
      <point x="599" y="620" type="line"/>
      <point x="563" y="435" type="line" smooth="yes"/>
      <point x="533" y="280"/>
      <point x="519" y="212"/>
      <point x="520" y="162" type="curve"/>
      <point x="525" y="14" type="line"/>
      <point x="548" y="-3" type="line"/>
    </contour>
  </outline>
</glyph>
<glyph name="bNya" format="2">
  <advance width="958"/>
  <unicode hex="099E"/>
  <outline>
    <contour>
      <point x="533" y="-36" type="line"/>
      <point x="547" y="53"/>
      <point x="565" y="149"/>
      <point x="571" y="179" type="curve" smooth="yes"/>
      <point x="589" y="273" type="line"/>
      <point x="627" y="465"/>
      <point x="636" y="488"/>
      <point x="636" y="509" type="curve" smooth="yes"/>
      <point x="636" y="566"/>
      <point x="567" y="620"/>
      <point x="514" y="620" type="curve" smooth="yes"/>
      <point x="438" y="620"/>
      <point x="235" y="495"/>
      <point x="235" y="357" type="curve" smooth="yes"/>
      <point x="235" y="295"/>
      <point x="278" y="257"/>
      <point x="336" y="257" type="curve" smooth="yes"/>
      <point x="401" y="257"/>
      <point x="442" y="304"/>
      <point x="442" y="349" type="curve" smooth="yes"/>
      <point x="442" y="387"/>
      <point x="414" y="414"/>
      <point x="377" y="414" type="curve" smooth="yes"/>
      <point x="363" y="414"/>
      <point x="345" y="410"/>
      <point x="333" y="393" type="curve"/>
      <point x="385" y="396" type="line"/>
      <point x="353" y="412" type="line"/>
      <point x="392" y="481"/>
      <point x="513" y="554"/>
      <point x="547" y="554" type="curve" smooth="yes"/>
      <point x="556" y="554"/>
      <point x="561" y="549"/>
      <point x="561" y="532" type="curve" smooth="yes"/>
      <point x="561" y="496"/>
      <point x="537" y="418"/>
      <point x="523" y="344" type="curve" smooth="yes"/>
      <point x="485" y="149"/>
      <point x="489" y="110"/>
      <point x="486" y="77" type="curve"/>
      <point x="498" y="-19" type="line"/>
      <point x="522" y="-36" type="line"/>
    </contour>
    <contour>
      <point x="503" y="106" type="line"/>
      <point x="485" y="98" type="line"/>
      <point x="441" y="157"/>
      <point x="387" y="168"/>
      <point x="329" y="168" type="curve" smooth="yes"/>
      <point x="286" y="168"/>
      <point x="243" y="162"/>
      <point x="207" y="162" type="curve" smooth="yes"/>
      <point x="116" y="162"/>
      <point x="86" y="201"/>
      <point x="86" y="263" type="curve" smooth="yes"/>
      <point x="86" y="306"/>
      <point x="101" y="355"/>
      <point x="138" y="407" type="curve"/>
      <point x="118" y="422" type="line"/>
      <point x="109" y="422" type="line"/>
      <point x="66" y="368"/>
      <point x="35" y="302"/>
      <point x="35" y="237" type="curve" smooth="yes"/>
      <point x="35" y="138"/>
      <point x="107" y="75"/>
      <point x="217" y="75" type="curve" smooth="yes"/>
      <point x="265" y="75"/>
      <point x="323" y="87"/>
      <point x="391" y="87" type="curve" smooth="yes"/>
      <point x="466" y="87"/>
      <point x="487" y="72"/>
      <point x="498" y="-19" type="curve"/>
    </contour>
    <contour>
      <point x="759" y="182" type="curve" smooth="yes"/>
      <point x="668" y="182"/>
      <point x="602" y="276"/>
      <point x="602" y="328" type="curve" smooth="yes"/>
      <point x="602" y="405"/>
      <point x="744" y="514"/>
      <point x="839" y="514" type="curve" smooth="yes"/>
      <point x="881" y="514"/>
      <point x="903" y="492"/>
      <point x="903" y="464" type="curve" smooth="yes"/>
      <point x="903" y="424"/>
      <point x="858" y="395"/>
      <point x="824" y="390" type="curve"/>
      <point x="817" y="318" type="line"/>
      <point x="843" y="306"/>
      <point x="857" y="284"/>
      <point x="857" y="263" type="curve" smooth="yes"/>
      <point x="857" y="223"/>
      <point x="819" y="182"/>
    </contour>
    <contour>
      <point x="768" y="100" type="curve" smooth="yes"/>
      <point x="851" y="100"/>
      <point x="903" y="163"/>
      <point x="903" y="234" type="curve" smooth="yes"/>
      <point x="903" y="285"/>
      <point x="876" y="331"/>
      <point x="853" y="363" type="curve"/>
      <point x="838" y="392"/>
      <point x="805" y="414"/>
      <point x="768" y="414" type="curve" smooth="yes"/>
      <point x="724" y="414"/>
      <point x="690" y="381"/>
      <point x="690" y="343" type="curve" smooth="yes"/>
      <point x="690" y="309"/>
      <point x="718" y="279"/>
      <point x="760" y="279" type="curve" smooth="yes"/>
      <point x="839" y="279"/>
      <point x="950" y="388"/>
      <point x="950" y="482" type="curve" smooth="yes"/>
      <point x="950" y="545"/>
      <point x="901" y="593"/>
      <point x="836" y="593" type="curve" smooth="yes"/>
      <point x="772" y="593"/>
      <point x="689" y="546"/>
      <point x="625" y="436" type="curve"/>
      <point x="607" y="442" type="line"/>
      <point x="571" y="257" type="line"/>
      <point x="590" y="257" type="line"/>
      <point x="617" y="160"/>
      <point x="687" y="100"/>
    </contour>
  </outline>
</glyph>
<glyph name="bTta" format="2">
  <advance width="509"/>
  <unicode hex="099F"/>
  <outline>
    <contour>
      <point x="192" y="22" type="curve" smooth="yes"/>
      <point x="272" y="22"/>
      <point x="483" y="195"/>
      <point x="483" y="343" type="curve" smooth="yes"/>
      <point x="483" y="410"/>
      <point x="440" y="453"/>
      <point x="383" y="453" type="curve" smooth="yes"/>
      <point x="323" y="453"/>
      <point x="285" y="405"/>
      <point x="285" y="360" type="curve" smooth="yes"/>
      <point x="285" y="320"/>
      <point x="316" y="291"/>
      <point x="357" y="291" type="curve" smooth="yes"/>
      <point x="382" y="291"/>
      <point x="399" y="302"/>
      <point x="411" y="317" type="curve"/>
      <point x="386" y="319" type="line"/>
      <point x="365" y="210"/>
      <point x="215" y="106"/>
      <point x="166" y="106" type="curve" smooth="yes"/>
      <point x="150" y="106"/>
      <point x="143" y="116"/>
      <point x="143" y="136" type="curve" smooth="yes"/>
      <point x="143" y="143"/>
      <point x="144" y="151"/>
      <point x="146" y="161" type="curve" smooth="yes"/>
      <point x="225" y="568" type="line"/>
      <point x="147" y="568" type="line"/>
      <point x="73" y="187" type="line" smooth="yes"/>
      <point x="72" y="181"/>
      <point x="71" y="176"/>
      <point x="71" y="170" type="curve" smooth="yes"/>
      <point x="71" y="104"/>
      <point x="137" y="22"/>
    </contour>
    <contour>
      <point x="577" y="552" type="line"/>
      <point x="579" y="560" type="line"/>
      <point x="531" y="620" type="line"/>
      <point x="22" y="620" type="line"/>
      <point x="20" y="612" type="line"/>
      <point x="68" y="552" type="line"/>
    </contour>
    <contour>
      <point x="504" y="605" type="line"/>
      <point x="507" y="620"/>
      <point x="508" y="635"/>
      <point x="508" y="646" type="curve" smooth="yes"/>
      <point x="508" y="720"/>
      <point x="464" y="785"/>
      <point x="347" y="785" type="curve" smooth="yes"/>
      <point x="303" y="785"/>
      <point x="259" y="776"/>
      <point x="206" y="776" type="curve" smooth="yes"/>
      <point x="140" y="776"/>
      <point x="119" y="790"/>
      <point x="119" y="820" type="curve" smooth="yes"/>
      <point x="119" y="835"/>
      <point x="124" y="852"/>
      <point x="147" y="876" type="curve"/>
      <point x="127" y="896" type="line"/>
      <point x="119" y="896" type="line"/>
      <point x="88" y="867"/>
      <point x="75" y="833"/>
      <point x="75" y="804" type="curve" smooth="yes"/>
      <point x="75" y="745"/>
      <point x="128" y="694"/>
      <point x="237" y="694" type="curve" smooth="yes"/>
      <point x="285" y="694"/>
      <point x="342" y="704"/>
      <point x="387" y="704" type="curve" smooth="yes"/>
      <point x="435" y="704"/>
      <point x="465" y="693"/>
      <point x="465" y="663" type="curve" smooth="yes"/>
      <point x="465" y="644"/>
      <point x="454" y="624"/>
      <point x="426" y="605" type="curve"/>
    </contour>
  </outline>
  <guideline angle="135" x="885" y="0"/>
</glyph>
<glyph name="bTtha" format="2">
  <advance width="516"/>
  <unicode hex="09A0"/>
  <outline>
    <contour>
      <point x="213" y="4" type="curve" smooth="yes"/>
      <point x="360" y="4"/>
      <point x="463" y="132"/>
      <point x="463" y="288" type="curve" smooth="yes"/>
      <point x="463" y="402"/>
      <point x="411" y="511"/>
      <point x="372" y="584" type="curve" smooth="yes"/>
      <point x="330" y="661"/>
      <point x="296" y="739"/>
      <point x="296" y="795" type="curve" smooth="yes"/>
      <point x="296" y="847"/>
      <point x="325" y="875"/>
      <point x="367" y="875" type="curve" smooth="yes"/>
      <point x="375" y="875"/>
      <point x="384" y="874"/>
      <point x="393" y="871" type="curve"/>
      <point x="401" y="877" type="line"/>
      <point x="393" y="917"/>
      <point x="363" y="936"/>
      <point x="328" y="936" type="curve" smooth="yes"/>
      <point x="279" y="936"/>
      <point x="237" y="899"/>
      <point x="237" y="829" type="curve" smooth="yes"/>
      <point x="237" y="745"/>
      <point x="298" y="645"/>
      <point x="316" y="589" type="curve"/>
      <point x="358" y="524" type="line"/>
      <point x="382" y="478"/>
      <point x="399" y="405"/>
      <point x="399" y="329" type="curve" smooth="yes"/>
      <point x="399" y="138"/>
      <point x="270" y="66"/>
      <point x="192" y="66" type="curve" smooth="yes"/>
      <point x="134" y="66"/>
      <point x="103" y="97"/>
      <point x="103" y="140" type="curve" smooth="yes"/>
      <point x="103" y="155"/>
      <point x="106" y="167"/>
      <point x="110" y="175" type="curve"/>
      <point x="254" y="217"/>
      <point x="361" y="320"/>
      <point x="361" y="482" type="curve" smooth="yes"/>
      <point x="361" y="489"/>
      <point x="361" y="505"/>
      <point x="361" y="512" type="curve"/>
      <point x="380" y="518" type="line"/>
      <point x="316" y="589" type="line"/>
      <point x="319" y="576"/>
      <point x="320" y="561"/>
      <point x="320" y="547" type="curve" smooth="yes"/>
      <point x="320" y="410"/>
      <point x="206" y="293"/>
      <point x="65" y="257" type="curve"/>
      <point x="50" y="228"/>
      <point x="42" y="194"/>
      <point x="42" y="166" type="curve" smooth="yes"/>
      <point x="42" y="84"/>
      <point x="103" y="4"/>
    </contour>
    <contour>
      <point x="584" y="552" type="line"/>
      <point x="586" y="560" type="line"/>
      <point x="538" y="620" type="line"/>
      <point x="22" y="620" type="line"/>
      <point x="20" y="612" type="line"/>
      <point x="68" y="552" type="line"/>
    </contour>
  </outline>
  <guideline angle="134.997" x="1134" y="0"/>
</glyph>
<glyph name="bDdha" format="2">
  <advance width="509"/>
  <unicode hex="09A2"/>
  <outline>
    <contour>
      <point x="191" y="22" type="curve" smooth="yes"/>
      <point x="271" y="22"/>
      <point x="482" y="194"/>
      <point x="482" y="343" type="curve" smooth="yes"/>
      <point x="482" y="410"/>
      <point x="439" y="453"/>
      <point x="382" y="453" type="curve" smooth="yes"/>
      <point x="322" y="453"/>
      <point x="284" y="405"/>
      <point x="284" y="360" type="curve" smooth="yes"/>
      <point x="284" y="320"/>
      <point x="315" y="291"/>
      <point x="356" y="291" type="curve" smooth="yes"/>
      <point x="381" y="291"/>
      <point x="398" y="302"/>
      <point x="410" y="317" type="curve"/>
      <point x="385" y="319" type="line"/>
      <point x="364" y="210"/>
      <point x="214" y="106"/>
      <point x="165" y="106" type="curve" smooth="yes"/>
      <point x="149" y="106"/>
      <point x="142" y="116"/>
      <point x="142" y="136" type="curve" smooth="yes"/>
      <point x="142" y="143"/>
      <point x="143" y="151"/>
      <point x="145" y="161" type="curve" smooth="yes"/>
      <point x="224" y="568" type="line"/>
      <point x="146" y="568" type="line"/>
      <point x="72" y="187" type="line" smooth="yes"/>
      <point x="71" y="181"/>
      <point x="70" y="176"/>
      <point x="70" y="170" type="curve" smooth="yes"/>
      <point x="70" y="104"/>
      <point x="136" y="22"/>
    </contour>
    <contour>
      <point x="577" y="552" type="line"/>
      <point x="579" y="560" type="line"/>
      <point x="531" y="620" type="line"/>
      <point x="22" y="620" type="line"/>
      <point x="20" y="612" type="line"/>
      <point x="68" y="552" type="line"/>
    </contour>
  </outline>
</glyph>
<glyph name="bNna" format="2">
  <advance width="563"/>
  <unicode hex="09A3"/>
  <outline>
    <contour>
      <point x="219" y="245" type="curve" smooth="yes"/>
      <point x="282" y="245"/>
      <point x="333" y="285"/>
      <point x="333" y="340" type="curve" smooth="yes"/>
      <point x="333" y="384"/>
      <point x="301" y="413"/>
      <point x="260" y="413" type="curve" smooth="yes"/>
      <point x="218" y="413"/>
      <point x="187" y="383"/>
      <point x="187" y="344" type="curve" smooth="yes"/>
      <point x="187" y="320"/>
      <point x="199" y="297"/>
      <point x="222" y="285" type="curve"/>
      <point x="221" y="329" type="line"/>
      <point x="203" y="297" type="line"/>
      <point x="161" y="301"/>
      <point x="144" y="345"/>
      <point x="144" y="386" type="curve" smooth="yes"/>
      <point x="144" y="465"/>
      <point x="205" y="539"/>
      <point x="298" y="539" type="curve" smooth="yes"/>
      <point x="381" y="539"/>
      <point x="428" y="481"/>
      <point x="428" y="376" type="curve" smooth="yes"/>
      <point x="428" y="349"/>
      <point x="425" y="316"/>
      <point x="418" y="283" type="curve"/>
      <point x="478" y="452" type="line"/>
      <point x="455" y="442" type="line"/>
      <point x="435" y="560"/>
      <point x="369" y="620"/>
      <point x="278" y="620" type="curve" smooth="yes"/>
      <point x="168" y="620"/>
      <point x="70" y="533"/>
      <point x="70" y="412" type="curve" smooth="yes"/>
      <point x="70" y="311"/>
      <point x="138" y="245"/>
    </contour>
    <contour>
      <point x="432" y="-43" type="line"/>
      <point x="548" y="552" type="line"/>
      <point x="631" y="552" type="line"/>
      <point x="632" y="560" type="line"/>
      <point x="584" y="620" type="line"/>
      <point x="484" y="620" type="line"/>
      <point x="481" y="607" type="line" smooth="yes"/>
      <point x="461" y="519"/>
      <point x="457" y="476"/>
      <point x="457" y="431" type="curve"/>
      <point x="418" y="283" type="line"/>
      <point x="409" y="240"/>
      <point x="379" y="88"/>
      <point x="363" y="10" type="curve"/>
      <point x="421" y="-43" type="line"/>
    </contour>
  </outline>
</glyph>
<glyph name="bTa" format="2">
  <advance width="673"/>
  <unicode hex="09A4"/>
  <outline>
    <contour>
      <point x="378" y="42" type="curve" smooth="yes"/>
      <point x="522" y="42"/>
      <point x="629" y="152"/>
      <point x="629" y="297" type="curve" smooth="yes"/>
      <point x="629" y="419"/>
      <point x="553" y="500"/>
      <point x="441" y="500" type="curve" smooth="yes"/>
      <point x="341" y="500"/>
      <point x="272" y="435"/>
      <point x="272" y="360" type="curve" smooth="yes"/>
      <point x="272" y="303"/>
      <point x="311" y="266"/>
      <point x="363" y="266" type="curve" smooth="yes"/>
      <point x="421" y="266"/>
      <point x="467" y="312"/>
      <point x="467" y="367" type="curve" smooth="yes"/>
      <point x="467" y="393"/>
      <point x="457" y="424"/>
      <point x="430" y="434" type="curve"/>
      <point x="425" y="408" type="line"/>
      <point x="436" y="419"/>
      <point x="452" y="426"/>
      <point x="476" y="426" type="curve" smooth="yes"/>
      <point x="536" y="426"/>
      <point x="576" y="381"/>
      <point x="576" y="315" type="curve" smooth="yes"/>
      <point x="576" y="219"/>
      <point x="492" y="137"/>
      <point x="372" y="137" type="curve" smooth="yes"/>
      <point x="260" y="137"/>
      <point x="145" y="208"/>
      <point x="110" y="500" type="curve"/>
      <point x="82" y="509" type="line"/>
      <point x="72" y="509" type="line"/>
      <point x="95" y="168"/>
      <point x="223" y="42"/>
    </contour>
    <contour>
      <point x="741" y="552" type="line"/>
      <point x="743" y="560" type="line"/>
      <point x="695" y="620" type="line"/>
      <point x="22" y="620" type="line"/>
      <point x="20" y="612" type="line"/>
      <point x="68" y="552" type="line"/>
    </contour>
  </outline>
</glyph>
<glyph name="bDa" format="2">
  <advance width="549"/>
  <unicode hex="09A6"/>
  <outline>
    <contour>
      <point x="370" y="-35" type="line"/>
      <point x="370" y="-15" type="line" smooth="yes"/>
      <point x="370" y="167"/>
      <point x="421" y="299"/>
      <point x="536" y="398" type="curve"/>
      <point x="537" y="404" type="line"/>
      <point x="437" y="494" type="line"/>
      <point x="341" y="439"/>
      <point x="237" y="360"/>
      <point x="172" y="298" type="curve"/>
      <point x="170" y="299" type="line"/>
      <point x="222" y="568" type="line"/>
      <point x="142" y="568" type="line"/>
      <point x="78" y="235" type="line"/>
      <point x="145" y="158" type="line"/>
      <point x="151" y="158" type="line"/>
      <point x="215" y="223"/>
      <point x="295" y="305"/>
      <point x="394" y="370" type="curve"/>
      <point x="396" y="367" type="line"/>
      <point x="369" y="323"/>
      <point x="326" y="260"/>
      <point x="326" y="93" type="curve" smooth="yes"/>
      <point x="326" y="49"/>
      <point x="329" y="9"/>
      <point x="334" y="-17" type="curve"/>
      <point x="359" y="-35" type="line"/>
    </contour>
    <contour>
      <point x="617" y="552" type="line"/>
      <point x="619" y="560" type="line"/>
      <point x="571" y="620" type="line"/>
      <point x="22" y="620" type="line"/>
      <point x="20" y="612" type="line"/>
      <point x="68" y="552" type="line"/>
    </contour>
  </outline>
</glyph>
<glyph name="bDha" format="2">
  <advance width="543"/>
  <unicode hex="09A7"/>
  <outline>
    <contour>
      <point x="388" y="126" type="line"/>
      <point x="369" y="115" type="line"/>
      <point x="310" y="202"/>
      <point x="234" y="248"/>
      <point x="163" y="273" type="curve"/>
      <point x="163" y="276" type="line"/>
      <point x="247" y="328"/>
      <point x="339" y="378"/>
      <point x="435" y="425" type="curve"/>
      <point x="456" y="530" type="line"/>
      <point x="265" y="425" type="line"/>
      <point x="192" y="387"/>
      <point x="119" y="347"/>
      <point x="41" y="302" type="curve"/>
      <point x="96" y="209" type="line"/>
      <point x="271" y="187"/>
      <point x="366" y="94"/>
      <point x="383" y="-16" type="curve"/>
    </contour>
    <contour>
      <point x="442" y="522" type="line"/>
      <point x="392" y="495"/>
      <point x="316" y="452"/>
      <point x="253" y="452" type="curve" smooth="yes"/>
      <point x="203" y="452"/>
      <point x="181" y="480"/>
      <point x="181" y="512" type="curve" smooth="yes"/>
      <point x="181" y="543"/>
      <point x="202" y="570"/>
      <point x="242" y="570" type="curve" smooth="yes"/>
      <point x="253" y="570"/>
      <point x="263" y="568"/>
      <point x="275" y="565" type="curve"/>
      <point x="279" y="595" type="line"/>
      <point x="255" y="594"/>
      <point x="234" y="581"/>
      <point x="234" y="554" type="curve" smooth="yes"/>
      <point x="234" y="525"/>
      <point x="258" y="509"/>
      <point x="285" y="509" type="curve" smooth="yes"/>
      <point x="319" y="509"/>
      <point x="344" y="534"/>
      <point x="344" y="566" type="curve" smooth="yes"/>
      <point x="344" y="600"/>
      <point x="315" y="638"/>
      <point x="247" y="638" type="curve" smooth="yes"/>
      <point x="171" y="638"/>
      <point x="111" y="590"/>
      <point x="111" y="522" type="curve" smooth="yes"/>
      <point x="111" y="456"/>
      <point x="168" y="419"/>
      <point x="230" y="419" type="curve" smooth="yes"/>
      <point x="237" y="419"/>
      <point x="243" y="419"/>
      <point x="250" y="420" type="curve"/>
      <point x="252" y="402" type="line"/>
    </contour>
    <contour>
      <point x="419" y="-33" type="line"/>
      <point x="433" y="68"/>
      <point x="445" y="132"/>
      <point x="460" y="208" type="curve" smooth="yes"/>
      <point x="527" y="552" type="line"/>
      <point x="611" y="552" type="line"/>
      <point x="613" y="560" type="line"/>
      <point x="565" y="620" type="line"/>
      <point x="460" y="620" type="line"/>
      <point x="426" y="444" type="line" smooth="yes"/>
      <point x="394" y="279"/>
      <point x="372" y="158"/>
      <point x="372" y="110" type="curve"/>
      <point x="383" y="-16" type="line"/>
      <point x="408" y="-33" type="line"/>
    </contour>
  </outline>
</glyph>
<glyph name="bNa" format="2">
  <advance width="572"/>
  <unicode hex="09A8"/>
  <outline>
    <contour>
      <point x="436" y="222" type="line"/>
      <point x="417" y="216" type="line"/>
      <point x="383" y="361"/>
      <point x="299" y="408"/>
      <point x="215" y="408" type="curve" smooth="yes"/>
      <point x="113" y="408"/>
      <point x="54" y="341"/>
      <point x="54" y="272" type="curve" smooth="yes"/>
      <point x="54" y="213"/>
      <point x="97" y="168"/>
      <point x="158" y="168" type="curve" smooth="yes"/>
      <point x="220" y="168"/>
      <point x="265" y="214"/>
      <point x="265" y="270" type="curve" smooth="yes"/>
      <point x="265" y="296"/>
      <point x="255" y="321"/>
      <point x="235" y="335" type="curve"/>
      <point x="256" y="366" type="line"/>
      <point x="231" y="338" type="line"/>
      <point x="395" y="335"/>
      <point x="410" y="109"/>
      <point x="410" y="-15" type="curve"/>
    </contour>
    <contour>
      <point x="447" y="-33" type="line"/>
      <point x="462" y="68"/>
      <point x="473" y="132"/>
      <point x="488" y="208" type="curve" smooth="yes"/>
      <point x="558" y="568" type="line"/>
      <point x="478" y="568" type="line"/>
      <point x="449" y="417" type="line" smooth="yes"/>
      <point x="426" y="296"/>
      <point x="421" y="247"/>
      <point x="419" y="208" type="curve"/>
      <point x="410" y="-15" type="line"/>
      <point x="436" y="-33" type="line"/>
    </contour>
    <contour>
      <point x="640" y="552" type="line"/>
      <point x="642" y="560" type="line"/>
      <point x="594" y="620" type="line"/>
      <point x="22" y="620" type="line"/>
      <point x="20" y="612" type="line"/>
      <point x="68" y="552" type="line"/>
    </contour>
  </outline>
</glyph>
<glyph name="bPha" format="2">
  <advance width="735"/>
  <unicode hex="09AB"/>
  <outline>
    <contour>
      <point x="404" y="131" type="line"/>
      <point x="385" y="120" type="line"/>
      <point x="327" y="208"/>
      <point x="254" y="253"/>
      <point x="185" y="279" type="curve"/>
      <point x="185" y="282" type="line"/>
      <point x="240" y="318"/>
      <point x="302" y="352"/>
      <point x="365" y="386" type="curve"/>
      <point x="328" y="445"/>
      <point x="286" y="503"/>
      <point x="228" y="550" type="curve"/>
      <point x="246" y="576" type="line"/>
      <point x="90" y="525" type="line"/>
      <point x="177" y="524"/>
      <point x="226" y="501"/>
      <point x="300" y="409" type="curve"/>
      <point x="290" y="444" type="line"/>
      <point x="220" y="405"/>
      <point x="143" y="360"/>
      <point x="63" y="309" type="curve"/>
      <point x="118" y="216" type="line"/>
      <point x="290" y="193"/>
      <point x="384" y="97"/>
      <point x="396" y="-16" type="curve"/>
    </contour>
    <contour>
      <point x="432" y="-33" type="line"/>
      <point x="447" y="68"/>
      <point x="459" y="132"/>
      <point x="474" y="208" type="curve" smooth="yes"/>
      <point x="514" y="415" type="line"/>
      <point x="522" y="416"/>
      <point x="530" y="416"/>
      <point x="538" y="416" type="curve" smooth="yes"/>
      <point x="599" y="416"/>
      <point x="676" y="402"/>
      <point x="676" y="349" type="curve" smooth="yes"/>
      <point x="676" y="322"/>
      <point x="656" y="303"/>
      <point x="622" y="297" type="curve"/>
      <point x="657" y="279" type="line"/>
      <point x="651" y="309"/>
      <point x="631" y="332"/>
      <point x="595" y="332" type="curve" smooth="yes"/>
      <point x="552" y="332"/>
      <point x="527" y="299"/>
      <point x="527" y="268" type="curve" smooth="yes"/>
      <point x="527" y="237"/>
      <point x="551" y="208"/>
      <point x="595" y="208" type="curve" smooth="yes"/>
      <point x="651" y="208"/>
      <point x="713" y="256"/>
      <point x="713" y="346" type="curve" smooth="yes"/>
      <point x="713" y="435"/>
      <point x="652" y="500"/>
      <point x="517" y="500" type="curve" smooth="yes"/>
      <point x="500" y="500"/>
      <point x="474" y="499"/>
      <point x="451" y="494" type="curve"/>
      <point x="437" y="422" type="line" smooth="yes"/>
      <point x="407" y="268"/>
      <point x="387" y="160"/>
      <point x="389" y="115" type="curve"/>
      <point x="396" y="-16" type="line"/>
      <point x="421" y="-33" type="line"/>
    </contour>
    <contour>
      <point x="222" y="552" type="line"/>
      <point x="803" y="552" type="line"/>
      <point x="805" y="560" type="line"/>
      <point x="757" y="620" type="line"/>
      <point x="22" y="620" type="line"/>
      <point x="20" y="612" type="line"/>
      <point x="90" y="525" type="line"/>
    </contour>
  </outline>
</glyph>
<glyph name="bBha" format="2">
  <advance width="711"/>
  <unicode hex="09AD"/>
  <outline>
    <contour>
      <point x="411" y="38" type="curve" smooth="yes"/>
      <point x="568" y="38"/>
      <point x="670" y="149"/>
      <point x="670" y="294" type="curve" smooth="yes"/>
      <point x="670" y="375"/>
      <point x="639" y="427"/>
      <point x="588" y="467" type="curve"/>
      <point x="583" y="466" type="line"/>
      <point x="517" y="388"/>
      <point x="460" y="347"/>
      <point x="408" y="337" type="curve"/>
      <point x="406" y="340" type="line"/>
      <point x="431" y="360"/>
      <point x="442" y="383"/>
      <point x="442" y="407" type="curve" smooth="yes"/>
      <point x="442" y="447"/>
      <point x="412" y="482"/>
      <point x="361" y="482" type="curve" smooth="yes"/>
      <point x="305" y="482"/>
      <point x="254" y="440"/>
      <point x="254" y="378" type="curve" smooth="yes"/>
      <point x="254" y="313"/>
      <point x="311" y="262"/>
      <point x="399" y="262" type="curve" smooth="yes"/>
      <point x="487" y="262"/>
      <point x="556" y="314"/>
      <point x="625" y="389" type="curve"/>
      <point x="596" y="381" type="line"/>
      <point x="613" y="366"/>
      <point x="623" y="343"/>
      <point x="623" y="313" type="curve" smooth="yes"/>
      <point x="623" y="228"/>
      <point x="538" y="133"/>
      <point x="398" y="133" type="curve" smooth="yes"/>
      <point x="259" y="133"/>
      <point x="132" y="226"/>
      <point x="120" y="500" type="curve"/>
      <point x="92" y="509" type="line"/>
      <point x="82" y="509" type="line"/>
      <point x="82" y="150"/>
      <point x="254" y="38"/>
    </contour>
    <contour>
      <point x="779" y="552" type="line"/>
      <point x="781" y="560" type="line"/>
      <point x="733" y="620" type="line"/>
      <point x="22" y="620" type="line"/>
      <point x="20" y="612" type="line"/>
      <point x="68" y="552" type="line"/>
    </contour>
  </outline>
</glyph>
<glyph name="bMa" format="2">
  <advance width="586"/>
  <unicode hex="09AE"/>
  <outline>
    <contour>
      <point x="433" y="149" type="line"/>
      <point x="415" y="138" type="line"/>
      <point x="376" y="219"/>
      <point x="306" y="337"/>
      <point x="196" y="337" type="curve" smooth="yes"/>
      <point x="126" y="337"/>
      <point x="75" y="290"/>
      <point x="75" y="231" type="curve" smooth="yes"/>
      <point x="75" y="180"/>
      <point x="112" y="139"/>
      <point x="174" y="139" type="curve" smooth="yes"/>
      <point x="268" y="139"/>
      <point x="341" y="234"/>
      <point x="341" y="318" type="curve" smooth="yes"/>
      <point x="341" y="371"/>
      <point x="312" y="464"/>
      <point x="210" y="550" type="curve"/>
      <point x="227" y="574" type="line"/>
      <point x="91" y="524" type="line"/>
      <point x="154" y="512"/>
      <point x="279" y="445"/>
      <point x="279" y="364" type="curve" smooth="yes"/>
      <point x="279" y="337"/>
      <point x="265" y="318"/>
      <point x="248" y="320" type="curve"/>
      <point x="281" y="215" type="line"/>
      <point x="388" y="160"/>
      <point x="416" y="76"/>
      <point x="426" y="-16" type="curve"/>
    </contour>
    <contour>
      <point x="461" y="-33" type="line"/>
      <point x="477" y="73"/>
      <point x="484" y="115"/>
      <point x="502" y="208" type="curve" smooth="yes"/>
      <point x="572" y="568" type="line"/>
      <point x="494" y="568" type="line"/>
      <point x="462" y="405" type="line" smooth="yes"/>
      <point x="432" y="250"/>
      <point x="418" y="181"/>
      <point x="419" y="131" type="curve"/>
      <point x="426" y="-16" type="line"/>
      <point x="450" y="-33" type="line"/>
    </contour>
    <contour>
      <point x="205" y="552" type="line"/>
      <point x="654" y="552" type="line"/>
      <point x="656" y="560" type="line"/>
      <point x="608" y="620" type="line"/>
      <point x="22" y="620" type="line"/>
      <point x="20" y="612" type="line"/>
      <point x="91" y="524" type="line"/>
    </contour>
  </outline>
</glyph>
<glyph name="bSha" format="2">
  <advance width="638"/>
  <unicode hex="09B6"/>
  <outline>
    <contour>
      <point x="508" y="-43" type="line"/>
      <point x="615" y="552" type="line"/>
      <point x="706" y="552" type="line"/>
      <point x="708" y="560" type="line"/>
      <point x="660" y="620" type="line"/>
      <point x="560" y="620" type="line"/>
      <point x="559" y="617" type="line"/>
      <point x="538" y="543"/>
      <point x="539" y="509"/>
      <point x="540" y="461" type="curve"/>
      <point x="502" y="329" type="line"/>
      <point x="499" y="314"/>
      <point x="453" y="82"/>
      <point x="439" y="10" type="curve"/>
      <point x="497" y="-43" type="line"/>
    </contour>
    <contour>
      <point x="135" y="273" type="curve" smooth="yes"/>
      <point x="176" y="273"/>
      <point x="219" y="303"/>
      <point x="246" y="360" type="curve"/>
      <point x="250" y="360" type="line"/>
      <point x="262" y="293"/>
      <point x="307" y="273"/>
      <point x="342" y="273" type="curve" smooth="yes"/>
      <point x="390" y="273"/>
      <point x="434" y="309"/>
      <point x="434" y="360" type="curve" smooth="yes"/>
      <point x="434" y="397"/>
      <point x="411" y="450"/>
      <point x="314" y="501" type="curve"/>
      <point x="231" y="501" type="line"/>
      <point x="85" y="447"/>
      <point x="55" y="395"/>
      <point x="55" y="351" type="curve" smooth="yes"/>
      <point x="55" y="300"/>
      <point x="96" y="273"/>
    </contour>
    <contour>
      <point x="245" y="501" type="line"/>
      <point x="217" y="594"/>
      <point x="180" y="620"/>
      <point x="100" y="620" type="curve" smooth="yes"/>
      <point x="22" y="620" type="line"/>
      <point x="20" y="612" type="line"/>
      <point x="84" y="533" type="line"/>
      <point x="117" y="533" type="line" smooth="yes"/>
      <point x="177" y="533"/>
      <point x="202" y="532"/>
      <point x="214" y="473" type="curve"/>
    </contour>
    <contour>
      <point x="561" y="485" type="line"/>
      <point x="537" y="474" type="line"/>
      <point x="494" y="575"/>
      <point x="448" y="620"/>
      <point x="407" y="620" type="curve" smooth="yes"/>
      <point x="365" y="620"/>
      <point x="319" y="591"/>
      <point x="248" y="501" type="curve"/>
      <point x="344" y="473" type="line"/>
      <point x="369" y="514"/>
      <point x="393" y="537"/>
      <point x="424" y="537" type="curve" smooth="yes"/>
      <point x="457" y="537"/>
      <point x="532" y="483"/>
      <point x="502" y="329" type="curve"/>
    </contour>
  </outline>
  <guideline angle="0" x="0" y="270"/>
</glyph>
<glyph name="bSsa" format="2">
  <advance width="568"/>
  <unicode hex="09B7"/>
  <outline>
    <contour>
      <point x="413" y="127" type="line"/>
      <point x="395" y="116" type="line"/>
      <point x="335" y="205"/>
      <point x="255" y="250"/>
      <point x="180" y="273" type="curve"/>
      <point x="180" y="276" type="line"/>
      <point x="238" y="315"/>
      <point x="304" y="352"/>
      <point x="370" y="389" type="curve"/>
      <point x="293" y="445" type="line"/>
      <point x="219" y="403"/>
      <point x="139" y="357"/>
      <point x="58" y="304" type="curve"/>
      <point x="113" y="211" type="line"/>
      <point x="301" y="193"/>
      <point x="391" y="96"/>
      <point x="408" y="-16" type="curve"/>
    </contour>
    <contour>
      <point x="446" y="352" type="line"/>
      <point x="380" y="427"/>
      <point x="313" y="492"/>
      <point x="238" y="550" type="curve"/>
      <point x="253" y="572" type="line"/>
      <point x="90" y="525" type="line"/>
      <point x="202" y="523"/>
      <point x="263" y="483"/>
      <point x="436" y="297" type="curve"/>
    </contour>
    <contour>
      <point x="444" y="-33" type="line"/>
      <point x="458" y="68"/>
      <point x="469" y="132"/>
      <point x="484" y="208" type="curve" smooth="yes"/>
      <point x="554" y="568" type="line"/>
      <point x="475" y="568" type="line"/>
      <point x="447" y="422" type="line" smooth="yes"/>
      <point x="417" y="268"/>
      <point x="396" y="156"/>
      <point x="398" y="111" type="curve"/>
      <point x="408" y="-16" type="line"/>
      <point x="433" y="-33" type="line"/>
    </contour>
    <contour>
      <point x="218" y="552" type="line"/>
      <point x="636" y="552" type="line"/>
      <point x="638" y="560" type="line"/>
      <point x="590" y="620" type="line"/>
      <point x="22" y="620" type="line"/>
      <point x="20" y="612" type="line"/>
      <point x="90" y="525" type="line"/>
    </contour>
  </outline>
</glyph>
<glyph name="bSa" format="2">
  <advance width="604"/>
  <unicode hex="09B8"/>
  <outline>
    <contour>
      <point x="140" y="146" type="curve" smooth="yes"/>
      <point x="179" y="146"/>
      <point x="203" y="170"/>
      <point x="288" y="256" type="curve" smooth="yes"/>
      <point x="341" y="309"/>
      <point x="372" y="333"/>
      <point x="403" y="333" type="curve" smooth="yes"/>
      <point x="435" y="333"/>
      <point x="463" y="300"/>
      <point x="447" y="221" type="curve"/>
      <point x="503" y="338" type="line"/>
      <point x="473" y="325" type="line"/>
      <point x="451" y="384"/>
      <point x="417" y="421"/>
      <point x="369" y="421" type="curve" smooth="yes"/>
      <point x="335" y="421"/>
      <point x="308" y="402"/>
      <point x="242" y="339" type="curve"/>
      <point x="179" y="276"/>
      <point x="139" y="230"/>
      <point x="109" y="230" type="curve" smooth="yes"/>
      <point x="90" y="230"/>
      <point x="78" y="250"/>
      <point x="68" y="287" type="curve"/>
      <point x="60" y="287" type="line"/>
      <point x="26" y="268" type="line"/>
      <point x="59" y="179"/>
      <point x="97" y="146"/>
    </contour>
    <contour>
      <point x="291" y="365" type="line"/>
      <point x="277" y="376" type="line"/>
      <point x="292" y="401"/>
      <point x="300" y="423"/>
      <point x="300" y="452" type="curve" smooth="yes"/>
      <point x="300" y="486"/>
      <point x="289" y="528"/>
      <point x="254" y="549" type="curve"/>
      <point x="257" y="568" type="line"/>
      <point x="91" y="524" type="line"/>
      <point x="189" y="515"/>
      <point x="253" y="479"/>
      <point x="253" y="409" type="curve" smooth="yes"/>
      <point x="253" y="373"/>
      <point x="236" y="341"/>
      <point x="213" y="302" type="curve"/>
    </contour>
    <contour>
      <point x="474" y="-43" type="line"/>
      <point x="585" y="568" type="line"/>
      <point x="516" y="568" type="line"/>
      <point x="504" y="508" type="line" smooth="yes"/>
      <point x="482" y="400"/>
      <point x="475" y="360"/>
      <point x="475" y="315" type="curve"/>
      <point x="447" y="221" type="line"/>
      <point x="444" y="208"/>
      <point x="417" y="70"/>
      <point x="405" y="10" type="curve"/>
      <point x="463" y="-43" type="line"/>
    </contour>
    <contour>
      <point x="233" y="552" type="line"/>
      <point x="672" y="552" type="line"/>
      <point x="674" y="560" type="line"/>
      <point x="626" y="620" type="line"/>
      <point x="22" y="620" type="line"/>
      <point x="20" y="612" type="line"/>
      <point x="91" y="524" type="line"/>
    </contour>
  </outline>
</glyph>
<glyph name="bHa" format="2">
  <advance width="539"/>
  <unicode hex="09B9"/>
  <outline>
    <contour>
      <point x="246" y="134" type="line"/>
      <point x="394" y="165"/>
      <point x="492" y="241"/>
      <point x="492" y="347" type="curve" smooth="yes"/>
      <point x="492" y="452"/>
      <point x="397" y="501"/>
      <point x="297" y="501" type="curve" smooth="yes"/>
      <point x="204" y="501"/>
      <point x="94" y="458"/>
      <point x="94" y="383" type="curve" smooth="yes"/>
      <point x="94" y="343"/>
      <point x="125" y="318"/>
      <point x="173" y="318" type="curve" smooth="yes"/>
      <point x="242" y="318"/>
      <point x="302" y="370"/>
      <point x="321" y="450" type="curve"/>
      <point x="288" y="415" type="line"/>
      <point x="318" y="428"/>
      <point x="339" y="436"/>
      <point x="365" y="436" type="curve" smooth="yes"/>
      <point x="404" y="436"/>
      <point x="437" y="419"/>
      <point x="437" y="377" type="curve" smooth="yes"/>
      <point x="437" y="287"/>
      <point x="284" y="215"/>
      <point x="172" y="215" type="curve" smooth="yes"/>
      <point x="143" y="215"/>
      <point x="109" y="220"/>
      <point x="41" y="248" type="curve"/>
      <point x="35" y="243" type="line"/>
      <point x="77" y="124" type="line"/>
    </contour>
    <contour>
      <point x="516" y="-123" type="line"/>
      <point x="511" y="-75" type="line"/>
      <point x="476" y="-29"/>
      <point x="415" y="47"/>
      <point x="264" y="135" type="curve"/>
      <point x="269" y="159" type="line"/>
      <point x="77" y="124" type="line"/>
      <point x="241" y="84"/>
      <point x="374" y="16"/>
      <point x="509" y="-123" type="curve"/>
    </contour>
    <contour>
      <point x="326" y="486" type="line"/>
      <point x="327" y="492"/>
      <point x="327" y="499"/>
      <point x="327" y="505" type="curve" smooth="yes"/>
      <point x="327" y="532"/>
      <point x="321" y="556"/>
      <point x="312" y="565" type="curve"/>
      <point x="243" y="565" type="line"/>
      <point x="265" y="551"/>
      <point x="279" y="527"/>
      <point x="279" y="504" type="curve" smooth="yes"/>
      <point x="279" y="498"/>
      <point x="278" y="493"/>
      <point x="277" y="488" type="curve"/>
    </contour>
    <contour>
      <point x="607" y="552" type="line"/>
      <point x="609" y="560" type="line"/>
      <point x="561" y="620" type="line"/>
      <point x="22" y="620" type="line"/>
      <point x="20" y="612" type="line"/>
      <point x="68" y="552" type="line"/>
    </contour>
  </outline>
</glyph>
<glyph name="bNukta" format="2">
  <unicode hex="09BC"/>
  <outline>
    <contour>
      <point x="-185" y="-173" type="curve" smooth="yes"/>
      <point x="-150" y="-173"/>
      <point x="-124" y="-145"/>
      <point x="-124" y="-111" type="curve" smooth="yes"/>
      <point x="-124" y="-77"/>
      <point x="-150" y="-50"/>
      <point x="-185" y="-50" type="curve" smooth="yes"/>
      <point x="-220" y="-50"/>
      <point x="-247" y="-77"/>
      <point x="-247" y="-111" type="curve" smooth="yes"/>
      <point x="-247" y="-145"/>
      <point x="-220" y="-173"/>
    </contour>
  </outline>
</glyph>
<glyph name="bAvagraha" format="2">
  <advance width="519"/>
  <unicode hex="09BD"/>
  <outline>
    <contour>
      <point x="258" y="134" type="line"/>
      <point x="397" y="170"/>
      <point x="480" y="240"/>
      <point x="480" y="340" type="curve" smooth="yes"/>
      <point x="480" y="448"/>
      <point x="386" y="496"/>
      <point x="282" y="496" type="curve" smooth="yes"/>
      <point x="175" y="496"/>
      <point x="91" y="445"/>
      <point x="91" y="380" type="curve" smooth="yes"/>
      <point x="91" y="341"/>
      <point x="121" y="319"/>
      <point x="164" y="319" type="curve" smooth="yes"/>
      <point x="232" y="319"/>
      <point x="295" y="369"/>
      <point x="308" y="437" type="curve"/>
      <point x="318" y="486" type="line"/>
      <point x="318" y="566"/>
      <point x="253" y="620"/>
      <point x="141" y="620" type="curve" smooth="yes"/>
      <point x="22" y="620" type="line"/>
      <point x="20" y="612" type="line"/>
      <point x="69" y="552" type="line"/>
      <point x="168" y="552" type="line" smooth="yes"/>
      <point x="261" y="552"/>
      <point x="272" y="521"/>
      <point x="272" y="502" type="curve" smooth="yes"/>
      <point x="272" y="494"/>
      <point x="272" y="488"/>
      <point x="270" y="481" type="curve"/>
      <point x="292" y="419" type="line"/>
      <point x="312" y="428"/>
      <point x="336" y="433"/>
      <point x="356" y="433" type="curve" smooth="yes"/>
      <point x="396" y="433"/>
      <point x="425" y="412"/>
      <point x="425" y="372" type="curve" smooth="yes"/>
      <point x="425" y="282"/>
      <point x="278" y="210"/>
      <point x="164" y="210" type="curve" smooth="yes"/>
      <point x="137" y="210"/>
      <point x="105" y="214"/>
      <point x="38" y="242" type="curve"/>
      <point x="252" y="109" type="line"/>
    </contour>
    <contour>
      <point x="505" y="-123" type="line"/>
      <point x="500" y="-77" type="line"/>
      <point x="465" y="-29"/>
      <point x="401" y="52"/>
      <point x="234" y="145" type="curve"/>
      <point x="38" y="242" type="line"/>
      <point x="33" y="237" type="line"/>
      <point x="74" y="120" type="line"/>
      <point x="234" y="80"/>
      <point x="355" y="24"/>
      <point x="498" y="-123" type="curve"/>
    </contour>
  </outline>
</glyph>
<glyph name="bSignAa" format="2">
  <advance width="245"/>
  <unicode hex="09BE"/>
  <outline>
    <contour>
      <point x="119" y="-43" type="line"/>
      <point x="227" y="614" type="line"/>
      <point x="240" y="704" type="line"/>
      <point x="203" y="735" type="line"/>
      <point x="196" y="735" type="line"/>
      <point x="170" y="602" type="line" smooth="yes"/>
      <point x="161" y="556"/>
      <point x="158" y="533"/>
      <point x="157" y="486" type="curve"/>
      <point x="116" y="355" type="line"/>
      <point x="49" y="10" type="line"/>
      <point x="108" y="-43" type="line"/>
    </contour>
    <contour>
      <point x="176" y="511" type="line"/>
      <point x="154" y="504" type="line"/>
      <point x="137" y="604"/>
      <point x="98" y="620"/>
      <point x="22" y="620" type="curve" smooth="yes"/>
      <point x="12" y="620" type="line"/>
      <point x="10" y="612" type="line"/>
      <point x="45" y="552" type="line"/>
      <point x="110" y="552"/>
      <point x="129" y="515"/>
      <point x="129" y="460" type="curve" smooth="yes"/>
      <point x="129" y="429"/>
      <point x="123" y="393"/>
      <point x="116" y="355" type="curve"/>
    </contour>
    <contour>
      <point x="313" y="552" type="line"/>
      <point x="315" y="560" type="line"/>
      <point x="267" y="620" type="line"/>
      <point x="230" y="620"/>
      <point x="230" y="639"/>
      <point x="240" y="704" type="curve"/>
      <point x="206" y="569" type="line"/>
      <point x="225" y="578" type="line"/>
      <point x="233" y="564"/>
      <point x="244" y="552"/>
      <point x="271" y="552" type="curve" smooth="yes"/>
    </contour>
  </outline>
</glyph>
<glyph name="bSignI" format="2">
  <advance width="247"/>
  <unicode hex="09BF"/>
  <outline>
    <contour>
      <point x="224" y="607" type="line"/>
      <point x="205" y="634"/>
      <point x="198" y="656"/>
      <point x="198" y="677" type="curve" smooth="yes"/>
      <point x="198" y="748"/>
      <point x="286" y="819"/>
      <point x="420" y="819" type="curve" smooth="yes"/>
      <point x="527" y="819"/>
      <point x="633" y="774"/>
      <point x="723" y="655" type="curve"/>
      <point x="730" y="655" type="line"/>
      <point x="746" y="686" type="line"/>
      <point x="661" y="813"/>
      <point x="528" y="892"/>
      <point x="385" y="892" type="curve" smooth="yes"/>
      <point x="233" y="892"/>
      <point x="123" y="802"/>
      <point x="123" y="718" type="curve" smooth="yes"/>
      <point x="123" y="676"/>
      <point x="151" y="652"/>
      <point x="178" y="607" type="curve"/>
    </contour>
    <contour>
      <point x="117" y="-43" type="line"/>
      <point x="227" y="568" type="line"/>
      <point x="158" y="568" type="line"/>
      <point x="48" y="10" type="line"/>
      <point x="106" y="-43" type="line"/>
    </contour>
    <contour>
      <point x="315" y="552" type="line"/>
      <point x="317" y="560" type="line"/>
      <point x="269" y="620" type="line"/>
      <point x="22" y="620" type="line"/>
      <point x="20" y="612" type="line"/>
      <point x="68" y="552" type="line"/>
    </contour>
  </outline>
</glyph>
<glyph name="bSignIi" format="2">
  <advance width="247"/>
  <unicode hex="09C0"/>
  <outline>
    <contour>
      <point x="231" y="604" type="line"/>
      <point x="231" y="825"/>
      <point x="86" y="915"/>
      <point x="-112" y="915" type="curve" smooth="yes"/>
      <point x="-273" y="915"/>
      <point x="-362" y="855"/>
      <point x="-362" y="781" type="curve" smooth="yes"/>
      <point x="-362" y="722"/>
      <point x="-306" y="686"/>
      <point x="-222" y="686" type="curve" smooth="yes"/>
      <point x="-177" y="686"/>
      <point x="-138" y="696"/>
      <point x="-107" y="696" type="curve" smooth="yes"/>
      <point x="-79" y="696"/>
      <point x="-56" y="688"/>
      <point x="-56" y="664" type="curve" smooth="yes"/>
      <point x="-56" y="655"/>
      <point x="-59" y="638"/>
      <point x="-78" y="615" type="curve"/>
      <point x="-9" y="615" type="line"/>
      <point x="-9" y="727"/>
      <point x="-64" y="768"/>
      <point x="-149" y="768" type="curve" smooth="yes"/>
      <point x="-197" y="768"/>
      <point x="-260" y="755"/>
      <point x="-288" y="755" type="curve" smooth="yes"/>
      <point x="-317" y="755"/>
      <point x="-321" y="769"/>
      <point x="-321" y="777" type="curve" smooth="yes"/>
      <point x="-321" y="808"/>
      <point x="-249" y="844"/>
      <point x="-109" y="844" type="curve" smooth="yes"/>
      <point x="93" y="844"/>
      <point x="171" y="768"/>
      <point x="171" y="660" type="curve" smooth="yes"/>
      <point x="171" y="642"/>
      <point x="169" y="623"/>
      <point x="165" y="604" type="curve"/>
    </contour>
    <contour>
      <point x="117" y="-43" type="line"/>
      <point x="228" y="568" type="line"/>
      <point x="159" y="568" type="line"/>
      <point x="48" y="10" type="line"/>
      <point x="106" y="-43" type="line"/>
    </contour>
    <contour>
      <point x="316" y="552" type="line"/>
      <point x="317" y="560" type="line"/>
      <point x="269" y="620" type="line"/>
      <point x="22" y="620" type="line"/>
      <point x="20" y="612" type="line"/>
      <point x="69" y="552" type="line"/>
    </contour>
  </outline>
</glyph>
<glyph name="bSignU" format="2">
  <unicode hex="09C1"/>
  <outline>
    <contour>
      <point x="18" y="-255" type="line"/>
      <point x="15" y="-203" type="line"/>
      <point x="-127" y="-52"/>
      <point x="-200" y="-21"/>
      <point x="-261" y="-21" type="curve" smooth="yes"/>
      <point x="-326" y="-21"/>
      <point x="-380" y="-56"/>
      <point x="-380" y="-112" type="curve" smooth="yes"/>
      <point x="-380" y="-167"/>
      <point x="-329" y="-199"/>
      <point x="-273" y="-199" type="curve" smooth="yes"/>
      <point x="-203" y="-199"/>
      <point x="-123" y="-148"/>
      <point x="-123" y="-26" type="curve" smooth="yes"/>
      <point x="-123" y="-12"/>
      <point x="-124" y="14"/>
      <point x="-125" y="19" type="curve" smooth="yes"/>
      <point x="-127" y="31"/>
      <point x="-147" y="42"/>
      <point x="-160" y="47" type="curve"/>
      <point x="-164" y="44" type="line"/>
      <point x="-163" y="34"/>
      <point x="-162" y="15"/>
      <point x="-162" y="4" type="curve" smooth="yes"/>
      <point x="-162" y="-92"/>
      <point x="-234" y="-145"/>
      <point x="-299" y="-145" type="curve" smooth="yes"/>
      <point x="-326" y="-145"/>
      <point x="-343" y="-136"/>
      <point x="-343" y="-118" type="curve" smooth="yes"/>
      <point x="-343" y="-91"/>
      <point x="-304" y="-71"/>
      <point x="-263" y="-71" type="curve" smooth="yes"/>
      <point x="-204" y="-71"/>
      <point x="-121" y="-110"/>
      <point x="8" y="-255" type="curve"/>
    </contour>
  </outline>
</glyph>
<glyph name="bSignVocalicR" format="2">
  <unicode hex="09C3"/>
  <outline>
    <contour>
      <point x="-105" y="-255" type="line"/>
      <point x="-108" y="-208" type="line"/>
      <point x="-143" y="-171"/>
      <point x="-205" y="-118"/>
      <point x="-251" y="-80" type="curve"/>
      <point x="-264" y="-108" type="line"/>
      <point x="-124" y="-33" type="line"/>
      <point x="-130" y="44" type="line"/>
      <point x="-344" y="-64" type="line"/>
      <point x="-342" y="-73" type="line"/>
      <point x="-262" y="-129"/>
      <point x="-189" y="-185"/>
      <point x="-114" y="-255" type="curve"/>
    </contour>
  </outline>
  <guideline angle="0" x="0" y="-255"/>
</glyph>
<glyph name="bSignE" format="2">
  <advance width="405"/>
  <unicode hex="09C7"/>
  <outline>
    <contour>
      <point x="247" y="-34" type="curve" smooth="yes"/>
      <point x="317" y="-34"/>
      <point x="366" y="7"/>
      <point x="366" y="61" type="curve" smooth="yes"/>
      <point x="366" y="105"/>
      <point x="333" y="133"/>
      <point x="293" y="133" type="curve" smooth="yes"/>
      <point x="245" y="133"/>
      <point x="219" y="95"/>
      <point x="219" y="59" type="curve" smooth="yes"/>
      <point x="219" y="40"/>
      <point x="227" y="13"/>
      <point x="253" y="7" type="curve"/>
      <point x="246" y="49" type="line"/>
      <point x="231" y="17" type="line"/>
      <point x="225" y="15"/>
      <point x="222" y="15"/>
      <point x="217" y="15" type="curve" smooth="yes"/>
      <point x="170" y="15"/>
      <point x="123" y="66"/>
      <point x="123" y="171" type="curve" smooth="yes"/>
      <point x="123" y="390"/>
      <point x="330" y="552"/>
      <point x="473" y="552" type="curve"/>
      <point x="240" y="567" type="line"/>
      <point x="243" y="549" type="line"/>
      <point x="116" y="468"/>
      <point x="52" y="337"/>
      <point x="52" y="214" type="curve" smooth="yes"/>
      <point x="52" y="78"/>
      <point x="130" y="-34"/>
    </contour>
    <contour>
      <point x="473" y="552" type="line"/>
      <point x="475" y="560" type="line"/>
      <point x="427" y="620" type="line"/>
      <point x="22" y="620" type="line"/>
      <point x="20" y="612" type="line"/>
      <point x="68" y="552" type="line"/>
    </contour>
  </outline>
</glyph>
<glyph name="bKhandTa" format="2">
  <advance width="504"/>
  <unicode hex="09CE"/>
  <outline>
    <contour>
      <point x="447" y="-33" type="line"/>
      <point x="460" y="-2"/>
      <point x="466" y="23"/>
      <point x="466" y="51" type="curve" smooth="yes"/>
      <point x="466" y="260"/>
      <point x="119" y="231"/>
      <point x="119" y="387" type="curve" smooth="yes"/>
      <point x="119" y="477"/>
      <point x="233" y="534"/>
      <point x="313" y="534" type="curve" smooth="yes"/>
      <point x="366" y="534"/>
      <point x="398" y="509"/>
      <point x="398" y="477" type="curve" smooth="yes"/>
      <point x="398" y="444"/>
      <point x="366" y="415"/>
      <point x="318" y="415" type="curve" smooth="yes"/>
      <point x="272" y="415"/>
      <point x="226" y="441"/>
      <point x="235" y="538" type="curve"/>
      <point x="207" y="526" type="line"/>
      <point x="198" y="500"/>
      <point x="190" y="478"/>
      <point x="190" y="451" type="curve" smooth="yes"/>
      <point x="190" y="378"/>
      <point x="250" y="337"/>
      <point x="312" y="337" type="curve" smooth="yes"/>
      <point x="388" y="337"/>
      <point x="446" y="397"/>
      <point x="446" y="476" type="curve" smooth="yes"/>
      <point x="446" y="546"/>
      <point x="400" y="612"/>
      <point x="302" y="612" type="curve" smooth="yes"/>
      <point x="181" y="612"/>
      <point x="71" y="513"/>
      <point x="71" y="379" type="curve" smooth="yes"/>
      <point x="71" y="139"/>
      <point x="422" y="167"/>
      <point x="422" y="22" type="curve" smooth="yes"/>
      <point x="422" y="7"/>
      <point x="418" y="-3"/>
      <point x="412" y="-15" type="curve"/>
      <point x="438" y="-33" type="line"/>
    </contour>
  </outline>
</glyph>
<glyph name="bVocalicLl" format="2">
  <advance width="725"/>
  <unicode hex="09E1"/>
  <outline>
    <contour>
      <point x="148" y="34" type="curve" smooth="yes"/>
      <point x="198" y="34"/>
      <point x="234" y="69"/>
      <point x="234" y="112" type="curve" smooth="yes"/>
      <point x="234" y="151"/>
      <point x="205" y="176"/>
      <point x="172" y="176" type="curve" smooth="yes"/>
      <point x="139" y="176"/>
      <point x="105" y="150"/>
      <point x="105" y="107" type="curve" smooth="yes"/>
      <point x="105" y="97"/>
      <point x="107" y="87"/>
      <point x="114" y="77" type="curve"/>
      <point x="130" y="118" type="line"/>
      <point x="103" y="91" type="line"/>
      <point x="86" y="99"/>
      <point x="79" y="118"/>
      <point x="79" y="142" type="curve" smooth="yes"/>
      <point x="79" y="220"/>
      <point x="149" y="281"/>
      <point x="229" y="281" type="curve" smooth="yes"/>
      <point x="289" y="281"/>
      <point x="330" y="247"/>
      <point x="330" y="182" type="curve" smooth="yes"/>
      <point x="330" y="159"/>
      <point x="321" y="116"/>
      <point x="305" y="79" type="curve"/>
      <point x="420" y="79" type="line"/>
      <point x="513" y="161"/>
      <point x="538" y="232"/>
      <point x="538" y="309" type="curve" smooth="yes"/>
      <point x="538" y="454"/>
      <point x="435" y="500"/>
      <point x="315" y="553" type="curve" smooth="yes"/>
      <point x="254" y="580"/>
      <point x="200" y="607"/>
      <point x="200" y="657" type="curve" smooth="yes"/>
      <point x="200" y="683"/>
      <point x="215" y="701"/>
      <point x="243" y="720" type="curve"/>
      <point x="228" y="746" type="line"/>
      <point x="220" y="746" type="line"/>
      <point x="176" y="718"/>
      <point x="150" y="682"/>
      <point x="150" y="630" type="curve" smooth="yes"/>
      <point x="150" y="534"/>
      <point x="235" y="497"/>
      <point x="334" y="452" type="curve" smooth="yes"/>
      <point x="420" y="413"/>
      <point x="494" y="372"/>
      <point x="494" y="296" type="curve" smooth="yes"/>
      <point x="494" y="218"/>
      <point x="416" y="154"/>
      <point x="354" y="123" type="curve"/>
      <point x="352" y="124" type="line"/>
      <point x="368" y="166"/>
      <point x="372" y="183"/>
      <point x="372" y="216" type="curve" smooth="yes"/>
      <point x="372" y="299"/>
      <point x="314" y="363"/>
      <point x="224" y="363" type="curve" smooth="yes"/>
      <point x="108" y="363"/>
      <point x="40" y="257"/>
      <point x="40" y="161" type="curve" smooth="yes"/>
      <point x="40" y="86"/>
      <point x="86" y="34"/>
    </contour>
    <contour>
      <point x="505" y="219" type="line"/>
      <point x="588" y="179"/>
      <point x="657" y="141"/>
      <point x="657" y="67" type="curve" smooth="yes"/>
      <point x="657" y="-11"/>
      <point x="584" y="-76"/>
      <point x="507" y="-116" type="curve"/>
      <point x="460" y="-239" type="line"/>
      <point x="607" y="-150"/>
      <point x="701" y="-60"/>
      <point x="701" y="80" type="curve" smooth="yes"/>
      <point x="701" y="206"/>
      <point x="623" y="258"/>
      <point x="523" y="304" type="curve"/>
    </contour>
    <contour>
      <point x="532" y="-112" type="line"/>
      <point x="521" y="-106" type="line"/>
      <point x="532" y="-83"/>
      <point x="541" y="-50"/>
      <point x="541" y="-19" type="curve" smooth="yes"/>
      <point x="541" y="61"/>
      <point x="481" y="123"/>
      <point x="392" y="123" type="curve" smooth="yes"/>
      <point x="282" y="123"/>
      <point x="212" y="28"/>
      <point x="212" y="-64" type="curve" smooth="yes"/>
      <point x="212" y="-139"/>
      <point x="258" y="-195"/>
      <point x="320" y="-195" type="curve" smooth="yes"/>
      <point x="370" y="-195"/>
      <point x="406" y="-160"/>
      <point x="406" y="-117" type="curve" smooth="yes"/>
      <point x="406" y="-78"/>
      <point x="377" y="-53"/>
      <point x="344" y="-53" type="curve" smooth="yes"/>
      <point x="311" y="-53"/>
      <point x="277" y="-79"/>
      <point x="277" y="-122" type="curve" smooth="yes"/>
      <point x="277" y="-132"/>
      <point x="279" y="-142"/>
      <point x="286" y="-152" type="curve"/>
      <point x="302" y="-111" type="line"/>
      <point x="275" y="-138" type="line"/>
      <point x="258" y="-129"/>
      <point x="251" y="-107"/>
      <point x="251" y="-84" type="curve" smooth="yes"/>
      <point x="251" y="-12"/>
      <point x="318" y="41"/>
      <point x="396" y="41" type="curve" smooth="yes"/>
      <point x="457" y="41"/>
      <point x="499" y="9"/>
      <point x="499" y="-54" type="curve" smooth="yes"/>
      <point x="499" y="-102"/>
      <point x="475" y="-166"/>
      <point x="439" y="-222" type="curve"/>
      <point x="460" y="-239" type="line"/>
    </contour>
  </outline>
</glyph>
<glyph name="bSignVocalicL" format="2">
  <unicode hex="09E2"/>
  <outline>
    <contour>
      <point x="-244" y="-368" type="line"/>
      <point x="-155" y="-320"/>
      <point x="-98" y="-264"/>
      <point x="-98" y="-184" type="curve" smooth="yes"/>
      <point x="-98" y="-86"/>
      <point x="-177" y="-56"/>
      <point x="-235" y="-32" type="curve" smooth="yes"/>
      <point x="-271" y="-17"/>
      <point x="-295" y="-6"/>
      <point x="-295" y="18" type="curve" smooth="yes"/>
      <point x="-295" y="33"/>
      <point x="-286" y="44"/>
      <point x="-270" y="56" type="curve"/>
      <point x="-282" y="71" type="line"/>
      <point x="-287" y="71" type="line"/>
      <point x="-316" y="54"/>
      <point x="-327" y="28"/>
      <point x="-327" y="5" type="curve" smooth="yes"/>
      <point x="-327" y="-54"/>
      <point x="-259" y="-82"/>
      <point x="-225" y="-97" type="curve" smooth="yes"/>
      <point x="-167" y="-122"/>
      <point x="-131" y="-146"/>
      <point x="-131" y="-190" type="curve" smooth="yes"/>
      <point x="-131" y="-233"/>
      <point x="-166" y="-267"/>
      <point x="-209" y="-289" type="curve"/>
      <point x="-224" y="-292" type="line"/>
    </contour>
    <contour>
      <point x="-244" y="-368" type="line"/>
      <point x="-218" y="-309"/>
      <point x="-197" y="-291"/>
      <point x="-197" y="-246" type="curve" smooth="yes"/>
      <point x="-197" y="-186"/>
      <point x="-234" y="-149"/>
      <point x="-288" y="-149" type="curve" smooth="yes"/>
      <point x="-358" y="-149"/>
      <point x="-397" y="-212"/>
      <point x="-397" y="-265" type="curve" smooth="yes"/>
      <point x="-397" y="-306"/>
      <point x="-374" y="-344"/>
      <point x="-332" y="-344" type="curve" smooth="yes"/>
      <point x="-301" y="-344"/>
      <point x="-282" y="-322"/>
      <point x="-282" y="-299" type="curve" smooth="yes"/>
      <point x="-282" y="-277"/>
      <point x="-298" y="-262"/>
      <point x="-319" y="-262" type="curve" smooth="yes"/>
      <point x="-343" y="-262"/>
      <point x="-358" y="-280"/>
      <point x="-358" y="-300" type="curve" smooth="yes"/>
      <point x="-358" y="-305"/>
      <point x="-357" y="-309"/>
      <point x="-354" y="-314" type="curve"/>
      <point x="-333" y="-285" type="line"/>
      <point x="-359" y="-311" type="line"/>
      <point x="-368" y="-305"/>
      <point x="-371" y="-292"/>
      <point x="-371" y="-280" type="curve" smooth="yes"/>
      <point x="-371" y="-235"/>
      <point x="-332" y="-202"/>
      <point x="-284" y="-202" type="curve" smooth="yes"/>
      <point x="-246" y="-202"/>
      <point x="-224" y="-222"/>
      <point x="-224" y="-256" type="curve" smooth="yes"/>
      <point x="-224" y="-284"/>
      <point x="-238" y="-322"/>
      <point x="-260" y="-356" type="curve"/>
    </contour>
  </outline>
</glyph>
<glyph name="bZero" format="2">
  <advance width="582"/>
  <unicode hex="09E6"/>
  <outline>
    <contour>
      <point x="284" y="73" type="curve" smooth="yes"/>
      <point x="412" y="73"/>
      <point x="521" y="161"/>
      <point x="521" y="290" type="curve" smooth="yes"/>
      <point x="521" y="395"/>
      <point x="447" y="480"/>
      <point x="321" y="480" type="curve" smooth="yes"/>
      <point x="176" y="480"/>
      <point x="86" y="372"/>
      <point x="86" y="259" type="curve" smooth="yes"/>
      <point x="86" y="157"/>
      <point x="160" y="73"/>
    </contour>
    <contour>
      <point x="234" y="128" type="curve" smooth="yes"/>
      <point x="185" y="128"/>
      <point x="160" y="160"/>
      <point x="160" y="211" type="curve" smooth="yes"/>
      <point x="160" y="318"/>
      <point x="277" y="422"/>
      <point x="370" y="422" type="curve" smooth="yes"/>
      <point x="422" y="422"/>
      <point x="449" y="389"/>
      <point x="449" y="339" type="curve" smooth="yes"/>
      <point x="449" y="233"/>
      <point x="326" y="128"/>
    </contour>
  </outline>
</glyph>
<glyph name="bTwo" format="2">
  <advance width="526"/>
  <unicode hex="09E8"/>
  <outline>
    <contour>
      <point x="295" y="143" type="line"/>
      <point x="415" y="170"/>
      <point x="452" y="242"/>
      <point x="452" y="305" type="curve" smooth="yes"/>
      <point x="452" y="432"/>
      <point x="306" y="453"/>
      <point x="268" y="521" type="curve"/>
      <point x="257" y="489" type="line"/>
      <point x="292" y="505"/>
      <point x="306" y="532"/>
      <point x="306" y="555" type="curve" smooth="yes"/>
      <point x="306" y="584"/>
      <point x="282" y="608"/>
      <point x="247" y="608" type="curve" smooth="yes"/>
      <point x="210" y="608"/>
      <point x="174" y="581"/>
      <point x="174" y="533" type="curve" smooth="yes"/>
      <point x="174" y="462"/>
      <point x="251" y="427"/>
      <point x="321" y="395" type="curve" smooth="yes"/>
      <point x="367" y="374"/>
      <point x="406" y="352"/>
      <point x="406" y="317" type="curve" smooth="yes"/>
      <point x="406" y="270"/>
      <point x="333" y="225"/>
      <point x="226" y="225" type="curve" smooth="yes"/>
      <point x="176" y="225"/>
      <point x="123" y="236"/>
      <point x="69" y="264" type="curve"/>
      <point x="290" y="122" type="line"/>
    </contour>
    <contour>
      <point x="497" y="-81" type="line"/>
      <point x="492" y="-37" type="line"/>
      <point x="464" y="7"/>
      <point x="395" y="73"/>
      <point x="289" y="143" type="curve"/>
      <point x="69" y="264" type="line"/>
      <point x="63" y="259" type="line"/>
      <point x="105" y="137" type="line"/>
      <point x="244" y="103"/>
      <point x="363" y="43"/>
      <point x="490" y="-81" type="curve"/>
    </contour>
  </outline>
</glyph>
<glyph name="bThree" format="2">
  <advance width="685"/>
  <unicode hex="09E9"/>
  <outline>
    <contour>
      <point x="369" y="37" type="curve" smooth="yes"/>
      <point x="516" y="37"/>
      <point x="627" y="163"/>
      <point x="627" y="324" type="curve" smooth="yes"/>
      <point x="627" y="459"/>
      <point x="548" y="547"/>
      <point x="432" y="547" type="curve" smooth="yes"/>
      <point x="335" y="547"/>
      <point x="260" y="485"/>
      <point x="260" y="403" type="curve" smooth="yes"/>
      <point x="260" y="337"/>
      <point x="308" y="303"/>
      <point x="359" y="303" type="curve" smooth="yes"/>
      <point x="418" y="303"/>
      <point x="463" y="349"/>
      <point x="463" y="405" type="curve" smooth="yes"/>
      <point x="463" y="432"/>
      <point x="453" y="467"/>
      <point x="427" y="481" type="curve"/>
      <point x="420" y="460" type="line"/>
      <point x="440" y="470"/>
      <point x="455" y="473"/>
      <point x="471" y="473" type="curve" smooth="yes"/>
      <point x="543" y="473"/>
      <point x="577" y="413"/>
      <point x="577" y="347" type="curve" smooth="yes"/>
      <point x="577" y="240"/>
      <point x="487" y="134"/>
      <point x="363" y="134" type="curve" smooth="yes"/>
      <point x="252" y="134"/>
      <point x="145" y="219"/>
      <point x="112" y="495" type="curve"/>
      <point x="84" y="504" type="line"/>
      <point x="74" y="504" type="line"/>
      <point x="88" y="160"/>
      <point x="225" y="37"/>
    </contour>
  </outline>
</glyph>
<glyph name="bFive" format="2">
  <advance width="605"/>
  <unicode hex="09EB"/>
  <outline>
    <contour>
      <point x="310" y="-10" type="curve" smooth="yes"/>
      <point x="400" y="-10"/>
      <point x="467" y="41"/>
      <point x="513" y="110" type="curve"/>
      <point x="511" y="116" type="line"/>
      <point x="417" y="118" type="line"/>
      <point x="373" y="67"/>
      <point x="322" y="47"/>
      <point x="274" y="47" type="curve" smooth="yes"/>
      <point x="208" y="47"/>
      <point x="149" y="88"/>
      <point x="149" y="181" type="curve" smooth="yes"/>
      <point x="149" y="294"/>
      <point x="218" y="408"/>
      <point x="362" y="504" type="curve"/>
      <point x="365" y="503" type="line"/>
      <point x="364" y="443"/>
      <point x="411" y="417"/>
      <point x="458" y="417" type="curve"/>
      <point x="459" y="417"/>
      <point x="462" y="417"/>
      <point x="470" y="418" type="curve"/>
      <point x="470" y="416" type="line"/>
      <point x="360" y="354"/>
      <point x="308" y="281"/>
      <point x="308" y="214" type="curve" smooth="yes"/>
      <point x="308" y="155"/>
      <point x="345" y="106"/>
      <point x="422" y="95" type="curve"/>
      <point x="511" y="116" type="line"/>
      <point x="430" y="120"/>
      <point x="381" y="141"/>
      <point x="381" y="191" type="curve" smooth="yes"/>
      <point x="381" y="288"/>
      <point x="523" y="358"/>
      <point x="565" y="381" type="curve" smooth="yes"/>
      <point x="571" y="384"/>
      <point x="592" y="396"/>
      <point x="592" y="420" type="curve" smooth="yes"/>
      <point x="592" y="441"/>
      <point x="580" y="462"/>
      <point x="555" y="462" type="curve" smooth="yes"/>
      <point x="535" y="462"/>
      <point x="514" y="452"/>
      <point x="485" y="452" type="curve" smooth="yes"/>
      <point x="440" y="452"/>
      <point x="411" y="473"/>
      <point x="411" y="504" type="curve" smooth="yes"/>
      <point x="411" y="541"/>
      <point x="440" y="547"/>
      <point x="440" y="574" type="curve" smooth="yes"/>
      <point x="440" y="594"/>
      <point x="421" y="608"/>
      <point x="397" y="608" type="curve" smooth="yes"/>
      <point x="329" y="608"/>
      <point x="83" y="448"/>
      <point x="83" y="224" type="curve" smooth="yes"/>
      <point x="83" y="77"/>
      <point x="191" y="-10"/>
    </contour>
  </outline>
</glyph>
<glyph name="bSix" format="2">
  <advance width="685"/>
  <unicode hex="09EC"/>
  <outline>
    <contour>
      <point x="365" y="-10" type="curve" smooth="yes"/>
      <point x="519" y="-10"/>
      <point x="618" y="108"/>
      <point x="618" y="252" type="curve" smooth="yes"/>
      <point x="618" y="321"/>
      <point x="595" y="380"/>
      <point x="546" y="416" type="curve"/>
      <point x="542" y="330" type="line"/>
      <point x="563" y="315"/>
      <point x="573" y="288"/>
      <point x="573" y="262" type="curve" smooth="yes"/>
      <point x="573" y="184"/>
      <point x="484" y="83"/>
      <point x="356" y="83" type="curve" smooth="yes"/>
      <point x="213" y="83"/>
      <point x="138" y="207"/>
      <point x="136" y="463" type="curve"/>
      <point x="108" y="472" type="line"/>
      <point x="98" y="472" type="line"/>
      <point x="97" y="448"/>
      <point x="96" y="424"/>
      <point x="96" y="396" type="curve" smooth="yes"/>
      <point x="96" y="88"/>
      <point x="224" y="-10"/>
    </contour>
    <contour>
      <point x="390" y="201" type="curve" smooth="yes"/>
      <point x="429" y="201"/>
      <point x="507" y="256"/>
      <point x="575" y="335" type="curve"/>
      <point x="546" y="416" type="line"/>
      <point x="541" y="415" type="line"/>
      <point x="481" y="342"/>
      <point x="404" y="283"/>
      <point x="372" y="283" type="curve" smooth="yes"/>
      <point x="363" y="283"/>
      <point x="359" y="288"/>
      <point x="359" y="298" type="curve" smooth="yes"/>
      <point x="359" y="303"/>
      <point x="360" y="307"/>
      <point x="361" y="312" type="curve" smooth="yes"/>
      <point x="395" y="488" type="line" smooth="yes"/>
      <point x="398" y="503"/>
      <point x="399" y="518"/>
      <point x="399" y="528" type="curve" smooth="yes"/>
      <point x="399" y="588"/>
      <point x="360" y="608"/>
      <point x="327" y="608" type="curve" smooth="yes"/>
      <point x="291" y="608"/>
      <point x="259" y="584"/>
      <point x="259" y="548" type="curve" smooth="yes"/>
      <point x="259" y="518"/>
      <point x="281" y="500"/>
      <point x="306" y="500" type="curve" smooth="yes"/>
      <point x="320" y="500"/>
      <point x="336" y="506"/>
      <point x="344" y="515" type="curve"/>
      <point x="298" y="526" type="line"/>
      <point x="324" y="500" type="line"/>
      <point x="313" y="464"/>
      <point x="287" y="368"/>
      <point x="287" y="325" type="curve" smooth="yes"/>
      <point x="287" y="258"/>
      <point x="350" y="201"/>
    </contour>
  </outline>
</glyph>
<glyph name="bNine" format="2">
  <advance width="630"/>
  <unicode hex="09EF"/>
  <outline>
    <contour>
      <point x="324" y="-10" type="line"/>
      <point x="477" y="39"/>
      <point x="572" y="110"/>
      <point x="572" y="235" type="curve" smooth="yes"/>
      <point x="572" y="426"/>
      <point x="305" y="450"/>
      <point x="268" y="531" type="curve"/>
      <point x="258" y="504" type="line"/>
      <point x="286" y="519"/>
      <point x="297" y="536"/>
      <point x="297" y="556" type="curve" smooth="yes"/>
      <point x="297" y="588"/>
      <point x="269" y="608"/>
      <point x="238" y="608" type="curve" smooth="yes"/>
      <point x="202" y="608"/>
      <point x="167" y="581"/>
      <point x="167" y="538" type="curve" smooth="yes"/>
      <point x="167" y="463"/>
      <point x="269" y="423"/>
      <point x="357" y="390" type="curve" smooth="yes"/>
      <point x="472" y="347"/>
      <point x="525" y="311"/>
      <point x="525" y="250" type="curve" smooth="yes"/>
      <point x="525" y="194"/>
      <point x="488" y="147"/>
      <point x="416" y="115" type="curve"/>
      <point x="408" y="121" type="line"/>
      <point x="320" y="-5" type="line"/>
    </contour>
    <contour>
      <point x="184" y="-10" type="curve" smooth="yes"/>
      <point x="242" y="-10"/>
      <point x="295" y="23"/>
      <point x="295" y="82" type="curve" smooth="yes"/>
      <point x="295" y="127"/>
      <point x="263" y="149"/>
      <point x="230" y="149" type="curve" smooth="yes"/>
      <point x="195" y="149"/>
      <point x="160" y="124"/>
      <point x="160" y="79" type="curve" smooth="yes"/>
      <point x="160" y="56"/>
      <point x="169" y="36"/>
      <point x="192" y="24" type="curve"/>
      <point x="192" y="67" type="line"/>
      <point x="171" y="36" type="line"/>
      <point x="135" y="42"/>
      <point x="120" y="74"/>
      <point x="120" y="106" type="curve" smooth="yes"/>
      <point x="120" y="180"/>
      <point x="198" y="238"/>
      <point x="270" y="238" type="curve" smooth="yes"/>
      <point x="323" y="238"/>
      <point x="374" y="207"/>
      <point x="374" y="140" type="curve" smooth="yes"/>
      <point x="374" y="106"/>
      <point x="361" y="63"/>
      <point x="320" y="-5" type="curve"/>
      <point x="406" y="89" type="line"/>
      <point x="415" y="122"/>
      <point x="424" y="134"/>
      <point x="424" y="167" type="curve" smooth="yes"/>
      <point x="424" y="263"/>
      <point x="346" y="317"/>
      <point x="261" y="317" type="curve" smooth="yes"/>
      <point x="163" y="317"/>
      <point x="54" y="245"/>
      <point x="54" y="127" type="curve" smooth="yes"/>
      <point x="54" y="41"/>
      <point x="112" y="-10"/>
    </contour>
  </outline>
</glyph>
<glyph name="bRupeemark" format="2">
  <advance width="533"/>
  <unicode hex="09F2"/>
  <outline>
    <contour>
      <point x="427" y="-15" type="line"/>
      <point x="446" y="28" type="line"/>
      <point x="392" y="203"/>
      <point x="284" y="360"/>
      <point x="160" y="505" type="curve"/>
      <point x="154" y="503" type="line"/>
      <point x="123" y="398" type="line"/>
      <point x="259" y="283"/>
      <point x="362" y="137"/>
      <point x="420" y="-15" type="curve"/>
    </contour>
  </outline>
</glyph>
<glyph name="bCurrencyNomOne" format="2">
  <advance width="484"/>
  <unicode hex="09F4"/>
  <outline>
    <contour>
      <point x="54" y="-1" type="line"/>
      <point x="218" y="98"/>
      <point x="381" y="262"/>
      <point x="488" y="530" type="curve"/>
      <point x="466" y="550" type="line"/>
      <point x="460" y="550" type="line"/>
      <point x="331" y="299"/>
      <point x="173" y="169"/>
      <point x="-3" y="74" type="curve"/>
      <point x="50" y="0" type="line"/>
    </contour>
  </outline>
</glyph>
<glyph name="bCurrencyNomTwo" format="2">
  <advance width="602"/>
  <unicode hex="09F5"/>
  <outline>
    <contour>
      <point x="173" y="-1" type="line"/>
      <point x="336" y="98"/>
      <point x="499" y="262"/>
      <point x="606" y="530" type="curve"/>
      <point x="584" y="550" type="line"/>
      <point x="578" y="550" type="line"/>
      <point x="508" y="415"/>
      <point x="429" y="310"/>
      <point x="345" y="233" type="curve"/>
      <point x="219" y="109" type="line"/>
      <point x="116" y="74" type="line"/>
      <point x="168" y="0" type="line"/>
    </contour>
    <contour>
      <point x="213" y="81" type="line"/>
      <point x="368" y="236" type="line"/>
      <point x="354" y="244" type="line"/>
      <point x="357" y="253"/>
      <point x="362" y="265"/>
      <point x="362" y="287" type="curve" smooth="yes"/>
      <point x="362" y="365"/>
      <point x="300" y="422"/>
      <point x="216" y="422" type="curve" smooth="yes"/>
      <point x="134" y="422"/>
      <point x="70" y="368"/>
      <point x="70" y="302" type="curve" smooth="yes"/>
      <point x="70" y="251"/>
      <point x="108" y="223"/>
      <point x="149" y="223" type="curve" smooth="yes"/>
      <point x="197" y="223"/>
      <point x="234" y="260"/>
      <point x="234" y="306" type="curve" smooth="yes"/>
      <point x="234" y="331"/>
      <point x="223" y="361"/>
      <point x="202" y="369" type="curve"/>
      <point x="202" y="349" type="line"/>
      <point x="212" y="356"/>
      <point x="226" y="360"/>
      <point x="243" y="360" type="curve" smooth="yes"/>
      <point x="295" y="360"/>
      <point x="321" y="321"/>
      <point x="321" y="282" type="curve" smooth="yes"/>
      <point x="321" y="237"/>
      <point x="286" y="161"/>
      <point x="116" y="74" type="curve"/>
    </contour>
  </outline>
</glyph>
<glyph name="bCurrencyNomFour" format="2">
  <advance width="292"/>
  <unicode hex="09F7"/>
  <outline>
    <contour>
      <point x="146" y="-10" type="line"/>
      <point x="243" y="488" type="line" smooth="yes"/>
      <point x="246" y="501"/>
      <point x="247" y="514"/>
      <point x="247" y="524" type="curve" smooth="yes"/>
      <point x="247" y="586"/>
      <point x="206" y="608"/>
      <point x="174" y="608" type="curve" smooth="yes"/>
      <point x="140" y="608"/>
      <point x="107" y="584"/>
      <point x="107" y="548" type="curve" smooth="yes"/>
      <point x="107" y="518"/>
      <point x="129" y="500"/>
      <point x="155" y="500" type="curve" smooth="yes"/>
      <point x="170" y="500"/>
      <point x="185" y="506"/>
      <point x="192" y="515" type="curve"/>
      <point x="146" y="526" type="line"/>
      <point x="172" y="500" type="line"/>
      <point x="162" y="464"/>
      <point x="154" y="426"/>
      <point x="133" y="318" type="curve"/>
      <point x="79" y="41" type="line"/>
      <point x="135" y="-10" type="line"/>
    </contour>
  </outline>
</glyph>
<glyph name="bCurrencyOneLessDenom" format="2">
  <advance width="595"/>
  <unicode hex="09F8"/>
  <outline>
    <contour>
      <point x="469" y="-10" type="curve" smooth="yes"/>
      <point x="507" y="-10"/>
      <point x="536" y="15"/>
      <point x="536" y="50" type="curve" smooth="yes"/>
      <point x="536" y="80"/>
      <point x="515" y="98"/>
      <point x="490" y="98" type="curve" smooth="yes"/>
      <point x="476" y="98"/>
      <point x="464" y="92"/>
      <point x="457" y="87" type="curve"/>
      <point x="497" y="72" type="line"/>
      <point x="471" y="98" type="line"/>
      <point x="484" y="146"/>
      <point x="492" y="183"/>
      <point x="502" y="236" type="curve" smooth="yes"/>
      <point x="523" y="346" type="line" smooth="yes"/>
      <point x="524" y="352"/>
      <point x="525" y="359"/>
      <point x="525" y="365" type="curve" smooth="yes"/>
      <point x="525" y="416"/>
      <point x="458" y="465"/>
      <point x="411" y="465" type="curve" smooth="yes"/>
      <point x="355" y="465"/>
      <point x="280" y="393"/>
      <point x="201" y="315" type="curve"/>
      <point x="200" y="316" type="line"/>
      <point x="233" y="488" type="line" smooth="yes"/>
      <point x="235" y="499"/>
      <point x="237" y="514"/>
      <point x="237" y="527" type="curve" smooth="yes"/>
      <point x="237" y="584"/>
      <point x="199" y="608"/>
      <point x="164" y="608" type="curve" smooth="yes"/>
      <point x="129" y="608"/>
      <point x="97" y="584"/>
      <point x="97" y="548" type="curve" smooth="yes"/>
      <point x="97" y="518"/>
      <point x="119" y="500"/>
      <point x="144" y="500" type="curve" smooth="yes"/>
      <point x="159" y="500"/>
      <point x="174" y="506"/>
      <point x="182" y="515" type="curve"/>
      <point x="142" y="529" type="line"/>
      <point x="162" y="500" type="line"/>
      <point x="153" y="471"/>
      <point x="127" y="335"/>
      <point x="116" y="282" type="curve" smooth="yes"/>
      <point x="106" y="233" type="line"/>
      <point x="161" y="163" type="line"/>
      <point x="167" y="163" type="line"/>
      <point x="275" y="286"/>
      <point x="399" y="401"/>
      <point x="439" y="401" type="curve" smooth="yes"/>
      <point x="449" y="401"/>
      <point x="453" y="396"/>
      <point x="453" y="386" type="curve" smooth="yes"/>
      <point x="453" y="381"/>
      <point x="452" y="374"/>
      <point x="450" y="366" type="curve" smooth="yes"/>
      <point x="400" y="110" type="line" smooth="yes"/>
      <point x="397" y="95"/>
      <point x="395" y="82"/>
      <point x="395" y="70" type="curve" smooth="yes"/>
      <point x="395" y="20"/>
      <point x="427" y="-10"/>
    </contour>
  </outline>
  <guideline angle="0" x="0" y="299"/>
</glyph>
<glyph name="bIsshar" format="2">
  <advance width="656"/>
  <unicode hex="09FA"/>
  <outline>
    <contour>
      <point x="260" y="104" type="curve" smooth="yes"/>
      <point x="414" y="104"/>
      <point x="542" y="261"/>
      <point x="643" y="466" type="curve"/>
      <point x="621" y="486" type="line"/>
      <point x="615" y="486" type="line"/>
      <point x="524" y="342"/>
      <point x="408" y="195"/>
      <point x="258" y="195" type="curve" smooth="yes"/>
      <point x="177" y="195"/>
      <point x="133" y="238"/>
      <point x="133" y="304" type="curve" smooth="yes"/>
      <point x="133" y="328"/>
      <point x="139" y="379"/>
      <point x="177" y="436" type="curve"/>
      <point x="155" y="452" type="line"/>
      <point x="146" y="452" type="line"/>
      <point x="102" y="393"/>
      <point x="78" y="333"/>
      <point x="78" y="277" type="curve" smooth="yes"/>
      <point x="78" y="175"/>
      <point x="156" y="104"/>
    </contour>
    <contour>
      <point x="305" y="293" type="curve" smooth="yes"/>
      <point x="342" y="293"/>
      <point x="370" y="323"/>
      <point x="370" y="360" type="curve" smooth="yes"/>
      <point x="370" y="396"/>
      <point x="342" y="425"/>
      <point x="305" y="425" type="curve" smooth="yes"/>
      <point x="267" y="425"/>
      <point x="238" y="396"/>
      <point x="238" y="360" type="curve" smooth="yes"/>
      <point x="238" y="323"/>
      <point x="267" y="293"/>
    </contour>
  </outline>
</glyph>
<glyph name="bGanda" format="2">
  <advance width="363"/>
  <unicode hex="09FB"/>
  <outline>
    <contour>
      <point x="289" y="-179" type="line"/>
      <point x="284" y="-132" type="line"/>
      <point x="213" y="-51"/>
      <point x="133" y="58"/>
      <point x="133" y="152" type="curve" smooth="yes"/>
      <point x="133" y="213"/>
      <point x="171" y="310"/>
      <point x="321" y="349" type="curve"/>
      <point x="290" y="435" type="line"/>
      <point x="285" y="435" type="line"/>
      <point x="179" y="409"/>
      <point x="70" y="323"/>
      <point x="70" y="189" type="curve" smooth="yes"/>
      <point x="70" y="46"/>
      <point x="193" y="-99"/>
      <point x="283" y="-179" type="curve"/>
    </contour>
  </outline>
</glyph>
<glyph name="bAnusvaraVedic" format="2">
  <unicode hex="09FC"/>
  <outline>
    <contour>
      <point x="283" y="262" type="curve" smooth="yes"/>
      <point x="440" y="262"/>
      <point x="558" y="440"/>
      <point x="630" y="580" type="curve"/>
      <point x="608" y="597" type="line"/>
      <point x="602" y="597" type="line"/>
      <point x="529" y="484"/>
      <point x="414" y="348"/>
      <point x="276" y="348" type="curve" smooth="yes"/>
      <point x="187" y="348"/>
      <point x="151" y="404"/>
      <point x="151" y="467" type="curve" smooth="yes"/>
      <point x="151" y="495"/>
      <point x="158" y="529"/>
      <point x="177" y="566" type="curve"/>
      <point x="155" y="582" type="line"/>
      <point x="146" y="582" type="line"/>
      <point x="113" y="526"/>
      <point x="101" y="482"/>
      <point x="101" y="441" type="curve" smooth="yes"/>
      <point x="101" y="336"/>
      <point x="182" y="262"/>
    </contour>
    <contour>
      <point x="428" y="-63" type="line"/>
      <point x="426" y="-7" type="line"/>
      <point x="368" y="101"/>
      <point x="327" y="169"/>
      <point x="280" y="242" type="curve"/>
      <point x="273" y="240" type="line"/>
      <point x="268" y="127" type="line"/>
      <point x="324" y="67"/>
      <point x="375" y="9"/>
      <point x="421" y="-65" type="curve"/>
    </contour>
    <contour>
      <point x="315" y="428" type="curve" smooth="yes"/>
      <point x="351" y="428"/>
      <point x="378" y="457"/>
      <point x="378" y="492" type="curve" smooth="yes"/>
      <point x="378" y="527"/>
      <point x="351" y="555"/>
      <point x="315" y="555" type="curve" smooth="yes"/>
      <point x="279" y="555"/>
      <point x="251" y="527"/>
      <point x="251" y="492" type="curve" smooth="yes"/>
      <point x="251" y="457"/>
      <point x="279" y="428"/>
    </contour>
  </outline>
</glyph>
<glyph name="bAbbreviation" format="2">
  <advance width="461"/>
  <unicode hex="09FD"/>
  <outline>
    <contour>
      <point x="224" y="158" type="curve" smooth="yes"/>
      <point x="311" y="158"/>
      <point x="393" y="227"/>
      <point x="393" y="318" type="curve" smooth="yes"/>
      <point x="393" y="390"/>
      <point x="342" y="448"/>
      <point x="257" y="448" type="curve" smooth="yes"/>
      <point x="154" y="448"/>
      <point x="87" y="364"/>
      <point x="87" y="284" type="curve" smooth="yes"/>
      <point x="87" y="206"/>
      <point x="151" y="158"/>
    </contour>
    <contour>
      <point x="202" y="206" type="curve" smooth="yes"/>
      <point x="168" y="206"/>
      <point x="143" y="225"/>
      <point x="143" y="266" type="curve" smooth="yes"/>
      <point x="143" y="335"/>
      <point x="213" y="401"/>
      <point x="277" y="401" type="curve" smooth="yes"/>
      <point x="313" y="401"/>
      <point x="337" y="380"/>
      <point x="337" y="337" type="curve" smooth="yes"/>
      <point x="337" y="261"/>
      <point x="260" y="206"/>
    </contour>
  </outline>
</glyph>
<glyph name="bSandhi" format="2">
  <unicode hex="09FE"/>
  <outline>
    <contour>
      <point x="-110" y="737" type="line"/>
      <point x="9" y="733"/>
      <point x="76" y="769"/>
      <point x="76" y="833" type="curve" smooth="yes"/>
      <point x="76" y="890"/>
      <point x="25" y="910"/>
      <point x="-16" y="910" type="curve" smooth="yes"/>
      <point x="-57" y="910"/>
      <point x="-108" y="890"/>
      <point x="-108" y="852" type="curve" smooth="yes"/>
      <point x="-108" y="830"/>
      <point x="-91" y="817"/>
      <point x="-68" y="817" type="curve" smooth="yes"/>
      <point x="-32" y="817"/>
      <point x="-2" y="848"/>
      <point x="-1" y="887" type="curve"/>
      <point x="-24" y="854" type="line"/>
      <point x="-10" y="867"/>
      <point x="1" y="871"/>
      <point x="13" y="871" type="curve" smooth="yes"/>
      <point x="29" y="871"/>
      <point x="40" y="864"/>
      <point x="40" y="850" type="curve" smooth="yes"/>
      <point x="40" y="815"/>
      <point x="-24" y="787"/>
      <point x="-74" y="787" type="curve" smooth="yes"/>
      <point x="-87" y="787"/>
      <point x="-102" y="789"/>
      <point x="-130" y="802" type="curve"/>
      <point x="-133" y="797" type="line"/>
    </contour>
    <contour>
      <point x="85" y="626" type="line"/>
      <point x="82" y="656" type="line"/>
      <point x="71" y="672"/>
      <point x="47" y="700"/>
      <point x="-19" y="742" type="curve"/>
      <point x="-17" y="754" type="line"/>
      <point x="-110" y="737" type="line"/>
      <point x="-44" y="718"/>
      <point x="20" y="685"/>
      <point x="80" y="626" type="curve"/>
    </contour>
    <contour>
      <point x="1" y="901" type="line"/>
      <point x="1" y="915"/>
      <point x="-2" y="964"/>
      <point x="-87" y="964" type="curve" smooth="yes"/>
      <point x="-125" y="964" type="line"/>
      <point x="-126" y="959" type="line"/>
      <point x="-99" y="925" type="line"/>
      <point x="-68" y="925" type="line" smooth="yes"/>
      <point x="-25" y="925"/>
      <point x="-24" y="917"/>
      <point x="-21" y="899" type="curve"/>
    </contour>
  </outline>
</glyph>
<glyph name="vPrenkha" format="2">
  <unicode hex="1CD2"/>
  <outline>
    <contour>
      <point x="137" y="730" type="line"/>
      <point x="146" y="778" type="line"/>
      <point x="-173" y="778" type="line"/>
      <point x="-182" y="730" type="line"/>
    </contour>
  </outline>
</glyph>
<glyph name="vSvaritaYajurAggravated" format="2">
  <unicode hex="1CD5"/>
  <outline>
    <contour>
      <point x="-192" y="-211" type="curve" smooth="yes"/>
      <point x="-125" y="-211"/>
      <point x="-68" y="-161"/>
      <point x="-36" y="-57" type="curve"/>
      <point x="-58" y="-47" type="line"/>
      <point x="-64" y="-49" type="line"/>
      <point x="-92" y="-115"/>
      <point x="-143" y="-141"/>
      <point x="-189" y="-141" type="curve" smooth="yes"/>
      <point x="-234" y="-141"/>
      <point x="-270" y="-115"/>
      <point x="-277" y="-57" type="curve"/>
      <point x="-298" y="-47" type="line"/>
      <point x="-304" y="-49" type="line"/>
      <point x="-319" y="-118" type="line"/>
      <point x="-301" y="-118" type="line"/>
      <point x="-288" y="-177"/>
      <point x="-247" y="-211"/>
    </contour>
    <contour>
      <point x="-435" y="-211" type="curve" smooth="yes"/>
      <point x="-382" y="-211"/>
      <point x="-327" y="-179"/>
      <point x="-293" y="-98" type="curve"/>
      <point x="-304" y="-49" type="line"/>
      <point x="-332" y="-115"/>
      <point x="-386" y="-141"/>
      <point x="-432" y="-141" type="curve" smooth="yes"/>
      <point x="-478" y="-141"/>
      <point x="-510" y="-115"/>
      <point x="-516" y="-58" type="curve"/>
      <point x="-543" y="-50" type="line"/>
      <point x="-550" y="-52" type="line"/>
      <point x="-553" y="-163"/>
      <point x="-501" y="-211"/>
    </contour>
  </outline>
</glyph>
<glyph name="vSvaritaYajurIndependent" format="2">
  <unicode hex="1CD6"/>
  <outline>
    <contour>
      <point x="-161" y="-244" type="line"/>
      <point x="-152" y="-196" type="line"/>
      <point x="-458" y="-196" type="line"/>
      <point x="-429" y="-50" type="line"/>
      <point x="-477" y="-50" type="line"/>
      <point x="-515" y="-244" type="line"/>
    </contour>
  </outline>
</glyph>
<glyph name="vCandraBelow" format="2">
  <unicode hex="1CD8"/>
  <outline>
    <contour>
      <point x="-315" y="-232" type="curve" smooth="yes"/>
      <point x="-217" y="-232"/>
      <point x="-123" y="-177"/>
      <point x="-78" y="-67" type="curve"/>
      <point x="-100" y="-57" type="line"/>
      <point x="-107" y="-59" type="line"/>
      <point x="-151" y="-127"/>
      <point x="-241" y="-163"/>
      <point x="-318" y="-163" type="curve" smooth="yes"/>
      <point x="-395" y="-163"/>
      <point x="-459" y="-127"/>
      <point x="-481" y="-67" type="curve"/>
      <point x="-508" y="-59" type="line"/>
      <point x="-515" y="-61" type="line"/>
      <point x="-506" y="-170"/>
      <point x="-420" y="-232"/>
    </contour>
  </outline>
  <guideline angle="90" x="-87" y="0"/>
</glyph>
<glyph name="vAnusvaraBahirgomukha" format="2">
  <advance width="855"/>
  <unicode hex="1CEA"/>
  <outline>
    <contour>
      <point x="417" y="1" type="curve" smooth="yes"/>
      <point x="547" y="1"/>
      <point x="666" y="99"/>
      <point x="666" y="263" type="curve" smooth="yes"/>
      <point x="666" y="323"/>
      <point x="650" y="385"/>
      <point x="650" y="426" type="curve" smooth="yes"/>
      <point x="650" y="502"/>
      <point x="704" y="551"/>
      <point x="766" y="551" type="curve" smooth="yes"/>
      <point x="800" y="551"/>
      <point x="828" y="536"/>
      <point x="828" y="507" type="curve" smooth="yes"/>
      <point x="828" y="486"/>
      <point x="813" y="458"/>
      <point x="776" y="449" type="curve"/>
      <point x="810" y="432" type="line"/>
      <point x="798" y="466"/>
      <point x="776" y="483"/>
      <point x="745" y="483" type="curve" smooth="yes"/>
      <point x="706" y="483"/>
      <point x="681" y="455"/>
      <point x="681" y="423" type="curve" smooth="yes"/>
      <point x="681" y="392"/>
      <point x="704" y="363"/>
      <point x="748" y="363" type="curve" smooth="yes"/>
      <point x="804" y="363"/>
      <point x="864" y="411"/>
      <point x="864" y="500" type="curve" smooth="yes"/>
      <point x="864" y="585"/>
      <point x="809" y="620"/>
      <point x="752" y="620" type="curve" smooth="yes"/>
      <point x="667" y="620"/>
      <point x="606" y="543"/>
      <point x="606" y="435" type="curve" smooth="yes"/>
      <point x="606" y="401"/>
      <point x="612" y="348"/>
      <point x="612" y="311" type="curve" smooth="yes"/>
      <point x="612" y="135"/>
      <point x="479" y="96"/>
      <point x="399" y="96" type="curve" smooth="yes"/>
      <point x="325" y="96"/>
      <point x="255" y="123"/>
      <point x="255" y="208" type="curve" smooth="yes"/>
      <point x="255" y="305"/>
      <point x="340" y="373"/>
      <point x="340" y="468" type="curve" smooth="yes"/>
      <point x="340" y="533"/>
      <point x="300" y="620"/>
      <point x="211" y="620" type="curve" smooth="yes"/>
      <point x="135" y="620"/>
      <point x="73" y="555"/>
      <point x="73" y="475" type="curve" smooth="yes"/>
      <point x="73" y="412"/>
      <point x="112" y="371"/>
      <point x="163" y="371" type="curve" smooth="yes"/>
      <point x="208" y="371"/>
      <point x="229" y="402"/>
      <point x="229" y="431" type="curve" smooth="yes"/>
      <point x="229" y="463"/>
      <point x="205" y="485"/>
      <point x="175" y="485" type="curve" smooth="yes"/>
      <point x="162" y="485"/>
      <point x="149" y="481"/>
      <point x="133" y="467" type="curve"/>
      <point x="164" y="459" type="line"/>
      <point x="159" y="470"/>
      <point x="157" y="478"/>
      <point x="157" y="488" type="curve" smooth="yes"/>
      <point x="157" y="528"/>
      <point x="191" y="557"/>
      <point x="237" y="557" type="curve" smooth="yes"/>
      <point x="264" y="557"/>
      <point x="289" y="547"/>
      <point x="289" y="510" type="curve" smooth="yes"/>
      <point x="289" y="435"/>
      <point x="188" y="350"/>
      <point x="188" y="223" type="curve" smooth="yes"/>
      <point x="188" y="97"/>
      <point x="294" y="1"/>
    </contour>
  </outline>
</glyph>
<glyph name="vArdhavisarga" format="2">
  <advance width="590"/>
  <unicode hex="1CF2"/>
  <outline>
    <contour>
      <point x="309" y="315" type="curve" smooth="yes"/>
      <point x="437" y="315"/>
      <point x="532" y="410"/>
      <point x="590" y="483" type="curve"/>
      <point x="556" y="508" type="line"/>
      <point x="477" y="415"/>
      <point x="378" y="393"/>
      <point x="318" y="393" type="curve" smooth="yes"/>
      <point x="257" y="393"/>
      <point x="177" y="411"/>
      <point x="143" y="508" type="curve"/>
      <point x="106" y="489" type="line"/>
      <point x="127" y="406"/>
      <point x="180" y="315"/>
    </contour>
    <contour>
      <point x="311" y="263" type="curve" smooth="yes"/>
      <point x="183" y="263"/>
      <point x="87" y="168"/>
      <point x="29" y="95" type="curve"/>
      <point x="63" y="70" type="line"/>
      <point x="142" y="163"/>
      <point x="242" y="185"/>
      <point x="302" y="185" type="curve" smooth="yes"/>
      <point x="363" y="185"/>
      <point x="442" y="167"/>
      <point x="476" y="70" type="curve"/>
      <point x="513" y="89" type="line"/>
      <point x="492" y="172"/>
      <point x="440" y="263"/>
    </contour>
  </outline>
  <guideline angle="90" x="91" y="0"/>
  <guideline angle="79" x="586" y="0"/>
</glyph>
<glyph name="vUpadhmaniya" format="2">
  <advance width="777"/>
  <unicode hex="1CF6"/>
  <outline>
    <contour>
      <point x="534" y="158" type="curve" smooth="yes"/>
      <point x="632" y="158"/>
      <point x="703" y="244"/>
      <point x="740" y="419" type="curve"/>
      <point x="716" y="434" type="line"/>
      <point x="707" y="430" type="line"/>
      <point x="674" y="307"/>
      <point x="611" y="252"/>
      <point x="539" y="252" type="curve" smooth="yes"/>
      <point x="479" y="252"/>
      <point x="433" y="291"/>
      <point x="438" y="408" type="curve"/>
      <point x="415" y="424" type="line"/>
      <point x="406" y="420" type="line"/>
      <point x="387" y="307" type="line"/>
      <point x="405" y="307" type="line"/>
      <point x="410" y="205"/>
      <point x="461" y="158"/>
    </contour>
    <contour>
      <point x="237" y="158" type="curve" smooth="yes"/>
      <point x="307" y="158"/>
      <point x="368" y="200"/>
      <point x="412" y="331" type="curve"/>
      <point x="406" y="420" type="line"/>
      <point x="370" y="296"/>
      <point x="307" y="252"/>
      <point x="241" y="252" type="curve" smooth="yes"/>
      <point x="173" y="252"/>
      <point x="135" y="300"/>
      <point x="143" y="417" type="curve"/>
      <point x="113" y="428" type="line"/>
      <point x="104" y="424" type="line"/>
      <point x="100" y="397"/>
      <point x="99" y="372"/>
      <point x="99" y="349" type="curve" smooth="yes"/>
      <point x="99" y="222"/>
      <point x="151" y="158"/>
    </contour>
  </outline>
  <guideline angle="0" x="0" y="408"/>
</glyph>
<glyph name="bAuMark.fina" format="2">
  <advance width="247"/>
  <outline>
    <contour>
      <point x="116" y="-43" type="line"/>
      <point x="233" y="604" type="line" smooth="yes"/>
      <point x="236" y="619"/>
      <point x="237" y="635"/>
      <point x="237" y="647" type="curve" smooth="yes"/>
      <point x="237" y="731"/>
      <point x="188" y="785"/>
      <point x="60" y="785" type="curve" smooth="yes"/>
      <point x="8" y="785"/>
      <point x="-137" y="776"/>
      <point x="-198" y="776" type="curve" smooth="yes"/>
      <point x="-269" y="776"/>
      <point x="-296" y="788"/>
      <point x="-296" y="819" type="curve" smooth="yes"/>
      <point x="-296" y="833"/>
      <point x="-291" y="851"/>
      <point x="-268" y="876" type="curve"/>
      <point x="-288" y="896" type="line"/>
      <point x="-296" y="896" type="line"/>
      <point x="-328" y="867"/>
      <point x="-341" y="833"/>
      <point x="-341" y="804" type="curve" smooth="yes"/>
      <point x="-341" y="740"/>
      <point x="-279" y="694"/>
      <point x="-150" y="694" type="curve" smooth="yes"/>
      <point x="-90" y="694"/>
      <point x="46" y="704"/>
      <point x="109" y="704" type="curve" smooth="yes"/>
      <point x="169" y="704"/>
      <point x="196" y="695"/>
      <point x="196" y="664" type="curve" smooth="yes"/>
      <point x="196" y="644"/>
      <point x="185" y="626"/>
      <point x="155" y="603" type="curve"/>
      <point x="158" y="568" type="line"/>
      <point x="47" y="10" type="line"/>
      <point x="105" y="-43" type="line"/>
    </contour>
    <contour>
      <point x="168" y="552" type="line"/>
      <point x="181" y="620" type="line"/>
      <point x="21" y="620" type="line"/>
      <point x="19" y="612" type="line"/>
      <point x="68" y="552" type="line"/>
    </contour>
  </outline>
</glyph>
<glyph name="bAuMark.finaalt2" format="2">
  <advance width="237"/>
  <outline>
    <contour>
      <point x="106" y="-43" type="line"/>
      <point x="222" y="601" type="line" smooth="yes"/>
      <point x="225" y="620"/>
      <point x="227" y="637"/>
      <point x="227" y="654" type="curve" smooth="yes"/>
      <point x="227" y="739"/>
      <point x="175" y="792"/>
      <point x="67" y="792" type="curve" smooth="yes"/>
      <point x="0" y="792"/>
      <point x="-213" y="772"/>
      <point x="-284" y="772" type="curve" smooth="yes"/>
      <point x="-341" y="772"/>
      <point x="-359" y="785"/>
      <point x="-359" y="815" type="curve" smooth="yes"/>
      <point x="-359" y="839"/>
      <point x="-347" y="859"/>
      <point x="-330" y="879" type="curve"/>
      <point x="-350" y="899" type="line"/>
      <point x="-358" y="899" type="line"/>
      <point x="-390" y="868"/>
      <point x="-403" y="838"/>
      <point x="-403" y="805" type="curve" smooth="yes"/>
      <point x="-403" y="744"/>
      <point x="-359" y="700"/>
      <point x="-244" y="700" type="curve" smooth="yes"/>
      <point x="-167" y="700"/>
      <point x="45" y="720"/>
      <point x="107" y="720" type="curve" smooth="yes"/>
      <point x="163" y="720"/>
      <point x="186" y="703"/>
      <point x="186" y="669" type="curve" smooth="yes"/>
      <point x="186" y="651"/>
      <point x="179" y="630"/>
      <point x="142" y="601" type="curve"/>
      <point x="148" y="568" type="line"/>
      <point x="37" y="10" type="line"/>
      <point x="95" y="-43" type="line"/>
    </contour>
    <contour>
      <point x="158" y="552" type="line"/>
      <point x="171" y="620" type="line"/>
      <point x="21" y="620" type="line"/>
      <point x="19" y="612" type="line"/>
      <point x="68" y="552" type="line"/>
    </contour>
  </outline>
</glyph>
<glyph name="bAuMarkReph.alt2" format="2">
  <advance width="237"/>
  <outline>
    <contour>
      <point x="224" y="602" type="line"/>
      <point x="227" y="619"/>
      <point x="228" y="636"/>
      <point x="228" y="649" type="curve" smooth="yes"/>
      <point x="228" y="732"/>
      <point x="187" y="792"/>
      <point x="67" y="792" type="curve" smooth="yes"/>
      <point x="-2" y="792"/>
      <point x="-213" y="772"/>
      <point x="-284" y="772" type="curve" smooth="yes"/>
      <point x="-341" y="772"/>
      <point x="-359" y="785"/>
      <point x="-359" y="815" type="curve" smooth="yes"/>
      <point x="-359" y="839"/>
      <point x="-347" y="859"/>
      <point x="-330" y="879" type="curve"/>
      <point x="-350" y="899" type="line"/>
      <point x="-358" y="899" type="line"/>
      <point x="-390" y="868"/>
      <point x="-403" y="838"/>
      <point x="-403" y="805" type="curve" smooth="yes"/>
      <point x="-403" y="744"/>
      <point x="-359" y="700"/>
      <point x="-244" y="700" type="curve" smooth="yes"/>
      <point x="-167" y="700"/>
      <point x="45" y="720"/>
      <point x="107" y="720" type="curve" smooth="yes"/>
      <point x="164" y="720"/>
      <point x="186" y="703"/>
      <point x="186" y="670" type="curve" smooth="yes"/>
      <point x="186" y="644"/>
      <point x="173" y="625"/>
      <point x="144" y="602" type="curve"/>
    </contour>
    <contour>
      <point x="106" y="-43" type="line"/>
      <point x="217" y="568" type="line"/>
      <point x="148" y="568" type="line"/>
      <point x="37" y="10" type="line"/>
      <point x="95" y="-43" type="line"/>
    </contour>
    <contour>
      <point x="305" y="552" type="line"/>
      <point x="306" y="560" type="line"/>
      <point x="258" y="620" type="line"/>
      <point x="21" y="620" type="line"/>
      <point x="19" y="612" type="line"/>
      <point x="68" y="552" type="line"/>
    </contour>
    <contour>
      <point x="229" y="911" type="line"/>
      <point x="229" y="915" type="line"/>
      <point x="209" y="921" type="line"/>
      <point x="-104" y="748" type="line"/>
      <point x="-3" y="734" type="line"/>
    </contour>
  </outline>
</glyph>
<glyph name="bAuMarkReph" format="2">
  <advance width="247"/>
  <outline>
    <contour>
      <point x="234" y="602" type="line"/>
      <point x="237" y="617"/>
      <point x="238" y="632"/>
      <point x="238" y="644" type="curve" smooth="yes"/>
      <point x="238" y="739"/>
      <point x="175" y="785"/>
      <point x="61" y="785" type="curve" smooth="yes"/>
      <point x="10" y="785"/>
      <point x="-135" y="776"/>
      <point x="-198" y="776" type="curve" smooth="yes"/>
      <point x="-265" y="776"/>
      <point x="-295" y="786"/>
      <point x="-295" y="819" type="curve" smooth="yes"/>
      <point x="-295" y="833"/>
      <point x="-290" y="851"/>
      <point x="-267" y="876" type="curve"/>
      <point x="-287" y="896" type="line"/>
      <point x="-295" y="896" type="line"/>
      <point x="-327" y="867"/>
      <point x="-340" y="833"/>
      <point x="-340" y="805" type="curve" smooth="yes"/>
      <point x="-340" y="746"/>
      <point x="-284" y="697"/>
      <point x="-170" y="697" type="curve" smooth="yes"/>
      <point x="-113" y="697"/>
      <point x="-5" y="709"/>
      <point x="87" y="709" type="curve" smooth="yes"/>
      <point x="171" y="709"/>
      <point x="196" y="699"/>
      <point x="196" y="664" type="curve" smooth="yes"/>
      <point x="196" y="645"/>
      <point x="189" y="629"/>
      <point x="156" y="602" type="curve"/>
    </contour>
    <contour>
      <point x="117" y="-43" type="line"/>
      <point x="228" y="568" type="line"/>
      <point x="159" y="568" type="line"/>
      <point x="48" y="10" type="line"/>
      <point x="106" y="-43" type="line"/>
    </contour>
    <contour>
      <point x="316" y="552" type="line"/>
      <point x="317" y="560" type="line"/>
      <point x="269" y="620" type="line"/>
      <point x="22" y="620" type="line"/>
      <point x="20" y="612" type="line"/>
      <point x="69" y="552" type="line"/>
    </contour>
    <contour>
      <point x="305" y="911" type="line"/>
      <point x="306" y="915" type="line"/>
      <point x="285" y="921" type="line"/>
      <point x="-27" y="748" type="line"/>
      <point x="74" y="734" type="line"/>
    </contour>
  </outline>
</glyph>
<glyph name="bBBa" format="2">
  <advance width="916"/>
  <outline>
    <contour>
      <point x="355" y="132" type="line"/>
      <point x="337" y="121" type="line"/>
      <point x="283" y="224"/>
      <point x="217" y="272"/>
      <point x="151" y="302" type="curve"/>
      <point x="151" y="304" type="line"/>
      <point x="237" y="353"/>
      <point x="324" y="395"/>
      <point x="409" y="428" type="curve"/>
      <point x="423" y="524" type="line"/>
      <point x="315" y="486"/>
      <point x="170" y="413"/>
      <point x="23" y="332" type="curve"/>
      <point x="83" y="233" type="line"/>
      <point x="245" y="208"/>
      <point x="334" y="99"/>
      <point x="346" y="-16" type="curve"/>
    </contour>
    <contour>
      <point x="382" y="-33" type="line"/>
      <point x="398" y="68"/>
      <point x="409" y="132"/>
      <point x="424" y="208" type="curve" smooth="yes"/>
      <point x="431" y="246"/>
      <point x="435" y="260"/>
      <point x="446" y="324" type="curve"/>
      <point x="448" y="331" type="line"/>
      <point x="494" y="568" type="line"/>
      <point x="416" y="568" type="line"/>
      <point x="404" y="502" type="line"/>
      <point x="393" y="446" type="line" smooth="yes"/>
      <point x="360" y="279"/>
      <point x="339" y="164"/>
      <point x="340" y="116" type="curve"/>
      <point x="346" y="-16" type="line"/>
      <point x="371" y="-33" type="line"/>
    </contour>
    <contour>
      <point x="762" y="132" type="line"/>
      <point x="744" y="121" type="line"/>
      <point x="690" y="225"/>
      <point x="624" y="274"/>
      <point x="558" y="304" type="curve"/>
      <point x="559" y="306" type="line"/>
      <point x="644" y="354"/>
      <point x="731" y="396"/>
      <point x="818" y="429" type="curve"/>
      <point x="832" y="525" type="line"/>
      <point x="723" y="485"/>
      <point x="586" y="418"/>
      <point x="437" y="334" type="curve"/>
      <point x="433" y="313" type="line"/>
      <point x="446" y="320" type="line"/>
      <point x="490" y="235" type="line"/>
      <point x="653" y="210"/>
      <point x="742" y="98"/>
      <point x="756" y="-16" type="curve"/>
    </contour>
    <contour>
      <point x="984" y="552" type="line"/>
      <point x="986" y="560" type="line"/>
      <point x="938" y="620" type="line"/>
      <point x="22" y="620" type="line"/>
      <point x="20" y="612" type="line"/>
      <point x="68" y="552" type="line"/>
    </contour>
    <contour>
      <point x="792" y="-33" type="line"/>
      <point x="806" y="68"/>
      <point x="817" y="132"/>
      <point x="832" y="208" type="curve" smooth="yes"/>
      <point x="902" y="568" type="line"/>
      <point x="823" y="568" type="line"/>
      <point x="811" y="502" type="line"/>
      <point x="800" y="446" type="line" smooth="yes"/>
      <point x="767" y="279"/>
      <point x="746" y="164"/>
      <point x="747" y="116" type="curve"/>
      <point x="756" y="-16" type="line"/>
      <point x="781" y="-33" type="line"/>
    </contour>
  </outline>
</glyph>
<glyph name="bBBha" format="2">
  <advance width="689"/>
  <outline>
    <contour>
      <point x="512" y="299" type="line"/>
      <point x="493" y="293" type="line"/>
      <point x="454" y="336"/>
      <point x="406" y="366"/>
      <point x="348" y="381" type="curve"/>
      <point x="348" y="385" type="line"/>
      <point x="412" y="412"/>
      <point x="475" y="436"/>
      <point x="540" y="454" type="curve"/>
      <point x="552" y="539" type="line"/>
      <point x="432" y="501"/>
      <point x="319" y="459"/>
      <point x="222" y="414" type="curve"/>
      <point x="271" y="330" type="line"/>
      <point x="382" y="330"/>
      <point x="465" y="299"/>
      <point x="508" y="219" type="curve"/>
    </contour>
    <contour>
      <point x="757" y="552" type="line"/>
      <point x="759" y="560" type="line"/>
      <point x="711" y="620" type="line"/>
      <point x="22" y="620" type="line"/>
      <point x="20" y="612" type="line"/>
      <point x="68" y="552" type="line"/>
    </contour>
    <contour>
      <point x="559" y="266" type="line"/>
      <point x="561" y="294"/>
      <point x="568" y="329"/>
      <point x="573" y="356" type="curve" smooth="yes"/>
      <point x="615" y="572" type="line"/>
      <point x="542" y="572" type="line"/>
      <point x="505" y="380" type="line" smooth="yes"/>
      <point x="494" y="323"/>
      <point x="496" y="301"/>
      <point x="497" y="286" type="curve"/>
      <point x="508" y="219" type="line"/>
    </contour>
    <contour>
      <point x="383" y="-83" type="curve" smooth="yes"/>
      <point x="533" y="-83"/>
      <point x="621" y="24"/>
      <point x="621" y="133" type="curve" smooth="yes"/>
      <point x="621" y="192"/>
      <point x="595" y="256"/>
      <point x="546" y="290" type="curve"/>
      <point x="542" y="289" type="line"/>
      <point x="490" y="210"/>
      <point x="425" y="165"/>
      <point x="377" y="165" type="curve"/>
      <point x="377" y="201" type="line"/>
      <point x="364" y="160" type="line"/>
      <point x="380" y="166"/>
      <point x="393" y="183"/>
      <point x="393" y="205" type="curve" smooth="yes"/>
      <point x="393" y="237"/>
      <point x="364" y="257"/>
      <point x="333" y="257" type="curve" smooth="yes"/>
      <point x="298" y="257"/>
      <point x="256" y="230"/>
      <point x="256" y="181" type="curve" smooth="yes"/>
      <point x="256" y="133"/>
      <point x="298" y="91"/>
      <point x="371" y="91" type="curve" smooth="yes"/>
      <point x="449" y="91"/>
      <point x="524" y="138"/>
      <point x="579" y="219" type="curve"/>
      <point x="546" y="216" type="line"/>
      <point x="568" y="199"/>
      <point x="576" y="176"/>
      <point x="576" y="153" type="curve" smooth="yes"/>
      <point x="576" y="70"/>
      <point x="470" y="12"/>
      <point x="370" y="12" type="curve" smooth="yes"/>
      <point x="136" y="12"/>
      <point x="121" y="326"/>
      <point x="121" y="490" type="curve"/>
      <point x="93" y="499" type="line"/>
      <point x="83" y="499" type="line"/>
      <point x="57" y="27"/>
      <point x="231" y="-83"/>
    </contour>
  </outline>
</glyph>
<glyph name="bBDRa" format="2">
  <advance width="784"/>
  <outline>
    <contour>
      <point x="604" y="-82" type="line"/>
      <point x="603" y="-73"/>
      <point x="603" y="-34"/>
      <point x="603" y="-23" type="curve" smooth="yes"/>
      <point x="603" y="216"/>
      <point x="681" y="329"/>
      <point x="771" y="400" type="curve"/>
      <point x="772" y="407" type="line"/>
      <point x="668" y="497" type="line"/>
      <point x="572" y="437"/>
      <point x="495" y="368"/>
      <point x="423" y="292" type="curve"/>
      <point x="422" y="293" type="line"/>
      <point x="475" y="568" type="line"/>
      <point x="396" y="568" type="line"/>
      <point x="375" y="459" type="line" smooth="yes"/>
      <point x="356" y="358"/>
      <point x="340" y="281"/>
      <point x="342" y="232" type="curve"/>
      <point x="339" y="171" type="line"/>
      <point x="385" y="129" type="line"/>
      <point x="391" y="129" type="line"/>
      <point x="473" y="227"/>
      <point x="539" y="295"/>
      <point x="628" y="368" type="curve"/>
      <point x="630" y="365" type="line"/>
      <point x="598" y="315"/>
      <point x="558" y="259"/>
      <point x="558" y="87" type="curve" smooth="yes"/>
      <point x="558" y="33"/>
      <point x="562" y="-33"/>
      <point x="569" y="-65" type="curve"/>
      <point x="593" y="-82" type="line"/>
    </contour>
    <contour>
      <point x="604" y="-82" type="line"/>
      <point x="568" y="30" type="line"/>
      <point x="556" y="24" type="line"/>
      <point x="520" y="75"/>
      <point x="457" y="94"/>
      <point x="405" y="94" type="curve" smooth="yes"/>
      <point x="362" y="94"/>
      <point x="227" y="81"/>
      <point x="167" y="81" type="curve" smooth="yes"/>
      <point x="90" y="81"/>
      <point x="58" y="103"/>
      <point x="58" y="159" type="curve" smooth="yes"/>
      <point x="58" y="194"/>
      <point x="71" y="216"/>
      <point x="84" y="240" type="curve"/>
      <point x="64" y="255" type="line"/>
      <point x="55" y="255" type="line"/>
      <point x="22" y="199"/>
      <point x="13" y="166"/>
      <point x="13" y="133" type="curve" smooth="yes"/>
      <point x="13" y="46"/>
      <point x="76" y="-2"/>
      <point x="196" y="-2" type="curve" smooth="yes"/>
      <point x="267" y="-2"/>
      <point x="411" y="15"/>
      <point x="475" y="15" type="curve" smooth="yes"/>
      <point x="535" y="15"/>
      <point x="555" y="0"/>
      <point x="569" y="-65" type="curve"/>
      <point x="593" y="-82" type="line"/>
    </contour>
    <contour>
      <point x="366" y="256" type="line"/>
      <point x="336" y="238" type="line"/>
      <point x="295" y="313"/>
      <point x="243" y="344"/>
      <point x="192" y="367" type="curve"/>
      <point x="192" y="369" type="line"/>
      <point x="250" y="396"/>
      <point x="324" y="424"/>
      <point x="391" y="444" type="curve"/>
      <point x="403" y="531" type="line"/>
      <point x="301" y="500"/>
      <point x="192" y="458"/>
      <point x="71" y="399" type="curve"/>
      <point x="133" y="310" type="line"/>
      <point x="202" y="296"/>
      <point x="293" y="264"/>
      <point x="339" y="171" type="curve"/>
    </contour>
    <contour>
      <point x="852" y="552" type="line"/>
      <point x="853" y="560" type="line"/>
      <point x="805" y="620" type="line"/>
      <point x="21" y="620" type="line"/>
      <point x="19" y="612" type="line"/>
      <point x="68" y="552" type="line"/>
    </contour>
  </outline>
</glyph>
<glyph name="bBDa" format="2">
  <advance width="772"/>
  <outline>
    <contour>
      <point x="585" y="-35" type="line"/>
      <point x="585" y="-28"/>
      <point x="585" y="-21"/>
      <point x="585" y="-15" type="curve" smooth="yes"/>
      <point x="585" y="152"/>
      <point x="630" y="298"/>
      <point x="752" y="397" type="curve"/>
      <point x="753" y="403" type="line"/>
      <point x="651" y="491" type="line"/>
      <point x="549" y="429"/>
      <point x="471" y="358"/>
      <point x="397" y="280" type="curve"/>
      <point x="395" y="281" type="line"/>
      <point x="450" y="568" type="line"/>
      <point x="371" y="568" type="line"/>
      <point x="350" y="459" type="line" smooth="yes"/>
      <point x="331" y="359"/>
      <point x="311" y="263"/>
      <point x="314" y="218" type="curve"/>
      <point x="313" y="158" type="line"/>
      <point x="359" y="115" type="line"/>
      <point x="365" y="115" type="line"/>
      <point x="452" y="220"/>
      <point x="521" y="293"/>
      <point x="609" y="365" type="curve"/>
      <point x="611" y="362" type="line"/>
      <point x="575" y="305"/>
      <point x="541" y="246"/>
      <point x="541" y="97" type="curve" smooth="yes"/>
      <point x="541" y="52"/>
      <point x="544" y="9"/>
      <point x="549" y="-17" type="curve"/>
      <point x="574" y="-35" type="line"/>
    </contour>
    <contour>
      <point x="341" y="243" type="line"/>
      <point x="311" y="225" type="line"/>
      <point x="265" y="304"/>
      <point x="210" y="337"/>
      <point x="154" y="361" type="curve"/>
      <point x="155" y="363" type="line"/>
      <point x="223" y="394"/>
      <point x="295" y="422"/>
      <point x="364" y="444" type="curve"/>
      <point x="378" y="530" type="line"/>
      <point x="284" y="504"/>
      <point x="161" y="454"/>
      <point x="34" y="393" type="curve"/>
      <point x="95" y="304" type="line"/>
      <point x="169" y="289"/>
      <point x="264" y="256"/>
      <point x="313" y="158" type="curve"/>
    </contour>
    <contour>
      <point x="840" y="552" type="line"/>
      <point x="842" y="560" type="line"/>
      <point x="794" y="620" type="line"/>
      <point x="22" y="620" type="line"/>
      <point x="20" y="612" type="line"/>
      <point x="68" y="552" type="line"/>
    </contour>
  </outline>
</glyph>
<glyph name="bBDda" format="2">
  <advance width="744"/>
  <outline>
    <contour>
      <point x="436" y="-14" type="curve" smooth="yes"/>
      <point x="581" y="-14"/>
      <point x="697" y="78"/>
      <point x="697" y="229" type="curve" smooth="yes"/>
      <point x="697" y="300"/>
      <point x="671" y="356"/>
      <point x="629" y="390" type="curve"/>
      <point x="624" y="389" type="line"/>
      <point x="558" y="318"/>
      <point x="494" y="269"/>
      <point x="463" y="269" type="curve" smooth="yes"/>
      <point x="452" y="269"/>
      <point x="448" y="274"/>
      <point x="448" y="283" type="curve"/>
      <point x="448" y="285"/>
      <point x="449" y="287"/>
      <point x="449" y="289" type="curve"/>
      <point x="503" y="568" type="line"/>
      <point x="430" y="568" type="line"/>
      <point x="390" y="362" type="line" smooth="yes"/>
      <point x="386" y="341"/>
      <point x="385" y="326"/>
      <point x="385" y="314" type="curve" smooth="yes"/>
      <point x="385" y="305"/>
      <point x="385" y="298"/>
      <point x="386" y="291" type="curve"/>
      <point x="416" y="220" type="line"/>
      <point x="425" y="211"/>
      <point x="449" y="188"/>
      <point x="479" y="188" type="curve" smooth="yes"/>
      <point x="533" y="188"/>
      <point x="617" y="262"/>
      <point x="655" y="307" type="curve"/>
      <point x="624" y="311" type="line"/>
      <point x="644" y="290"/>
      <point x="652" y="266"/>
      <point x="652" y="241" type="curve" smooth="yes"/>
      <point x="652" y="156"/>
      <point x="560" y="79"/>
      <point x="428" y="79" type="curve" smooth="yes"/>
      <point x="264" y="79"/>
      <point x="131" y="199"/>
      <point x="107" y="477" type="curve"/>
      <point x="79" y="486" type="line"/>
      <point x="69" y="486" type="line"/>
      <point x="69" y="249"/>
      <point x="187" y="-14"/>
    </contour>
    <contour>
      <point x="401" y="300" type="line"/>
      <point x="382" y="294" type="line"/>
      <point x="351" y="338"/>
      <point x="294" y="365"/>
      <point x="258" y="378" type="curve"/>
      <point x="257" y="382" type="line"/>
      <point x="315" y="412"/>
      <point x="372" y="436"/>
      <point x="429" y="457" type="curve"/>
      <point x="439" y="537" type="line"/>
      <point x="337" y="497"/>
      <point x="245" y="456"/>
      <point x="159" y="412" type="curve"/>
      <point x="209" y="329" type="line"/>
      <point x="331" y="312"/>
      <point x="369" y="275"/>
      <point x="416" y="220" type="curve"/>
    </contour>
    <contour>
      <point x="812" y="552" type="line"/>
      <point x="814" y="560" type="line"/>
      <point x="766" y="620" type="line"/>
      <point x="22" y="620" type="line"/>
      <point x="20" y="612" type="line"/>
      <point x="68" y="552" type="line"/>
    </contour>
  </outline>
</glyph>
<glyph name="bBDdha" format="2">
  <advance width="752"/>
  <outline>
    <contour>
      <point x="430" y="22" type="curve" smooth="yes"/>
      <point x="511" y="22"/>
      <point x="725" y="194"/>
      <point x="725" y="343" type="curve" smooth="yes"/>
      <point x="725" y="408"/>
      <point x="685" y="453"/>
      <point x="626" y="453" type="curve" smooth="yes"/>
      <point x="567" y="453"/>
      <point x="528" y="407"/>
      <point x="528" y="362" type="curve" smooth="yes"/>
      <point x="528" y="325"/>
      <point x="554" y="292"/>
      <point x="599" y="292" type="curve" smooth="yes"/>
      <point x="618" y="292"/>
      <point x="633" y="298"/>
      <point x="650" y="308" type="curve"/>
      <point x="627" y="319" type="line"/>
      <point x="607" y="211"/>
      <point x="458" y="104"/>
      <point x="408" y="104" type="curve" smooth="yes"/>
      <point x="392" y="104"/>
      <point x="385" y="114"/>
      <point x="385" y="133" type="curve" smooth="yes"/>
      <point x="385" y="143"/>
      <point x="387" y="152"/>
      <point x="389" y="163" type="curve" smooth="yes"/>
      <point x="468" y="568" type="line"/>
      <point x="389" y="568" type="line"/>
      <point x="368" y="460" type="line" smooth="yes"/>
      <point x="341" y="321"/>
      <point x="328" y="235"/>
      <point x="326" y="201" type="curve"/>
      <point x="323" y="118" type="line"/>
      <point x="341" y="67"/>
      <point x="389" y="22"/>
    </contour>
    <contour>
      <point x="341" y="217" type="line"/>
      <point x="323" y="206" type="line"/>
      <point x="275" y="287"/>
      <point x="214" y="327"/>
      <point x="156" y="352" type="curve"/>
      <point x="157" y="353" type="line"/>
      <point x="231" y="387"/>
      <point x="309" y="418"/>
      <point x="384" y="442" type="curve"/>
      <point x="396" y="529" type="line"/>
      <point x="296" y="501"/>
      <point x="169" y="450"/>
      <point x="33" y="384" type="curve"/>
      <point x="95" y="293" type="line"/>
      <point x="209" y="270"/>
      <point x="298" y="216"/>
      <point x="323" y="118" type="curve"/>
    </contour>
    <contour>
      <point x="820" y="552" type="line"/>
      <point x="822" y="560" type="line"/>
      <point x="774" y="620" type="line"/>
      <point x="22" y="620" type="line"/>
      <point x="20" y="612" type="line"/>
      <point x="68" y="552" type="line"/>
    </contour>
  </outline>
</glyph>
<glyph name="bBDha" format="2">
  <advance width="674"/>
  <outline>
    <contour>
      <point x="356" y="52" type="line"/>
      <point x="338" y="41" type="line"/>
      <point x="296" y="101"/>
      <point x="242" y="136"/>
      <point x="193" y="153" type="curve"/>
      <point x="193" y="156" type="line"/>
      <point x="286" y="202"/>
      <point x="453" y="268"/>
      <point x="570" y="309" type="curve"/>
      <point x="549" y="323" type="line"/>
      <point x="536" y="269"/>
      <point x="528" y="229"/>
      <point x="514" y="160" type="curve" smooth="yes"/>
      <point x="502" y="99"/>
      <point x="493" y="48"/>
      <point x="484" y="-13" type="curve"/>
      <point x="540" y="-71" type="line"/>
      <point x="547" y="-68" type="line"/>
      <point x="559" y="3"/>
      <point x="570" y="65"/>
      <point x="583" y="132" type="curve" smooth="yes"/>
      <point x="596" y="198"/>
      <point x="604" y="239"/>
      <point x="619" y="304" type="curve"/>
      <point x="545" y="382" type="line"/>
      <point x="498" y="365"/>
      <point x="450" y="348"/>
      <point x="402" y="329" type="curve" smooth="yes"/>
      <point x="288" y="284"/>
      <point x="186" y="241"/>
      <point x="69" y="183" type="curve"/>
      <point x="120" y="97" type="line"/>
      <point x="249" y="87"/>
      <point x="335" y="24"/>
      <point x="349" y="-82" type="curve"/>
    </contour>
    <contour>
      <point x="260" y="251" type="line"/>
      <point x="227" y="291"/>
      <point x="193" y="310"/>
      <point x="165" y="324" type="curve"/>
      <point x="166" y="327" type="line"/>
      <point x="253" y="371"/>
      <point x="340" y="405"/>
      <point x="428" y="436" type="curve"/>
      <point x="440" y="522" type="line"/>
      <point x="309" y="478"/>
      <point x="173" y="422"/>
      <point x="38" y="355" type="curve"/>
      <point x="93" y="264" type="line"/>
      <point x="131" y="263"/>
      <point x="176" y="257"/>
      <point x="215" y="235" type="curve"/>
    </contour>
    <contour>
      <point x="384" y="-98" type="line"/>
      <point x="401" y="3"/>
      <point x="413" y="67"/>
      <point x="428" y="143" type="curve" smooth="yes"/>
      <point x="511" y="568" type="line"/>
      <point x="433" y="568" type="line"/>
      <point x="373" y="257" type="line" smooth="yes"/>
      <point x="353" y="154"/>
      <point x="340" y="54"/>
      <point x="342" y="39" type="curve"/>
      <point x="349" y="-82" type="line"/>
      <point x="373" y="-98" type="line"/>
    </contour>
    <contour>
      <point x="742" y="552" type="line"/>
      <point x="744" y="560" type="line"/>
      <point x="696" y="620" type="line"/>
      <point x="22" y="620" type="line"/>
      <point x="20" y="612" type="line"/>
      <point x="68" y="552" type="line"/>
    </contour>
  </outline>
</glyph>
<glyph name="bBJa" format="2">
  <advance width="927"/>
  <outline>
    <contour>
      <point x="425" y="-4" type="curve" smooth="yes"/>
      <point x="546" y="-4"/>
      <point x="649" y="63"/>
      <point x="649" y="189" type="curve" smooth="yes"/>
      <point x="649" y="252"/>
      <point x="623" y="304"/>
      <point x="574" y="335" type="curve"/>
      <point x="569" y="334" type="line"/>
      <point x="522" y="293"/>
      <point x="484" y="269"/>
      <point x="462" y="269" type="curve" smooth="yes"/>
      <point x="452" y="269"/>
      <point x="448" y="274"/>
      <point x="448" y="283" type="curve"/>
      <point x="448" y="285"/>
      <point x="449" y="287"/>
      <point x="449" y="289" type="curve"/>
      <point x="503" y="568" type="line"/>
      <point x="430" y="568" type="line"/>
      <point x="390" y="362" type="line" smooth="yes"/>
      <point x="386" y="342"/>
      <point x="385" y="327"/>
      <point x="385" y="315" type="curve" smooth="yes"/>
      <point x="385" y="306"/>
      <point x="385" y="298"/>
      <point x="386" y="292" type="curve"/>
      <point x="415" y="221" type="line"/>
      <point x="431" y="204"/>
      <point x="456" y="188"/>
      <point x="479" y="188" type="curve" smooth="yes"/>
      <point x="519" y="188"/>
      <point x="582" y="235"/>
      <point x="607" y="259" type="curve"/>
      <point x="580" y="261" type="line"/>
      <point x="596" y="250"/>
      <point x="605" y="230"/>
      <point x="605" y="208" type="curve" smooth="yes"/>
      <point x="605" y="141"/>
      <point x="520" y="89"/>
      <point x="414" y="89" type="curve" smooth="yes"/>
      <point x="261" y="89"/>
      <point x="133" y="197"/>
      <point x="107" y="477" type="curve"/>
      <point x="79" y="486" type="line"/>
      <point x="69" y="486" type="line"/>
      <point x="69" y="255"/>
      <point x="187" y="-4"/>
    </contour>
    <contour>
      <point x="401" y="300" type="line"/>
      <point x="382" y="294" type="line"/>
      <point x="351" y="338"/>
      <point x="294" y="365"/>
      <point x="258" y="378" type="curve"/>
      <point x="257" y="382" type="line"/>
      <point x="315" y="412"/>
      <point x="372" y="436"/>
      <point x="429" y="457" type="curve"/>
      <point x="439" y="537" type="line"/>
      <point x="337" y="497"/>
      <point x="245" y="456"/>
      <point x="159" y="412" type="curve"/>
      <point x="209" y="329" type="line"/>
      <point x="334" y="312"/>
      <point x="369" y="273"/>
      <point x="415" y="221" type="curve"/>
    </contour>
    <contour>
      <point x="721" y="-65" type="line"/>
      <point x="721" y="133"/>
      <point x="737" y="249"/>
      <point x="910" y="370" type="curve"/>
      <point x="911" y="376" type="line"/>
      <point x="815" y="469" type="line"/>
      <point x="765" y="449"/>
      <point x="721" y="440"/>
      <point x="677" y="440" type="curve" smooth="yes"/>
      <point x="599" y="440"/>
      <point x="532" y="469"/>
      <point x="485" y="539" type="curve"/>
      <point x="476" y="500" type="line"/>
      <point x="526" y="425"/>
      <point x="595" y="368"/>
      <point x="702" y="368" type="curve" smooth="yes"/>
      <point x="727" y="368"/>
      <point x="754" y="371"/>
      <point x="781" y="377" type="curve"/>
      <point x="784" y="375" type="line"/>
      <point x="700" y="283"/>
      <point x="677" y="191"/>
      <point x="677" y="80" type="curve" smooth="yes"/>
      <point x="677" y="40"/>
      <point x="680" y="-14"/>
      <point x="685" y="-47" type="curve"/>
      <point x="710" y="-65" type="line"/>
    </contour>
    <contour>
      <point x="995" y="552" type="line"/>
      <point x="997" y="560" type="line"/>
      <point x="949" y="620" type="line"/>
      <point x="22" y="620" type="line"/>
      <point x="20" y="612" type="line"/>
      <point x="68" y="552" type="line"/>
    </contour>
  </outline>
</glyph>
<glyph name="bBJha" format="2">
  <advance width="682"/>
  <outline>
    <contour>
      <point x="371" y="-98" type="line"/>
      <point x="388" y="3"/>
      <point x="399" y="62"/>
      <point x="414" y="138" type="curve" smooth="yes"/>
      <point x="508" y="620" type="line"/>
      <point x="22" y="620" type="line"/>
      <point x="20" y="612" type="line"/>
      <point x="68" y="552" type="line"/>
      <point x="417" y="552" type="line"/>
      <point x="368" y="300" type="line"/>
      <point x="359" y="255" type="line"/>
      <point x="340" y="142"/>
      <point x="326" y="59"/>
      <point x="329" y="36" type="curve"/>
      <point x="336" y="-82" type="line"/>
      <point x="360" y="-98" type="line"/>
    </contour>
    <contour>
      <point x="344" y="53" type="line"/>
      <point x="325" y="42" type="line"/>
      <point x="283" y="101"/>
      <point x="233" y="134"/>
      <point x="183" y="151" type="curve"/>
      <point x="184" y="154" type="line"/>
      <point x="231" y="181"/>
      <point x="310" y="220"/>
      <point x="376" y="234" type="curve"/>
      <point x="387" y="319" type="line"/>
      <point x="286" y="301"/>
      <point x="183" y="248"/>
      <point x="58" y="178" type="curve"/>
      <point x="109" y="94" type="line"/>
      <point x="237" y="83"/>
      <point x="323" y="25"/>
      <point x="336" y="-82" type="curve"/>
    </contour>
    <contour>
      <point x="245" y="252" type="line"/>
      <point x="218" y="286"/>
      <point x="185" y="307"/>
      <point x="152" y="324" type="curve"/>
      <point x="153" y="327" type="line"/>
      <point x="217" y="361"/>
      <point x="324" y="408"/>
      <point x="414" y="427" type="curve"/>
      <point x="426" y="513" type="line"/>
      <point x="298" y="493"/>
      <point x="150" y="419"/>
      <point x="25" y="355" type="curve"/>
      <point x="80" y="264" type="line"/>
      <point x="124" y="263"/>
      <point x="164" y="256"/>
      <point x="197" y="236" type="curve"/>
    </contour>
    <contour>
      <point x="524" y="114" type="line"/>
      <point x="506" y="103" type="line"/>
      <point x="486" y="147"/>
      <point x="460" y="191"/>
      <point x="416" y="216" type="curve"/>
      <point x="401" y="145" type="line"/>
      <point x="490" y="111"/>
      <point x="510" y="24"/>
      <point x="516" y="-46" type="curve"/>
    </contour>
    <contour>
      <point x="551" y="-63" type="line"/>
      <point x="566" y="38"/>
      <point x="578" y="102"/>
      <point x="593" y="178" type="curve" smooth="yes"/>
      <point x="666" y="552" type="line"/>
      <point x="750" y="552" type="line"/>
      <point x="752" y="560" type="line"/>
      <point x="704" y="620" type="line"/>
      <point x="602" y="620" type="line"/>
      <point x="553" y="370" type="line" smooth="yes"/>
      <point x="523" y="215"/>
      <point x="509" y="146"/>
      <point x="510" y="96" type="curve"/>
      <point x="516" y="-46" type="line"/>
      <point x="540" y="-63" type="line"/>
    </contour>
  </outline>
</glyph>
<glyph name="bBLa" format="2">
  <advance width="569"/>
  <outline>
    <contour>
      <point x="425" y="193" type="line"/>
      <point x="407" y="182" type="line"/>
      <point x="354" y="273"/>
      <point x="278" y="312"/>
      <point x="207" y="334" type="curve"/>
      <point x="208" y="336" type="line"/>
      <point x="294" y="374"/>
      <point x="381" y="407"/>
      <point x="471" y="436" type="curve"/>
      <point x="481" y="527" type="line"/>
      <point x="373" y="493"/>
      <point x="201" y="426"/>
      <point x="76" y="367" type="curve"/>
      <point x="137" y="267" type="line"/>
      <point x="323" y="255"/>
      <point x="408" y="193"/>
      <point x="410" y="22" type="curve"/>
    </contour>
    <contour>
      <point x="432" y="-83" type="line"/>
      <point x="449" y="18"/>
      <point x="461" y="82"/>
      <point x="476" y="158" type="curve" smooth="yes"/>
      <point x="556" y="568" type="line"/>
      <point x="477" y="568" type="line"/>
      <point x="456" y="460" type="line" smooth="yes"/>
      <point x="423" y="290"/>
      <point x="408" y="214"/>
      <point x="410" y="174" type="curve"/>
      <point x="417" y="121" type="line"/>
      <point x="394" y="-65" type="line"/>
      <point x="421" y="-83" type="line"/>
    </contour>
    <contour>
      <point x="638" y="552" type="line"/>
      <point x="639" y="560" type="line"/>
      <point x="591" y="620" type="line"/>
      <point x="22" y="620" type="line"/>
      <point x="20" y="612" type="line"/>
      <point x="69" y="552" type="line"/>
    </contour>
    <contour>
      <point x="114" y="-77" type="curve" smooth="yes"/>
      <point x="173" y="-77"/>
      <point x="204" y="-40"/>
      <point x="204" y="-8" type="curve" smooth="yes"/>
      <point x="204" y="14"/>
      <point x="188" y="38"/>
      <point x="157" y="38" type="curve" smooth="yes"/>
      <point x="127" y="38"/>
      <point x="106" y="15"/>
      <point x="106" y="-11" type="curve" smooth="yes"/>
      <point x="106" y="-28"/>
      <point x="115" y="-41"/>
      <point x="136" y="-48" type="curve"/>
      <point x="138" y="-10" type="line"/>
      <point x="112" y="-36" type="line"/>
      <point x="77" y="-36"/>
      <point x="61" y="-14"/>
      <point x="61" y="12" type="curve" smooth="yes"/>
      <point x="61" y="58"/>
      <point x="109" y="92"/>
      <point x="163" y="92" type="curve" smooth="yes"/>
      <point x="206" y="92"/>
      <point x="247" y="70"/>
      <point x="261" y="9" type="curve"/>
      <point x="257" y="81" type="line"/>
      <point x="233" y="120"/>
      <point x="200" y="164"/>
      <point x="135" y="164" type="curve" smooth="yes"/>
      <point x="62" y="164"/>
      <point x="-3" y="108"/>
      <point x="-3" y="36" type="curve" smooth="yes"/>
      <point x="-3" y="-25"/>
      <point x="43" y="-77"/>
    </contour>
    <contour>
      <point x="424" y="60" type="line"/>
      <point x="405" y="54" type="line"/>
      <point x="383" y="121"/>
      <point x="355" y="152"/>
      <point x="317" y="152" type="curve" smooth="yes"/>
      <point x="285" y="152"/>
      <point x="255" y="128"/>
      <point x="242" y="76" type="curve"/>
      <point x="261" y="9" type="line"/>
      <point x="280" y="-1" type="line"/>
      <point x="287" y="1" type="line"/>
      <point x="288" y="31"/>
      <point x="303" y="83"/>
      <point x="341" y="83" type="curve" smooth="yes"/>
      <point x="362" y="83"/>
      <point x="390" y="66"/>
      <point x="394" y="-65" type="curve"/>
    </contour>
  </outline>
</glyph>
<glyph name="bBRa" format="2">
  <advance width="676"/>
  <outline>
    <contour>
      <point x="522" y="159" type="line"/>
      <point x="504" y="148" type="line"/>
      <point x="446" y="249"/>
      <point x="376" y="295"/>
      <point x="307" y="325" type="curve"/>
      <point x="308" y="327" type="line"/>
      <point x="395" y="368"/>
      <point x="488" y="405"/>
      <point x="575" y="434" type="curve"/>
      <point x="589" y="527" type="line"/>
      <point x="476" y="494"/>
      <point x="328" y="433"/>
      <point x="175" y="359" type="curve"/>
      <point x="242" y="262" type="line"/>
      <point x="386" y="233"/>
      <point x="494" y="152"/>
      <point x="512" y="25" type="curve"/>
    </contour>
    <contour>
      <point x="521" y="58" type="line"/>
      <point x="502" y="49" type="line"/>
      <point x="451" y="105"/>
      <point x="393" y="119"/>
      <point x="323" y="119" type="curve" smooth="yes"/>
      <point x="285" y="119"/>
      <point x="226" y="115"/>
      <point x="195" y="115" type="curve" smooth="yes"/>
      <point x="109" y="115"/>
      <point x="72" y="145"/>
      <point x="72" y="199" type="curve" smooth="yes"/>
      <point x="72" y="233"/>
      <point x="86" y="274"/>
      <point x="114" y="314" type="curve"/>
      <point x="94" y="329" type="line"/>
      <point x="85" y="329" type="line"/>
      <point x="50" y="284"/>
      <point x="22" y="229"/>
      <point x="22" y="175" type="curve" smooth="yes"/>
      <point x="22" y="85"/>
      <point x="99" y="30"/>
      <point x="216" y="30" type="curve" smooth="yes"/>
      <point x="263" y="30"/>
      <point x="329" y="39"/>
      <point x="413" y="39" type="curve" smooth="yes"/>
      <point x="469" y="39"/>
      <point x="505" y="35"/>
      <point x="511" y="-39" type="curve"/>
    </contour>
    <contour>
      <point x="547" y="-56" type="line"/>
      <point x="561" y="41"/>
      <point x="572" y="102"/>
      <point x="586" y="174" type="curve" smooth="yes"/>
      <point x="663" y="568" type="line"/>
      <point x="583" y="568" type="line"/>
      <point x="561" y="453" type="line" smooth="yes"/>
      <point x="526" y="271"/>
      <point x="501" y="149"/>
      <point x="508" y="126" type="curve"/>
      <point x="511" y="-39" type="line"/>
      <point x="536" y="-56" type="line"/>
    </contour>
    <contour>
      <point x="744" y="552" type="line"/>
      <point x="746" y="560" type="line"/>
      <point x="698" y="620" type="line"/>
      <point x="22" y="620" type="line"/>
      <point x="20" y="612" type="line"/>
      <point x="68" y="552" type="line"/>
    </contour>
  </outline>
</glyph>
